M48
; DRILL file {KiCad 8.0.6} date 2025-01-20T10:33:38+0700
; FORMAT={-:-/ absolute / metric / decimal}
; #@! TF.CreationDate,2025-01-20T10:33:38+07:00
; #@! TF.GenerationSoftware,Kicad,Pcbnew,8.0.6
; #@! TF.FileFunction,Plated,1,4,PTH
FMAT,2
METRIC
; #@! TA.AperFunction,Plated,PTH,ViaDrill
T1C0.300
; #@! TA.AperFunction,Plated,PTH,ComponentDrill
T2C0.762
; #@! TA.AperFunction,Plated,PTH,ComponentDrill
T3C0.800
; #@! TA.AperFunction,Plated,PTH,ComponentDrill
T4C0.900
; #@! TA.AperFunction,Plated,PTH,ComponentDrill
T5C1.000
; #@! TA.AperFunction,Plated,PTH,ComponentDrill
T6C1.100
%
G90
G05
T1
X91.5Y-113.1
X94.0Y-110.5
X132.0Y-113.0
X133.1Y-117.9
T2
X80.01Y-125.73
X82.55Y-125.73
X85.09Y-125.73
X86.36Y-90.17
X87.63Y-125.73
X88.9Y-90.17
X90.17Y-125.73
X91.44Y-90.17
X93.98Y-90.17
T3
X134.62Y-88.9
X135.8Y-99.1
X135.8Y-104.1
X135.89Y-111.9
X135.89Y-116.9
X135.89Y-123.3
X135.89Y-128.3
X142.24Y-88.9
X142.3Y-96.89
X142.3Y-104.51
X142.4Y-121.1
X142.4Y-128.72
X142.6Y-109.7
X142.6Y-117.32
T4
X147.32Y-88.9
X149.86Y-88.9
T5
X113.03Y-92.71
X113.03Y-95.25
X113.03Y-97.79
X113.03Y-100.33
X113.03Y-102.87
X113.03Y-105.41
X113.03Y-107.95
X113.03Y-110.49
X113.03Y-113.03
X113.03Y-115.57
X113.03Y-118.11
X113.03Y-120.65
X113.03Y-123.19
X113.03Y-125.73
X113.03Y-128.27
X128.27Y-92.71
X128.27Y-95.25
X128.27Y-97.79
X128.27Y-100.33
X128.27Y-102.87
X128.27Y-105.41
X128.27Y-107.95
X128.27Y-110.49
X128.27Y-113.03
X128.27Y-115.57
X128.27Y-118.11
X128.27Y-120.65
X128.27Y-123.19
X128.27Y-125.73
X128.27Y-128.27
T6
X147.88Y-98.08
X147.88Y-102.58
X148.44Y-110.49
X148.44Y-114.99
X148.44Y-121.92
X148.44Y-126.42
X154.38Y-98.08
X154.38Y-102.58
X154.94Y-110.49
X154.94Y-114.99
X154.94Y-121.92
X154.94Y-126.42
M30
