%TF.GenerationSoftware,KiCad,Pcbnew,8.0.6*%
%TF.CreationDate,2025-01-20T10:33:41+07:00*%
%TF.ProjectId,test_1,74657374-5f31-42e6-9b69-6361645f7063,rev?*%
%TF.SameCoordinates,Original*%
%TF.FileFunction,Drillmap*%
%TF.FilePolarity,Positive*%
%FSLAX45Y45*%
G04 Gerber Fmt 4.5, Leading zero omitted, Abs format (unit mm)*
G04 Created by KiCad (PCBNEW 8.0.6) date 2025-01-20 10:33:41*
%MOMM*%
%LPD*%
G01*
G04 APERTURE LIST*
%ADD10C,0.038100*%
%ADD11C,0.200000*%
%ADD12C,0.100000*%
%ADD13C,0.110000*%
G04 APERTURE END LIST*
D10*
X7000000Y-8000000D02*
X7000000Y-14000000D01*
X7000000Y-14000000D02*
X16000000Y-14000000D01*
X16000000Y-14000000D02*
X16000000Y-8000000D01*
X16000000Y-8000000D02*
X7000000Y-8000000D01*
D11*
D12*
X9135000Y-11295000D02*
X9165000Y-11325000D01*
X9165000Y-11295000D02*
X9135000Y-11325000D01*
X9385000Y-11035000D02*
X9415000Y-11065000D01*
X9415000Y-11035000D02*
X9385000Y-11065000D01*
X13185000Y-11285000D02*
X13215000Y-11315000D01*
X13215000Y-11285000D02*
X13185000Y-11315000D01*
X13295000Y-11775000D02*
X13325000Y-11805000D01*
X13325000Y-11775000D02*
X13295000Y-11805000D01*
X8039100Y-12573000D02*
G75*
G02*
X7962900Y-12573000I-38100J0D01*
G01*
X7962900Y-12573000D02*
G75*
G02*
X8039100Y-12573000I38100J0D01*
G01*
X8293100Y-12573000D02*
G75*
G02*
X8216900Y-12573000I-38100J0D01*
G01*
X8216900Y-12573000D02*
G75*
G02*
X8293100Y-12573000I38100J0D01*
G01*
X8547100Y-12573000D02*
G75*
G02*
X8470900Y-12573000I-38100J0D01*
G01*
X8470900Y-12573000D02*
G75*
G02*
X8547100Y-12573000I38100J0D01*
G01*
X8674100Y-9017000D02*
G75*
G02*
X8597900Y-9017000I-38100J0D01*
G01*
X8597900Y-9017000D02*
G75*
G02*
X8674100Y-9017000I38100J0D01*
G01*
X8801100Y-12573000D02*
G75*
G02*
X8724900Y-12573000I-38100J0D01*
G01*
X8724900Y-12573000D02*
G75*
G02*
X8801100Y-12573000I38100J0D01*
G01*
X8928100Y-9017000D02*
G75*
G02*
X8851900Y-9017000I-38100J0D01*
G01*
X8851900Y-9017000D02*
G75*
G02*
X8928100Y-9017000I38100J0D01*
G01*
X9055100Y-12573000D02*
G75*
G02*
X8978900Y-12573000I-38100J0D01*
G01*
X8978900Y-12573000D02*
G75*
G02*
X9055100Y-12573000I38100J0D01*
G01*
X9182100Y-9017000D02*
G75*
G02*
X9105900Y-9017000I-38100J0D01*
G01*
X9105900Y-9017000D02*
G75*
G02*
X9182100Y-9017000I38100J0D01*
G01*
X9436100Y-9017000D02*
G75*
G02*
X9359900Y-9017000I-38100J0D01*
G01*
X9359900Y-9017000D02*
G75*
G02*
X9436100Y-9017000I38100J0D01*
G01*
X13462000Y-8850000D02*
X13462000Y-8930000D01*
X13422000Y-8890000D02*
X13502000Y-8890000D01*
X13580000Y-9870000D02*
X13580000Y-9950000D01*
X13540000Y-9910000D02*
X13620000Y-9910000D01*
X13580000Y-10370000D02*
X13580000Y-10450000D01*
X13540000Y-10410000D02*
X13620000Y-10410000D01*
X13589000Y-11150000D02*
X13589000Y-11230000D01*
X13549000Y-11190000D02*
X13629000Y-11190000D01*
X13589000Y-11650000D02*
X13589000Y-11730000D01*
X13549000Y-11690000D02*
X13629000Y-11690000D01*
X13589000Y-12290000D02*
X13589000Y-12370000D01*
X13549000Y-12330000D02*
X13629000Y-12330000D01*
X13589000Y-12790000D02*
X13589000Y-12870000D01*
X13549000Y-12830000D02*
X13629000Y-12830000D01*
X14224000Y-8850000D02*
X14224000Y-8930000D01*
X14184000Y-8890000D02*
X14264000Y-8890000D01*
X14230000Y-9649000D02*
X14230000Y-9729000D01*
X14190000Y-9689000D02*
X14270000Y-9689000D01*
X14230000Y-10411000D02*
X14230000Y-10491000D01*
X14190000Y-10451000D02*
X14270000Y-10451000D01*
X14240000Y-12070000D02*
X14240000Y-12150000D01*
X14200000Y-12110000D02*
X14280000Y-12110000D01*
X14240000Y-12832000D02*
X14240000Y-12912000D01*
X14200000Y-12872000D02*
X14280000Y-12872000D01*
X14260000Y-10930000D02*
X14260000Y-11010000D01*
X14220000Y-10970000D02*
X14300000Y-10970000D01*
X14260000Y-11692000D02*
X14260000Y-11772000D01*
X14220000Y-11732000D02*
X14300000Y-11732000D01*
X14763820Y-8921820D02*
X14763820Y-8858180D01*
X14700180Y-8858180D01*
X14700180Y-8921820D01*
X14763820Y-8921820D01*
X15017820Y-8921820D02*
X15017820Y-8858180D01*
X14954180Y-8858180D01*
X14954180Y-8921820D01*
X15017820Y-8921820D01*
X11303000Y-9321000D02*
X11353000Y-9271000D01*
X11303000Y-9221000D01*
X11253000Y-9271000D01*
X11303000Y-9321000D01*
X11303000Y-9575000D02*
X11353000Y-9525000D01*
X11303000Y-9475000D01*
X11253000Y-9525000D01*
X11303000Y-9575000D01*
X11303000Y-9829000D02*
X11353000Y-9779000D01*
X11303000Y-9729000D01*
X11253000Y-9779000D01*
X11303000Y-9829000D01*
X11303000Y-10083000D02*
X11353000Y-10033000D01*
X11303000Y-9983000D01*
X11253000Y-10033000D01*
X11303000Y-10083000D01*
X11303000Y-10337000D02*
X11353000Y-10287000D01*
X11303000Y-10237000D01*
X11253000Y-10287000D01*
X11303000Y-10337000D01*
X11303000Y-10591000D02*
X11353000Y-10541000D01*
X11303000Y-10491000D01*
X11253000Y-10541000D01*
X11303000Y-10591000D01*
X11303000Y-10845000D02*
X11353000Y-10795000D01*
X11303000Y-10745000D01*
X11253000Y-10795000D01*
X11303000Y-10845000D01*
X11303000Y-11099000D02*
X11353000Y-11049000D01*
X11303000Y-10999000D01*
X11253000Y-11049000D01*
X11303000Y-11099000D01*
X11303000Y-11353000D02*
X11353000Y-11303000D01*
X11303000Y-11253000D01*
X11253000Y-11303000D01*
X11303000Y-11353000D01*
X11303000Y-11607000D02*
X11353000Y-11557000D01*
X11303000Y-11507000D01*
X11253000Y-11557000D01*
X11303000Y-11607000D01*
X11303000Y-11861000D02*
X11353000Y-11811000D01*
X11303000Y-11761000D01*
X11253000Y-11811000D01*
X11303000Y-11861000D01*
X11303000Y-12115000D02*
X11353000Y-12065000D01*
X11303000Y-12015000D01*
X11253000Y-12065000D01*
X11303000Y-12115000D01*
X11303000Y-12369000D02*
X11353000Y-12319000D01*
X11303000Y-12269000D01*
X11253000Y-12319000D01*
X11303000Y-12369000D01*
X11303000Y-12623000D02*
X11353000Y-12573000D01*
X11303000Y-12523000D01*
X11253000Y-12573000D01*
X11303000Y-12623000D01*
X11303000Y-12877000D02*
X11353000Y-12827000D01*
X11303000Y-12777000D01*
X11253000Y-12827000D01*
X11303000Y-12877000D01*
X12827000Y-9321000D02*
X12877000Y-9271000D01*
X12827000Y-9221000D01*
X12777000Y-9271000D01*
X12827000Y-9321000D01*
X12827000Y-9575000D02*
X12877000Y-9525000D01*
X12827000Y-9475000D01*
X12777000Y-9525000D01*
X12827000Y-9575000D01*
X12827000Y-9829000D02*
X12877000Y-9779000D01*
X12827000Y-9729000D01*
X12777000Y-9779000D01*
X12827000Y-9829000D01*
X12827000Y-10083000D02*
X12877000Y-10033000D01*
X12827000Y-9983000D01*
X12777000Y-10033000D01*
X12827000Y-10083000D01*
X12827000Y-10337000D02*
X12877000Y-10287000D01*
X12827000Y-10237000D01*
X12777000Y-10287000D01*
X12827000Y-10337000D01*
X12827000Y-10591000D02*
X12877000Y-10541000D01*
X12827000Y-10491000D01*
X12777000Y-10541000D01*
X12827000Y-10591000D01*
X12827000Y-10845000D02*
X12877000Y-10795000D01*
X12827000Y-10745000D01*
X12777000Y-10795000D01*
X12827000Y-10845000D01*
X12827000Y-11099000D02*
X12877000Y-11049000D01*
X12827000Y-10999000D01*
X12777000Y-11049000D01*
X12827000Y-11099000D01*
X12827000Y-11353000D02*
X12877000Y-11303000D01*
X12827000Y-11253000D01*
X12777000Y-11303000D01*
X12827000Y-11353000D01*
X12827000Y-11607000D02*
X12877000Y-11557000D01*
X12827000Y-11507000D01*
X12777000Y-11557000D01*
X12827000Y-11607000D01*
X12827000Y-11861000D02*
X12877000Y-11811000D01*
X12827000Y-11761000D01*
X12777000Y-11811000D01*
X12827000Y-11861000D01*
X12827000Y-12115000D02*
X12877000Y-12065000D01*
X12827000Y-12015000D01*
X12777000Y-12065000D01*
X12827000Y-12115000D01*
X12827000Y-12369000D02*
X12877000Y-12319000D01*
X12827000Y-12269000D01*
X12777000Y-12319000D01*
X12827000Y-12369000D01*
X12827000Y-12623000D02*
X12877000Y-12573000D01*
X12827000Y-12523000D01*
X12777000Y-12573000D01*
X12827000Y-12623000D01*
X12827000Y-12877000D02*
X12877000Y-12827000D01*
X12827000Y-12777000D01*
X12777000Y-12827000D01*
X12827000Y-12877000D01*
D13*
X14733000Y-9753000D02*
X14843000Y-9863000D01*
X14843000Y-9753000D02*
X14733000Y-9863000D01*
X14843000Y-9808000D02*
G75*
G02*
X14733000Y-9808000I-55000J0D01*
G01*
X14733000Y-9808000D02*
G75*
G02*
X14843000Y-9808000I55000J0D01*
G01*
X14733000Y-10203000D02*
X14843000Y-10313000D01*
X14843000Y-10203000D02*
X14733000Y-10313000D01*
X14843000Y-10258000D02*
G75*
G02*
X14733000Y-10258000I-55000J0D01*
G01*
X14733000Y-10258000D02*
G75*
G02*
X14843000Y-10258000I55000J0D01*
G01*
X14789000Y-10994000D02*
X14899000Y-11104000D01*
X14899000Y-10994000D02*
X14789000Y-11104000D01*
X14899000Y-11049000D02*
G75*
G02*
X14789000Y-11049000I-55000J0D01*
G01*
X14789000Y-11049000D02*
G75*
G02*
X14899000Y-11049000I55000J0D01*
G01*
X14789000Y-11444000D02*
X14899000Y-11554000D01*
X14899000Y-11444000D02*
X14789000Y-11554000D01*
X14899000Y-11499000D02*
G75*
G02*
X14789000Y-11499000I-55000J0D01*
G01*
X14789000Y-11499000D02*
G75*
G02*
X14899000Y-11499000I55000J0D01*
G01*
X14789000Y-12137000D02*
X14899000Y-12247000D01*
X14899000Y-12137000D02*
X14789000Y-12247000D01*
X14899000Y-12192000D02*
G75*
G02*
X14789000Y-12192000I-55000J0D01*
G01*
X14789000Y-12192000D02*
G75*
G02*
X14899000Y-12192000I55000J0D01*
G01*
X14789000Y-12587000D02*
X14899000Y-12697000D01*
X14899000Y-12587000D02*
X14789000Y-12697000D01*
X14899000Y-12642000D02*
G75*
G02*
X14789000Y-12642000I-55000J0D01*
G01*
X14789000Y-12642000D02*
G75*
G02*
X14899000Y-12642000I55000J0D01*
G01*
X15383000Y-9753000D02*
X15493000Y-9863000D01*
X15493000Y-9753000D02*
X15383000Y-9863000D01*
X15493000Y-9808000D02*
G75*
G02*
X15383000Y-9808000I-55000J0D01*
G01*
X15383000Y-9808000D02*
G75*
G02*
X15493000Y-9808000I55000J0D01*
G01*
X15383000Y-10203000D02*
X15493000Y-10313000D01*
X15493000Y-10203000D02*
X15383000Y-10313000D01*
X15493000Y-10258000D02*
G75*
G02*
X15383000Y-10258000I-55000J0D01*
G01*
X15383000Y-10258000D02*
G75*
G02*
X15493000Y-10258000I55000J0D01*
G01*
X15439000Y-10994000D02*
X15549000Y-11104000D01*
X15549000Y-10994000D02*
X15439000Y-11104000D01*
X15549000Y-11049000D02*
G75*
G02*
X15439000Y-11049000I-55000J0D01*
G01*
X15439000Y-11049000D02*
G75*
G02*
X15549000Y-11049000I55000J0D01*
G01*
X15439000Y-11444000D02*
X15549000Y-11554000D01*
X15549000Y-11444000D02*
X15439000Y-11554000D01*
X15549000Y-11499000D02*
G75*
G02*
X15439000Y-11499000I-55000J0D01*
G01*
X15439000Y-11499000D02*
G75*
G02*
X15549000Y-11499000I55000J0D01*
G01*
X15439000Y-12137000D02*
X15549000Y-12247000D01*
X15549000Y-12137000D02*
X15439000Y-12247000D01*
X15549000Y-12192000D02*
G75*
G02*
X15439000Y-12192000I-55000J0D01*
G01*
X15439000Y-12192000D02*
G75*
G02*
X15549000Y-12192000I55000J0D01*
G01*
X15439000Y-12587000D02*
X15549000Y-12697000D01*
X15549000Y-12587000D02*
X15439000Y-12697000D01*
X15549000Y-12642000D02*
G75*
G02*
X15439000Y-12642000I-55000J0D01*
G01*
X15439000Y-12642000D02*
G75*
G02*
X15549000Y-12642000I55000J0D01*
G01*
D11*
X7258872Y-14313389D02*
X7258872Y-14113389D01*
X7258872Y-14113389D02*
X7306491Y-14113389D01*
X7306491Y-14113389D02*
X7335062Y-14122913D01*
X7335062Y-14122913D02*
X7354110Y-14141960D01*
X7354110Y-14141960D02*
X7363634Y-14161008D01*
X7363634Y-14161008D02*
X7373157Y-14199103D01*
X7373157Y-14199103D02*
X7373157Y-14227674D01*
X7373157Y-14227674D02*
X7363634Y-14265770D01*
X7363634Y-14265770D02*
X7354110Y-14284817D01*
X7354110Y-14284817D02*
X7335062Y-14303865D01*
X7335062Y-14303865D02*
X7306491Y-14313389D01*
X7306491Y-14313389D02*
X7258872Y-14313389D01*
X7458872Y-14313389D02*
X7458872Y-14180055D01*
X7458872Y-14218151D02*
X7468396Y-14199103D01*
X7468396Y-14199103D02*
X7477919Y-14189579D01*
X7477919Y-14189579D02*
X7496967Y-14180055D01*
X7496967Y-14180055D02*
X7516015Y-14180055D01*
X7582681Y-14313389D02*
X7582681Y-14180055D01*
X7582681Y-14113389D02*
X7573157Y-14122913D01*
X7573157Y-14122913D02*
X7582681Y-14132436D01*
X7582681Y-14132436D02*
X7592205Y-14122913D01*
X7592205Y-14122913D02*
X7582681Y-14113389D01*
X7582681Y-14113389D02*
X7582681Y-14132436D01*
X7706491Y-14313389D02*
X7687443Y-14303865D01*
X7687443Y-14303865D02*
X7677919Y-14284817D01*
X7677919Y-14284817D02*
X7677919Y-14113389D01*
X7811253Y-14313389D02*
X7792205Y-14303865D01*
X7792205Y-14303865D02*
X7782681Y-14284817D01*
X7782681Y-14284817D02*
X7782681Y-14113389D01*
X8039824Y-14313389D02*
X8039824Y-14113389D01*
X8039824Y-14113389D02*
X8106491Y-14256246D01*
X8106491Y-14256246D02*
X8173157Y-14113389D01*
X8173157Y-14113389D02*
X8173157Y-14313389D01*
X8354110Y-14313389D02*
X8354110Y-14208627D01*
X8354110Y-14208627D02*
X8344586Y-14189579D01*
X8344586Y-14189579D02*
X8325538Y-14180055D01*
X8325538Y-14180055D02*
X8287443Y-14180055D01*
X8287443Y-14180055D02*
X8268396Y-14189579D01*
X8354110Y-14303865D02*
X8335062Y-14313389D01*
X8335062Y-14313389D02*
X8287443Y-14313389D01*
X8287443Y-14313389D02*
X8268396Y-14303865D01*
X8268396Y-14303865D02*
X8258872Y-14284817D01*
X8258872Y-14284817D02*
X8258872Y-14265770D01*
X8258872Y-14265770D02*
X8268396Y-14246722D01*
X8268396Y-14246722D02*
X8287443Y-14237198D01*
X8287443Y-14237198D02*
X8335062Y-14237198D01*
X8335062Y-14237198D02*
X8354110Y-14227674D01*
X8449348Y-14180055D02*
X8449348Y-14380055D01*
X8449348Y-14189579D02*
X8468396Y-14180055D01*
X8468396Y-14180055D02*
X8506491Y-14180055D01*
X8506491Y-14180055D02*
X8525539Y-14189579D01*
X8525539Y-14189579D02*
X8535062Y-14199103D01*
X8535062Y-14199103D02*
X8544586Y-14218151D01*
X8544586Y-14218151D02*
X8544586Y-14275293D01*
X8544586Y-14275293D02*
X8535062Y-14294341D01*
X8535062Y-14294341D02*
X8525539Y-14303865D01*
X8525539Y-14303865D02*
X8506491Y-14313389D01*
X8506491Y-14313389D02*
X8468396Y-14313389D01*
X8468396Y-14313389D02*
X8449348Y-14303865D01*
X8630300Y-14294341D02*
X8639824Y-14303865D01*
X8639824Y-14303865D02*
X8630300Y-14313389D01*
X8630300Y-14313389D02*
X8620777Y-14303865D01*
X8620777Y-14303865D02*
X8630300Y-14294341D01*
X8630300Y-14294341D02*
X8630300Y-14313389D01*
X8630300Y-14189579D02*
X8639824Y-14199103D01*
X8639824Y-14199103D02*
X8630300Y-14208627D01*
X8630300Y-14208627D02*
X8620777Y-14199103D01*
X8620777Y-14199103D02*
X8630300Y-14189579D01*
X8630300Y-14189579D02*
X8630300Y-14208627D01*
D12*
X6968095Y-14626905D02*
X6998095Y-14656905D01*
X6998095Y-14626905D02*
X6968095Y-14656905D01*
D11*
X7296967Y-14533389D02*
X7316015Y-14533389D01*
X7316015Y-14533389D02*
X7335062Y-14542913D01*
X7335062Y-14542913D02*
X7344586Y-14552436D01*
X7344586Y-14552436D02*
X7354110Y-14571484D01*
X7354110Y-14571484D02*
X7363634Y-14609579D01*
X7363634Y-14609579D02*
X7363634Y-14657198D01*
X7363634Y-14657198D02*
X7354110Y-14695293D01*
X7354110Y-14695293D02*
X7344586Y-14714341D01*
X7344586Y-14714341D02*
X7335062Y-14723865D01*
X7335062Y-14723865D02*
X7316015Y-14733389D01*
X7316015Y-14733389D02*
X7296967Y-14733389D01*
X7296967Y-14733389D02*
X7277919Y-14723865D01*
X7277919Y-14723865D02*
X7268396Y-14714341D01*
X7268396Y-14714341D02*
X7258872Y-14695293D01*
X7258872Y-14695293D02*
X7249348Y-14657198D01*
X7249348Y-14657198D02*
X7249348Y-14609579D01*
X7249348Y-14609579D02*
X7258872Y-14571484D01*
X7258872Y-14571484D02*
X7268396Y-14552436D01*
X7268396Y-14552436D02*
X7277919Y-14542913D01*
X7277919Y-14542913D02*
X7296967Y-14533389D01*
X7449348Y-14714341D02*
X7458872Y-14723865D01*
X7458872Y-14723865D02*
X7449348Y-14733389D01*
X7449348Y-14733389D02*
X7439824Y-14723865D01*
X7439824Y-14723865D02*
X7449348Y-14714341D01*
X7449348Y-14714341D02*
X7449348Y-14733389D01*
X7525538Y-14533389D02*
X7649348Y-14533389D01*
X7649348Y-14533389D02*
X7582681Y-14609579D01*
X7582681Y-14609579D02*
X7611253Y-14609579D01*
X7611253Y-14609579D02*
X7630300Y-14619103D01*
X7630300Y-14619103D02*
X7639824Y-14628627D01*
X7639824Y-14628627D02*
X7649348Y-14647674D01*
X7649348Y-14647674D02*
X7649348Y-14695293D01*
X7649348Y-14695293D02*
X7639824Y-14714341D01*
X7639824Y-14714341D02*
X7630300Y-14723865D01*
X7630300Y-14723865D02*
X7611253Y-14733389D01*
X7611253Y-14733389D02*
X7554110Y-14733389D01*
X7554110Y-14733389D02*
X7535062Y-14723865D01*
X7535062Y-14723865D02*
X7525538Y-14714341D01*
X7773157Y-14533389D02*
X7792205Y-14533389D01*
X7792205Y-14533389D02*
X7811253Y-14542913D01*
X7811253Y-14542913D02*
X7820777Y-14552436D01*
X7820777Y-14552436D02*
X7830300Y-14571484D01*
X7830300Y-14571484D02*
X7839824Y-14609579D01*
X7839824Y-14609579D02*
X7839824Y-14657198D01*
X7839824Y-14657198D02*
X7830300Y-14695293D01*
X7830300Y-14695293D02*
X7820777Y-14714341D01*
X7820777Y-14714341D02*
X7811253Y-14723865D01*
X7811253Y-14723865D02*
X7792205Y-14733389D01*
X7792205Y-14733389D02*
X7773157Y-14733389D01*
X7773157Y-14733389D02*
X7754110Y-14723865D01*
X7754110Y-14723865D02*
X7744586Y-14714341D01*
X7744586Y-14714341D02*
X7735062Y-14695293D01*
X7735062Y-14695293D02*
X7725538Y-14657198D01*
X7725538Y-14657198D02*
X7725538Y-14609579D01*
X7725538Y-14609579D02*
X7735062Y-14571484D01*
X7735062Y-14571484D02*
X7744586Y-14552436D01*
X7744586Y-14552436D02*
X7754110Y-14542913D01*
X7754110Y-14542913D02*
X7773157Y-14533389D01*
X7963634Y-14533389D02*
X7982681Y-14533389D01*
X7982681Y-14533389D02*
X8001729Y-14542913D01*
X8001729Y-14542913D02*
X8011253Y-14552436D01*
X8011253Y-14552436D02*
X8020777Y-14571484D01*
X8020777Y-14571484D02*
X8030300Y-14609579D01*
X8030300Y-14609579D02*
X8030300Y-14657198D01*
X8030300Y-14657198D02*
X8020777Y-14695293D01*
X8020777Y-14695293D02*
X8011253Y-14714341D01*
X8011253Y-14714341D02*
X8001729Y-14723865D01*
X8001729Y-14723865D02*
X7982681Y-14733389D01*
X7982681Y-14733389D02*
X7963634Y-14733389D01*
X7963634Y-14733389D02*
X7944586Y-14723865D01*
X7944586Y-14723865D02*
X7935062Y-14714341D01*
X7935062Y-14714341D02*
X7925538Y-14695293D01*
X7925538Y-14695293D02*
X7916015Y-14657198D01*
X7916015Y-14657198D02*
X7916015Y-14609579D01*
X7916015Y-14609579D02*
X7925538Y-14571484D01*
X7925538Y-14571484D02*
X7935062Y-14552436D01*
X7935062Y-14552436D02*
X7944586Y-14542913D01*
X7944586Y-14542913D02*
X7963634Y-14533389D01*
X8116015Y-14733389D02*
X8116015Y-14600055D01*
X8116015Y-14619103D02*
X8125538Y-14609579D01*
X8125538Y-14609579D02*
X8144586Y-14600055D01*
X8144586Y-14600055D02*
X8173158Y-14600055D01*
X8173158Y-14600055D02*
X8192205Y-14609579D01*
X8192205Y-14609579D02*
X8201729Y-14628627D01*
X8201729Y-14628627D02*
X8201729Y-14733389D01*
X8201729Y-14628627D02*
X8211253Y-14609579D01*
X8211253Y-14609579D02*
X8230300Y-14600055D01*
X8230300Y-14600055D02*
X8258872Y-14600055D01*
X8258872Y-14600055D02*
X8277919Y-14609579D01*
X8277919Y-14609579D02*
X8287443Y-14628627D01*
X8287443Y-14628627D02*
X8287443Y-14733389D01*
X8382681Y-14733389D02*
X8382681Y-14600055D01*
X8382681Y-14619103D02*
X8392205Y-14609579D01*
X8392205Y-14609579D02*
X8411253Y-14600055D01*
X8411253Y-14600055D02*
X8439824Y-14600055D01*
X8439824Y-14600055D02*
X8458872Y-14609579D01*
X8458872Y-14609579D02*
X8468396Y-14628627D01*
X8468396Y-14628627D02*
X8468396Y-14733389D01*
X8468396Y-14628627D02*
X8477920Y-14609579D01*
X8477920Y-14609579D02*
X8496967Y-14600055D01*
X8496967Y-14600055D02*
X8525539Y-14600055D01*
X8525539Y-14600055D02*
X8544586Y-14609579D01*
X8544586Y-14609579D02*
X8554110Y-14628627D01*
X8554110Y-14628627D02*
X8554110Y-14733389D01*
X8944586Y-14523865D02*
X8773158Y-14781008D01*
X9201729Y-14533389D02*
X9220777Y-14533389D01*
X9220777Y-14533389D02*
X9239824Y-14542913D01*
X9239824Y-14542913D02*
X9249348Y-14552436D01*
X9249348Y-14552436D02*
X9258872Y-14571484D01*
X9258872Y-14571484D02*
X9268396Y-14609579D01*
X9268396Y-14609579D02*
X9268396Y-14657198D01*
X9268396Y-14657198D02*
X9258872Y-14695293D01*
X9258872Y-14695293D02*
X9249348Y-14714341D01*
X9249348Y-14714341D02*
X9239824Y-14723865D01*
X9239824Y-14723865D02*
X9220777Y-14733389D01*
X9220777Y-14733389D02*
X9201729Y-14733389D01*
X9201729Y-14733389D02*
X9182682Y-14723865D01*
X9182682Y-14723865D02*
X9173158Y-14714341D01*
X9173158Y-14714341D02*
X9163634Y-14695293D01*
X9163634Y-14695293D02*
X9154110Y-14657198D01*
X9154110Y-14657198D02*
X9154110Y-14609579D01*
X9154110Y-14609579D02*
X9163634Y-14571484D01*
X9163634Y-14571484D02*
X9173158Y-14552436D01*
X9173158Y-14552436D02*
X9182682Y-14542913D01*
X9182682Y-14542913D02*
X9201729Y-14533389D01*
X9354110Y-14714341D02*
X9363634Y-14723865D01*
X9363634Y-14723865D02*
X9354110Y-14733389D01*
X9354110Y-14733389D02*
X9344586Y-14723865D01*
X9344586Y-14723865D02*
X9354110Y-14714341D01*
X9354110Y-14714341D02*
X9354110Y-14733389D01*
X9487443Y-14533389D02*
X9506491Y-14533389D01*
X9506491Y-14533389D02*
X9525539Y-14542913D01*
X9525539Y-14542913D02*
X9535063Y-14552436D01*
X9535063Y-14552436D02*
X9544586Y-14571484D01*
X9544586Y-14571484D02*
X9554110Y-14609579D01*
X9554110Y-14609579D02*
X9554110Y-14657198D01*
X9554110Y-14657198D02*
X9544586Y-14695293D01*
X9544586Y-14695293D02*
X9535063Y-14714341D01*
X9535063Y-14714341D02*
X9525539Y-14723865D01*
X9525539Y-14723865D02*
X9506491Y-14733389D01*
X9506491Y-14733389D02*
X9487443Y-14733389D01*
X9487443Y-14733389D02*
X9468396Y-14723865D01*
X9468396Y-14723865D02*
X9458872Y-14714341D01*
X9458872Y-14714341D02*
X9449348Y-14695293D01*
X9449348Y-14695293D02*
X9439824Y-14657198D01*
X9439824Y-14657198D02*
X9439824Y-14609579D01*
X9439824Y-14609579D02*
X9449348Y-14571484D01*
X9449348Y-14571484D02*
X9458872Y-14552436D01*
X9458872Y-14552436D02*
X9468396Y-14542913D01*
X9468396Y-14542913D02*
X9487443Y-14533389D01*
X9744586Y-14733389D02*
X9630301Y-14733389D01*
X9687443Y-14733389D02*
X9687443Y-14533389D01*
X9687443Y-14533389D02*
X9668396Y-14561960D01*
X9668396Y-14561960D02*
X9649348Y-14581008D01*
X9649348Y-14581008D02*
X9630301Y-14590532D01*
X9935063Y-14733389D02*
X9820777Y-14733389D01*
X9877920Y-14733389D02*
X9877920Y-14533389D01*
X9877920Y-14533389D02*
X9858872Y-14561960D01*
X9858872Y-14561960D02*
X9839824Y-14581008D01*
X9839824Y-14581008D02*
X9820777Y-14590532D01*
X10049348Y-14619103D02*
X10030301Y-14609579D01*
X10030301Y-14609579D02*
X10020777Y-14600055D01*
X10020777Y-14600055D02*
X10011253Y-14581008D01*
X10011253Y-14581008D02*
X10011253Y-14571484D01*
X10011253Y-14571484D02*
X10020777Y-14552436D01*
X10020777Y-14552436D02*
X10030301Y-14542913D01*
X10030301Y-14542913D02*
X10049348Y-14533389D01*
X10049348Y-14533389D02*
X10087444Y-14533389D01*
X10087444Y-14533389D02*
X10106491Y-14542913D01*
X10106491Y-14542913D02*
X10116015Y-14552436D01*
X10116015Y-14552436D02*
X10125539Y-14571484D01*
X10125539Y-14571484D02*
X10125539Y-14581008D01*
X10125539Y-14581008D02*
X10116015Y-14600055D01*
X10116015Y-14600055D02*
X10106491Y-14609579D01*
X10106491Y-14609579D02*
X10087444Y-14619103D01*
X10087444Y-14619103D02*
X10049348Y-14619103D01*
X10049348Y-14619103D02*
X10030301Y-14628627D01*
X10030301Y-14628627D02*
X10020777Y-14638151D01*
X10020777Y-14638151D02*
X10011253Y-14657198D01*
X10011253Y-14657198D02*
X10011253Y-14695293D01*
X10011253Y-14695293D02*
X10020777Y-14714341D01*
X10020777Y-14714341D02*
X10030301Y-14723865D01*
X10030301Y-14723865D02*
X10049348Y-14733389D01*
X10049348Y-14733389D02*
X10087444Y-14733389D01*
X10087444Y-14733389D02*
X10106491Y-14723865D01*
X10106491Y-14723865D02*
X10116015Y-14714341D01*
X10116015Y-14714341D02*
X10125539Y-14695293D01*
X10125539Y-14695293D02*
X10125539Y-14657198D01*
X10125539Y-14657198D02*
X10116015Y-14638151D01*
X10116015Y-14638151D02*
X10106491Y-14628627D01*
X10106491Y-14628627D02*
X10087444Y-14619103D01*
X10201729Y-14533389D02*
X10201729Y-14571484D01*
X10277920Y-14533389D02*
X10277920Y-14571484D01*
X10573158Y-14809579D02*
X10563634Y-14800055D01*
X10563634Y-14800055D02*
X10544586Y-14771484D01*
X10544586Y-14771484D02*
X10535063Y-14752436D01*
X10535063Y-14752436D02*
X10525539Y-14723865D01*
X10525539Y-14723865D02*
X10516015Y-14676246D01*
X10516015Y-14676246D02*
X10516015Y-14638151D01*
X10516015Y-14638151D02*
X10525539Y-14590532D01*
X10525539Y-14590532D02*
X10535063Y-14561960D01*
X10535063Y-14561960D02*
X10544586Y-14542913D01*
X10544586Y-14542913D02*
X10563634Y-14514341D01*
X10563634Y-14514341D02*
X10573158Y-14504817D01*
X10735063Y-14600055D02*
X10735063Y-14733389D01*
X10687444Y-14523865D02*
X10639825Y-14666722D01*
X10639825Y-14666722D02*
X10763634Y-14666722D01*
X10992206Y-14733389D02*
X10992206Y-14533389D01*
X11077920Y-14733389D02*
X11077920Y-14628627D01*
X11077920Y-14628627D02*
X11068396Y-14609579D01*
X11068396Y-14609579D02*
X11049348Y-14600055D01*
X11049348Y-14600055D02*
X11020777Y-14600055D01*
X11020777Y-14600055D02*
X11001729Y-14609579D01*
X11001729Y-14609579D02*
X10992206Y-14619103D01*
X11201729Y-14733389D02*
X11182682Y-14723865D01*
X11182682Y-14723865D02*
X11173158Y-14714341D01*
X11173158Y-14714341D02*
X11163634Y-14695293D01*
X11163634Y-14695293D02*
X11163634Y-14638151D01*
X11163634Y-14638151D02*
X11173158Y-14619103D01*
X11173158Y-14619103D02*
X11182682Y-14609579D01*
X11182682Y-14609579D02*
X11201729Y-14600055D01*
X11201729Y-14600055D02*
X11230301Y-14600055D01*
X11230301Y-14600055D02*
X11249348Y-14609579D01*
X11249348Y-14609579D02*
X11258872Y-14619103D01*
X11258872Y-14619103D02*
X11268396Y-14638151D01*
X11268396Y-14638151D02*
X11268396Y-14695293D01*
X11268396Y-14695293D02*
X11258872Y-14714341D01*
X11258872Y-14714341D02*
X11249348Y-14723865D01*
X11249348Y-14723865D02*
X11230301Y-14733389D01*
X11230301Y-14733389D02*
X11201729Y-14733389D01*
X11382682Y-14733389D02*
X11363634Y-14723865D01*
X11363634Y-14723865D02*
X11354110Y-14704817D01*
X11354110Y-14704817D02*
X11354110Y-14533389D01*
X11535063Y-14723865D02*
X11516015Y-14733389D01*
X11516015Y-14733389D02*
X11477920Y-14733389D01*
X11477920Y-14733389D02*
X11458872Y-14723865D01*
X11458872Y-14723865D02*
X11449348Y-14704817D01*
X11449348Y-14704817D02*
X11449348Y-14628627D01*
X11449348Y-14628627D02*
X11458872Y-14609579D01*
X11458872Y-14609579D02*
X11477920Y-14600055D01*
X11477920Y-14600055D02*
X11516015Y-14600055D01*
X11516015Y-14600055D02*
X11535063Y-14609579D01*
X11535063Y-14609579D02*
X11544586Y-14628627D01*
X11544586Y-14628627D02*
X11544586Y-14647674D01*
X11544586Y-14647674D02*
X11449348Y-14666722D01*
X11620777Y-14723865D02*
X11639825Y-14733389D01*
X11639825Y-14733389D02*
X11677920Y-14733389D01*
X11677920Y-14733389D02*
X11696967Y-14723865D01*
X11696967Y-14723865D02*
X11706491Y-14704817D01*
X11706491Y-14704817D02*
X11706491Y-14695293D01*
X11706491Y-14695293D02*
X11696967Y-14676246D01*
X11696967Y-14676246D02*
X11677920Y-14666722D01*
X11677920Y-14666722D02*
X11649348Y-14666722D01*
X11649348Y-14666722D02*
X11630301Y-14657198D01*
X11630301Y-14657198D02*
X11620777Y-14638151D01*
X11620777Y-14638151D02*
X11620777Y-14628627D01*
X11620777Y-14628627D02*
X11630301Y-14609579D01*
X11630301Y-14609579D02*
X11649348Y-14600055D01*
X11649348Y-14600055D02*
X11677920Y-14600055D01*
X11677920Y-14600055D02*
X11696967Y-14609579D01*
X11773158Y-14809579D02*
X11782682Y-14800055D01*
X11782682Y-14800055D02*
X11801729Y-14771484D01*
X11801729Y-14771484D02*
X11811253Y-14752436D01*
X11811253Y-14752436D02*
X11820777Y-14723865D01*
X11820777Y-14723865D02*
X11830301Y-14676246D01*
X11830301Y-14676246D02*
X11830301Y-14638151D01*
X11830301Y-14638151D02*
X11820777Y-14590532D01*
X11820777Y-14590532D02*
X11811253Y-14561960D01*
X11811253Y-14561960D02*
X11801729Y-14542913D01*
X11801729Y-14542913D02*
X11782682Y-14514341D01*
X11782682Y-14514341D02*
X11773158Y-14504817D01*
D12*
X6998095Y-14905905D02*
G75*
G02*
X6921895Y-14905905I-38100J0D01*
G01*
X6921895Y-14905905D02*
G75*
G02*
X6998095Y-14905905I38100J0D01*
G01*
D11*
X7296967Y-14797389D02*
X7316015Y-14797389D01*
X7316015Y-14797389D02*
X7335062Y-14806913D01*
X7335062Y-14806913D02*
X7344586Y-14816436D01*
X7344586Y-14816436D02*
X7354110Y-14835484D01*
X7354110Y-14835484D02*
X7363634Y-14873579D01*
X7363634Y-14873579D02*
X7363634Y-14921198D01*
X7363634Y-14921198D02*
X7354110Y-14959293D01*
X7354110Y-14959293D02*
X7344586Y-14978341D01*
X7344586Y-14978341D02*
X7335062Y-14987865D01*
X7335062Y-14987865D02*
X7316015Y-14997389D01*
X7316015Y-14997389D02*
X7296967Y-14997389D01*
X7296967Y-14997389D02*
X7277919Y-14987865D01*
X7277919Y-14987865D02*
X7268396Y-14978341D01*
X7268396Y-14978341D02*
X7258872Y-14959293D01*
X7258872Y-14959293D02*
X7249348Y-14921198D01*
X7249348Y-14921198D02*
X7249348Y-14873579D01*
X7249348Y-14873579D02*
X7258872Y-14835484D01*
X7258872Y-14835484D02*
X7268396Y-14816436D01*
X7268396Y-14816436D02*
X7277919Y-14806913D01*
X7277919Y-14806913D02*
X7296967Y-14797389D01*
X7449348Y-14978341D02*
X7458872Y-14987865D01*
X7458872Y-14987865D02*
X7449348Y-14997389D01*
X7449348Y-14997389D02*
X7439824Y-14987865D01*
X7439824Y-14987865D02*
X7449348Y-14978341D01*
X7449348Y-14978341D02*
X7449348Y-14997389D01*
X7525538Y-14797389D02*
X7658872Y-14797389D01*
X7658872Y-14797389D02*
X7573157Y-14997389D01*
X7820777Y-14797389D02*
X7782681Y-14797389D01*
X7782681Y-14797389D02*
X7763634Y-14806913D01*
X7763634Y-14806913D02*
X7754110Y-14816436D01*
X7754110Y-14816436D02*
X7735062Y-14845008D01*
X7735062Y-14845008D02*
X7725538Y-14883103D01*
X7725538Y-14883103D02*
X7725538Y-14959293D01*
X7725538Y-14959293D02*
X7735062Y-14978341D01*
X7735062Y-14978341D02*
X7744586Y-14987865D01*
X7744586Y-14987865D02*
X7763634Y-14997389D01*
X7763634Y-14997389D02*
X7801729Y-14997389D01*
X7801729Y-14997389D02*
X7820777Y-14987865D01*
X7820777Y-14987865D02*
X7830300Y-14978341D01*
X7830300Y-14978341D02*
X7839824Y-14959293D01*
X7839824Y-14959293D02*
X7839824Y-14911674D01*
X7839824Y-14911674D02*
X7830300Y-14892627D01*
X7830300Y-14892627D02*
X7820777Y-14883103D01*
X7820777Y-14883103D02*
X7801729Y-14873579D01*
X7801729Y-14873579D02*
X7763634Y-14873579D01*
X7763634Y-14873579D02*
X7744586Y-14883103D01*
X7744586Y-14883103D02*
X7735062Y-14892627D01*
X7735062Y-14892627D02*
X7725538Y-14911674D01*
X7916015Y-14816436D02*
X7925538Y-14806913D01*
X7925538Y-14806913D02*
X7944586Y-14797389D01*
X7944586Y-14797389D02*
X7992205Y-14797389D01*
X7992205Y-14797389D02*
X8011253Y-14806913D01*
X8011253Y-14806913D02*
X8020777Y-14816436D01*
X8020777Y-14816436D02*
X8030300Y-14835484D01*
X8030300Y-14835484D02*
X8030300Y-14854532D01*
X8030300Y-14854532D02*
X8020777Y-14883103D01*
X8020777Y-14883103D02*
X7906491Y-14997389D01*
X7906491Y-14997389D02*
X8030300Y-14997389D01*
X8116015Y-14997389D02*
X8116015Y-14864055D01*
X8116015Y-14883103D02*
X8125538Y-14873579D01*
X8125538Y-14873579D02*
X8144586Y-14864055D01*
X8144586Y-14864055D02*
X8173158Y-14864055D01*
X8173158Y-14864055D02*
X8192205Y-14873579D01*
X8192205Y-14873579D02*
X8201729Y-14892627D01*
X8201729Y-14892627D02*
X8201729Y-14997389D01*
X8201729Y-14892627D02*
X8211253Y-14873579D01*
X8211253Y-14873579D02*
X8230300Y-14864055D01*
X8230300Y-14864055D02*
X8258872Y-14864055D01*
X8258872Y-14864055D02*
X8277919Y-14873579D01*
X8277919Y-14873579D02*
X8287443Y-14892627D01*
X8287443Y-14892627D02*
X8287443Y-14997389D01*
X8382681Y-14997389D02*
X8382681Y-14864055D01*
X8382681Y-14883103D02*
X8392205Y-14873579D01*
X8392205Y-14873579D02*
X8411253Y-14864055D01*
X8411253Y-14864055D02*
X8439824Y-14864055D01*
X8439824Y-14864055D02*
X8458872Y-14873579D01*
X8458872Y-14873579D02*
X8468396Y-14892627D01*
X8468396Y-14892627D02*
X8468396Y-14997389D01*
X8468396Y-14892627D02*
X8477920Y-14873579D01*
X8477920Y-14873579D02*
X8496967Y-14864055D01*
X8496967Y-14864055D02*
X8525539Y-14864055D01*
X8525539Y-14864055D02*
X8544586Y-14873579D01*
X8544586Y-14873579D02*
X8554110Y-14892627D01*
X8554110Y-14892627D02*
X8554110Y-14997389D01*
X8944586Y-14787865D02*
X8773158Y-15045008D01*
X9201729Y-14797389D02*
X9220777Y-14797389D01*
X9220777Y-14797389D02*
X9239824Y-14806913D01*
X9239824Y-14806913D02*
X9249348Y-14816436D01*
X9249348Y-14816436D02*
X9258872Y-14835484D01*
X9258872Y-14835484D02*
X9268396Y-14873579D01*
X9268396Y-14873579D02*
X9268396Y-14921198D01*
X9268396Y-14921198D02*
X9258872Y-14959293D01*
X9258872Y-14959293D02*
X9249348Y-14978341D01*
X9249348Y-14978341D02*
X9239824Y-14987865D01*
X9239824Y-14987865D02*
X9220777Y-14997389D01*
X9220777Y-14997389D02*
X9201729Y-14997389D01*
X9201729Y-14997389D02*
X9182682Y-14987865D01*
X9182682Y-14987865D02*
X9173158Y-14978341D01*
X9173158Y-14978341D02*
X9163634Y-14959293D01*
X9163634Y-14959293D02*
X9154110Y-14921198D01*
X9154110Y-14921198D02*
X9154110Y-14873579D01*
X9154110Y-14873579D02*
X9163634Y-14835484D01*
X9163634Y-14835484D02*
X9173158Y-14816436D01*
X9173158Y-14816436D02*
X9182682Y-14806913D01*
X9182682Y-14806913D02*
X9201729Y-14797389D01*
X9354110Y-14978341D02*
X9363634Y-14987865D01*
X9363634Y-14987865D02*
X9354110Y-14997389D01*
X9354110Y-14997389D02*
X9344586Y-14987865D01*
X9344586Y-14987865D02*
X9354110Y-14978341D01*
X9354110Y-14978341D02*
X9354110Y-14997389D01*
X9487443Y-14797389D02*
X9506491Y-14797389D01*
X9506491Y-14797389D02*
X9525539Y-14806913D01*
X9525539Y-14806913D02*
X9535063Y-14816436D01*
X9535063Y-14816436D02*
X9544586Y-14835484D01*
X9544586Y-14835484D02*
X9554110Y-14873579D01*
X9554110Y-14873579D02*
X9554110Y-14921198D01*
X9554110Y-14921198D02*
X9544586Y-14959293D01*
X9544586Y-14959293D02*
X9535063Y-14978341D01*
X9535063Y-14978341D02*
X9525539Y-14987865D01*
X9525539Y-14987865D02*
X9506491Y-14997389D01*
X9506491Y-14997389D02*
X9487443Y-14997389D01*
X9487443Y-14997389D02*
X9468396Y-14987865D01*
X9468396Y-14987865D02*
X9458872Y-14978341D01*
X9458872Y-14978341D02*
X9449348Y-14959293D01*
X9449348Y-14959293D02*
X9439824Y-14921198D01*
X9439824Y-14921198D02*
X9439824Y-14873579D01*
X9439824Y-14873579D02*
X9449348Y-14835484D01*
X9449348Y-14835484D02*
X9458872Y-14816436D01*
X9458872Y-14816436D02*
X9468396Y-14806913D01*
X9468396Y-14806913D02*
X9487443Y-14797389D01*
X9620777Y-14797389D02*
X9744586Y-14797389D01*
X9744586Y-14797389D02*
X9677920Y-14873579D01*
X9677920Y-14873579D02*
X9706491Y-14873579D01*
X9706491Y-14873579D02*
X9725539Y-14883103D01*
X9725539Y-14883103D02*
X9735063Y-14892627D01*
X9735063Y-14892627D02*
X9744586Y-14911674D01*
X9744586Y-14911674D02*
X9744586Y-14959293D01*
X9744586Y-14959293D02*
X9735063Y-14978341D01*
X9735063Y-14978341D02*
X9725539Y-14987865D01*
X9725539Y-14987865D02*
X9706491Y-14997389D01*
X9706491Y-14997389D02*
X9649348Y-14997389D01*
X9649348Y-14997389D02*
X9630301Y-14987865D01*
X9630301Y-14987865D02*
X9620777Y-14978341D01*
X9868396Y-14797389D02*
X9887444Y-14797389D01*
X9887444Y-14797389D02*
X9906491Y-14806913D01*
X9906491Y-14806913D02*
X9916015Y-14816436D01*
X9916015Y-14816436D02*
X9925539Y-14835484D01*
X9925539Y-14835484D02*
X9935063Y-14873579D01*
X9935063Y-14873579D02*
X9935063Y-14921198D01*
X9935063Y-14921198D02*
X9925539Y-14959293D01*
X9925539Y-14959293D02*
X9916015Y-14978341D01*
X9916015Y-14978341D02*
X9906491Y-14987865D01*
X9906491Y-14987865D02*
X9887444Y-14997389D01*
X9887444Y-14997389D02*
X9868396Y-14997389D01*
X9868396Y-14997389D02*
X9849348Y-14987865D01*
X9849348Y-14987865D02*
X9839824Y-14978341D01*
X9839824Y-14978341D02*
X9830301Y-14959293D01*
X9830301Y-14959293D02*
X9820777Y-14921198D01*
X9820777Y-14921198D02*
X9820777Y-14873579D01*
X9820777Y-14873579D02*
X9830301Y-14835484D01*
X9830301Y-14835484D02*
X9839824Y-14816436D01*
X9839824Y-14816436D02*
X9849348Y-14806913D01*
X9849348Y-14806913D02*
X9868396Y-14797389D01*
X10058872Y-14797389D02*
X10077920Y-14797389D01*
X10077920Y-14797389D02*
X10096967Y-14806913D01*
X10096967Y-14806913D02*
X10106491Y-14816436D01*
X10106491Y-14816436D02*
X10116015Y-14835484D01*
X10116015Y-14835484D02*
X10125539Y-14873579D01*
X10125539Y-14873579D02*
X10125539Y-14921198D01*
X10125539Y-14921198D02*
X10116015Y-14959293D01*
X10116015Y-14959293D02*
X10106491Y-14978341D01*
X10106491Y-14978341D02*
X10096967Y-14987865D01*
X10096967Y-14987865D02*
X10077920Y-14997389D01*
X10077920Y-14997389D02*
X10058872Y-14997389D01*
X10058872Y-14997389D02*
X10039824Y-14987865D01*
X10039824Y-14987865D02*
X10030301Y-14978341D01*
X10030301Y-14978341D02*
X10020777Y-14959293D01*
X10020777Y-14959293D02*
X10011253Y-14921198D01*
X10011253Y-14921198D02*
X10011253Y-14873579D01*
X10011253Y-14873579D02*
X10020777Y-14835484D01*
X10020777Y-14835484D02*
X10030301Y-14816436D01*
X10030301Y-14816436D02*
X10039824Y-14806913D01*
X10039824Y-14806913D02*
X10058872Y-14797389D01*
X10201729Y-14797389D02*
X10201729Y-14835484D01*
X10277920Y-14797389D02*
X10277920Y-14835484D01*
X10573158Y-15073579D02*
X10563634Y-15064055D01*
X10563634Y-15064055D02*
X10544586Y-15035484D01*
X10544586Y-15035484D02*
X10535063Y-15016436D01*
X10535063Y-15016436D02*
X10525539Y-14987865D01*
X10525539Y-14987865D02*
X10516015Y-14940246D01*
X10516015Y-14940246D02*
X10516015Y-14902151D01*
X10516015Y-14902151D02*
X10525539Y-14854532D01*
X10525539Y-14854532D02*
X10535063Y-14825960D01*
X10535063Y-14825960D02*
X10544586Y-14806913D01*
X10544586Y-14806913D02*
X10563634Y-14778341D01*
X10563634Y-14778341D02*
X10573158Y-14768817D01*
X10658872Y-14997389D02*
X10696967Y-14997389D01*
X10696967Y-14997389D02*
X10716015Y-14987865D01*
X10716015Y-14987865D02*
X10725539Y-14978341D01*
X10725539Y-14978341D02*
X10744586Y-14949770D01*
X10744586Y-14949770D02*
X10754110Y-14911674D01*
X10754110Y-14911674D02*
X10754110Y-14835484D01*
X10754110Y-14835484D02*
X10744586Y-14816436D01*
X10744586Y-14816436D02*
X10735063Y-14806913D01*
X10735063Y-14806913D02*
X10716015Y-14797389D01*
X10716015Y-14797389D02*
X10677920Y-14797389D01*
X10677920Y-14797389D02*
X10658872Y-14806913D01*
X10658872Y-14806913D02*
X10649348Y-14816436D01*
X10649348Y-14816436D02*
X10639825Y-14835484D01*
X10639825Y-14835484D02*
X10639825Y-14883103D01*
X10639825Y-14883103D02*
X10649348Y-14902151D01*
X10649348Y-14902151D02*
X10658872Y-14911674D01*
X10658872Y-14911674D02*
X10677920Y-14921198D01*
X10677920Y-14921198D02*
X10716015Y-14921198D01*
X10716015Y-14921198D02*
X10735063Y-14911674D01*
X10735063Y-14911674D02*
X10744586Y-14902151D01*
X10744586Y-14902151D02*
X10754110Y-14883103D01*
X10992206Y-14997389D02*
X10992206Y-14797389D01*
X11077920Y-14997389D02*
X11077920Y-14892627D01*
X11077920Y-14892627D02*
X11068396Y-14873579D01*
X11068396Y-14873579D02*
X11049348Y-14864055D01*
X11049348Y-14864055D02*
X11020777Y-14864055D01*
X11020777Y-14864055D02*
X11001729Y-14873579D01*
X11001729Y-14873579D02*
X10992206Y-14883103D01*
X11201729Y-14997389D02*
X11182682Y-14987865D01*
X11182682Y-14987865D02*
X11173158Y-14978341D01*
X11173158Y-14978341D02*
X11163634Y-14959293D01*
X11163634Y-14959293D02*
X11163634Y-14902151D01*
X11163634Y-14902151D02*
X11173158Y-14883103D01*
X11173158Y-14883103D02*
X11182682Y-14873579D01*
X11182682Y-14873579D02*
X11201729Y-14864055D01*
X11201729Y-14864055D02*
X11230301Y-14864055D01*
X11230301Y-14864055D02*
X11249348Y-14873579D01*
X11249348Y-14873579D02*
X11258872Y-14883103D01*
X11258872Y-14883103D02*
X11268396Y-14902151D01*
X11268396Y-14902151D02*
X11268396Y-14959293D01*
X11268396Y-14959293D02*
X11258872Y-14978341D01*
X11258872Y-14978341D02*
X11249348Y-14987865D01*
X11249348Y-14987865D02*
X11230301Y-14997389D01*
X11230301Y-14997389D02*
X11201729Y-14997389D01*
X11382682Y-14997389D02*
X11363634Y-14987865D01*
X11363634Y-14987865D02*
X11354110Y-14968817D01*
X11354110Y-14968817D02*
X11354110Y-14797389D01*
X11535063Y-14987865D02*
X11516015Y-14997389D01*
X11516015Y-14997389D02*
X11477920Y-14997389D01*
X11477920Y-14997389D02*
X11458872Y-14987865D01*
X11458872Y-14987865D02*
X11449348Y-14968817D01*
X11449348Y-14968817D02*
X11449348Y-14892627D01*
X11449348Y-14892627D02*
X11458872Y-14873579D01*
X11458872Y-14873579D02*
X11477920Y-14864055D01*
X11477920Y-14864055D02*
X11516015Y-14864055D01*
X11516015Y-14864055D02*
X11535063Y-14873579D01*
X11535063Y-14873579D02*
X11544586Y-14892627D01*
X11544586Y-14892627D02*
X11544586Y-14911674D01*
X11544586Y-14911674D02*
X11449348Y-14930722D01*
X11620777Y-14987865D02*
X11639825Y-14997389D01*
X11639825Y-14997389D02*
X11677920Y-14997389D01*
X11677920Y-14997389D02*
X11696967Y-14987865D01*
X11696967Y-14987865D02*
X11706491Y-14968817D01*
X11706491Y-14968817D02*
X11706491Y-14959293D01*
X11706491Y-14959293D02*
X11696967Y-14940246D01*
X11696967Y-14940246D02*
X11677920Y-14930722D01*
X11677920Y-14930722D02*
X11649348Y-14930722D01*
X11649348Y-14930722D02*
X11630301Y-14921198D01*
X11630301Y-14921198D02*
X11620777Y-14902151D01*
X11620777Y-14902151D02*
X11620777Y-14892627D01*
X11620777Y-14892627D02*
X11630301Y-14873579D01*
X11630301Y-14873579D02*
X11649348Y-14864055D01*
X11649348Y-14864055D02*
X11677920Y-14864055D01*
X11677920Y-14864055D02*
X11696967Y-14873579D01*
X11773158Y-15073579D02*
X11782682Y-15064055D01*
X11782682Y-15064055D02*
X11801729Y-15035484D01*
X11801729Y-15035484D02*
X11811253Y-15016436D01*
X11811253Y-15016436D02*
X11820777Y-14987865D01*
X11820777Y-14987865D02*
X11830301Y-14940246D01*
X11830301Y-14940246D02*
X11830301Y-14902151D01*
X11830301Y-14902151D02*
X11820777Y-14854532D01*
X11820777Y-14854532D02*
X11811253Y-14825960D01*
X11811253Y-14825960D02*
X11801729Y-14806913D01*
X11801729Y-14806913D02*
X11782682Y-14778341D01*
X11782682Y-14778341D02*
X11773158Y-14768817D01*
D12*
X6958095Y-15129905D02*
X6958095Y-15209905D01*
X6918095Y-15169905D02*
X6998095Y-15169905D01*
D11*
X7296967Y-15061389D02*
X7316015Y-15061389D01*
X7316015Y-15061389D02*
X7335062Y-15070913D01*
X7335062Y-15070913D02*
X7344586Y-15080436D01*
X7344586Y-15080436D02*
X7354110Y-15099484D01*
X7354110Y-15099484D02*
X7363634Y-15137579D01*
X7363634Y-15137579D02*
X7363634Y-15185198D01*
X7363634Y-15185198D02*
X7354110Y-15223293D01*
X7354110Y-15223293D02*
X7344586Y-15242341D01*
X7344586Y-15242341D02*
X7335062Y-15251865D01*
X7335062Y-15251865D02*
X7316015Y-15261389D01*
X7316015Y-15261389D02*
X7296967Y-15261389D01*
X7296967Y-15261389D02*
X7277919Y-15251865D01*
X7277919Y-15251865D02*
X7268396Y-15242341D01*
X7268396Y-15242341D02*
X7258872Y-15223293D01*
X7258872Y-15223293D02*
X7249348Y-15185198D01*
X7249348Y-15185198D02*
X7249348Y-15137579D01*
X7249348Y-15137579D02*
X7258872Y-15099484D01*
X7258872Y-15099484D02*
X7268396Y-15080436D01*
X7268396Y-15080436D02*
X7277919Y-15070913D01*
X7277919Y-15070913D02*
X7296967Y-15061389D01*
X7449348Y-15242341D02*
X7458872Y-15251865D01*
X7458872Y-15251865D02*
X7449348Y-15261389D01*
X7449348Y-15261389D02*
X7439824Y-15251865D01*
X7439824Y-15251865D02*
X7449348Y-15242341D01*
X7449348Y-15242341D02*
X7449348Y-15261389D01*
X7573157Y-15147103D02*
X7554110Y-15137579D01*
X7554110Y-15137579D02*
X7544586Y-15128055D01*
X7544586Y-15128055D02*
X7535062Y-15109008D01*
X7535062Y-15109008D02*
X7535062Y-15099484D01*
X7535062Y-15099484D02*
X7544586Y-15080436D01*
X7544586Y-15080436D02*
X7554110Y-15070913D01*
X7554110Y-15070913D02*
X7573157Y-15061389D01*
X7573157Y-15061389D02*
X7611253Y-15061389D01*
X7611253Y-15061389D02*
X7630300Y-15070913D01*
X7630300Y-15070913D02*
X7639824Y-15080436D01*
X7639824Y-15080436D02*
X7649348Y-15099484D01*
X7649348Y-15099484D02*
X7649348Y-15109008D01*
X7649348Y-15109008D02*
X7639824Y-15128055D01*
X7639824Y-15128055D02*
X7630300Y-15137579D01*
X7630300Y-15137579D02*
X7611253Y-15147103D01*
X7611253Y-15147103D02*
X7573157Y-15147103D01*
X7573157Y-15147103D02*
X7554110Y-15156627D01*
X7554110Y-15156627D02*
X7544586Y-15166151D01*
X7544586Y-15166151D02*
X7535062Y-15185198D01*
X7535062Y-15185198D02*
X7535062Y-15223293D01*
X7535062Y-15223293D02*
X7544586Y-15242341D01*
X7544586Y-15242341D02*
X7554110Y-15251865D01*
X7554110Y-15251865D02*
X7573157Y-15261389D01*
X7573157Y-15261389D02*
X7611253Y-15261389D01*
X7611253Y-15261389D02*
X7630300Y-15251865D01*
X7630300Y-15251865D02*
X7639824Y-15242341D01*
X7639824Y-15242341D02*
X7649348Y-15223293D01*
X7649348Y-15223293D02*
X7649348Y-15185198D01*
X7649348Y-15185198D02*
X7639824Y-15166151D01*
X7639824Y-15166151D02*
X7630300Y-15156627D01*
X7630300Y-15156627D02*
X7611253Y-15147103D01*
X7773157Y-15061389D02*
X7792205Y-15061389D01*
X7792205Y-15061389D02*
X7811253Y-15070913D01*
X7811253Y-15070913D02*
X7820777Y-15080436D01*
X7820777Y-15080436D02*
X7830300Y-15099484D01*
X7830300Y-15099484D02*
X7839824Y-15137579D01*
X7839824Y-15137579D02*
X7839824Y-15185198D01*
X7839824Y-15185198D02*
X7830300Y-15223293D01*
X7830300Y-15223293D02*
X7820777Y-15242341D01*
X7820777Y-15242341D02*
X7811253Y-15251865D01*
X7811253Y-15251865D02*
X7792205Y-15261389D01*
X7792205Y-15261389D02*
X7773157Y-15261389D01*
X7773157Y-15261389D02*
X7754110Y-15251865D01*
X7754110Y-15251865D02*
X7744586Y-15242341D01*
X7744586Y-15242341D02*
X7735062Y-15223293D01*
X7735062Y-15223293D02*
X7725538Y-15185198D01*
X7725538Y-15185198D02*
X7725538Y-15137579D01*
X7725538Y-15137579D02*
X7735062Y-15099484D01*
X7735062Y-15099484D02*
X7744586Y-15080436D01*
X7744586Y-15080436D02*
X7754110Y-15070913D01*
X7754110Y-15070913D02*
X7773157Y-15061389D01*
X7963634Y-15061389D02*
X7982681Y-15061389D01*
X7982681Y-15061389D02*
X8001729Y-15070913D01*
X8001729Y-15070913D02*
X8011253Y-15080436D01*
X8011253Y-15080436D02*
X8020777Y-15099484D01*
X8020777Y-15099484D02*
X8030300Y-15137579D01*
X8030300Y-15137579D02*
X8030300Y-15185198D01*
X8030300Y-15185198D02*
X8020777Y-15223293D01*
X8020777Y-15223293D02*
X8011253Y-15242341D01*
X8011253Y-15242341D02*
X8001729Y-15251865D01*
X8001729Y-15251865D02*
X7982681Y-15261389D01*
X7982681Y-15261389D02*
X7963634Y-15261389D01*
X7963634Y-15261389D02*
X7944586Y-15251865D01*
X7944586Y-15251865D02*
X7935062Y-15242341D01*
X7935062Y-15242341D02*
X7925538Y-15223293D01*
X7925538Y-15223293D02*
X7916015Y-15185198D01*
X7916015Y-15185198D02*
X7916015Y-15137579D01*
X7916015Y-15137579D02*
X7925538Y-15099484D01*
X7925538Y-15099484D02*
X7935062Y-15080436D01*
X7935062Y-15080436D02*
X7944586Y-15070913D01*
X7944586Y-15070913D02*
X7963634Y-15061389D01*
X8116015Y-15261389D02*
X8116015Y-15128055D01*
X8116015Y-15147103D02*
X8125538Y-15137579D01*
X8125538Y-15137579D02*
X8144586Y-15128055D01*
X8144586Y-15128055D02*
X8173158Y-15128055D01*
X8173158Y-15128055D02*
X8192205Y-15137579D01*
X8192205Y-15137579D02*
X8201729Y-15156627D01*
X8201729Y-15156627D02*
X8201729Y-15261389D01*
X8201729Y-15156627D02*
X8211253Y-15137579D01*
X8211253Y-15137579D02*
X8230300Y-15128055D01*
X8230300Y-15128055D02*
X8258872Y-15128055D01*
X8258872Y-15128055D02*
X8277919Y-15137579D01*
X8277919Y-15137579D02*
X8287443Y-15156627D01*
X8287443Y-15156627D02*
X8287443Y-15261389D01*
X8382681Y-15261389D02*
X8382681Y-15128055D01*
X8382681Y-15147103D02*
X8392205Y-15137579D01*
X8392205Y-15137579D02*
X8411253Y-15128055D01*
X8411253Y-15128055D02*
X8439824Y-15128055D01*
X8439824Y-15128055D02*
X8458872Y-15137579D01*
X8458872Y-15137579D02*
X8468396Y-15156627D01*
X8468396Y-15156627D02*
X8468396Y-15261389D01*
X8468396Y-15156627D02*
X8477920Y-15137579D01*
X8477920Y-15137579D02*
X8496967Y-15128055D01*
X8496967Y-15128055D02*
X8525539Y-15128055D01*
X8525539Y-15128055D02*
X8544586Y-15137579D01*
X8544586Y-15137579D02*
X8554110Y-15156627D01*
X8554110Y-15156627D02*
X8554110Y-15261389D01*
X8944586Y-15051865D02*
X8773158Y-15309008D01*
X9201729Y-15061389D02*
X9220777Y-15061389D01*
X9220777Y-15061389D02*
X9239824Y-15070913D01*
X9239824Y-15070913D02*
X9249348Y-15080436D01*
X9249348Y-15080436D02*
X9258872Y-15099484D01*
X9258872Y-15099484D02*
X9268396Y-15137579D01*
X9268396Y-15137579D02*
X9268396Y-15185198D01*
X9268396Y-15185198D02*
X9258872Y-15223293D01*
X9258872Y-15223293D02*
X9249348Y-15242341D01*
X9249348Y-15242341D02*
X9239824Y-15251865D01*
X9239824Y-15251865D02*
X9220777Y-15261389D01*
X9220777Y-15261389D02*
X9201729Y-15261389D01*
X9201729Y-15261389D02*
X9182682Y-15251865D01*
X9182682Y-15251865D02*
X9173158Y-15242341D01*
X9173158Y-15242341D02*
X9163634Y-15223293D01*
X9163634Y-15223293D02*
X9154110Y-15185198D01*
X9154110Y-15185198D02*
X9154110Y-15137579D01*
X9154110Y-15137579D02*
X9163634Y-15099484D01*
X9163634Y-15099484D02*
X9173158Y-15080436D01*
X9173158Y-15080436D02*
X9182682Y-15070913D01*
X9182682Y-15070913D02*
X9201729Y-15061389D01*
X9354110Y-15242341D02*
X9363634Y-15251865D01*
X9363634Y-15251865D02*
X9354110Y-15261389D01*
X9354110Y-15261389D02*
X9344586Y-15251865D01*
X9344586Y-15251865D02*
X9354110Y-15242341D01*
X9354110Y-15242341D02*
X9354110Y-15261389D01*
X9487443Y-15061389D02*
X9506491Y-15061389D01*
X9506491Y-15061389D02*
X9525539Y-15070913D01*
X9525539Y-15070913D02*
X9535063Y-15080436D01*
X9535063Y-15080436D02*
X9544586Y-15099484D01*
X9544586Y-15099484D02*
X9554110Y-15137579D01*
X9554110Y-15137579D02*
X9554110Y-15185198D01*
X9554110Y-15185198D02*
X9544586Y-15223293D01*
X9544586Y-15223293D02*
X9535063Y-15242341D01*
X9535063Y-15242341D02*
X9525539Y-15251865D01*
X9525539Y-15251865D02*
X9506491Y-15261389D01*
X9506491Y-15261389D02*
X9487443Y-15261389D01*
X9487443Y-15261389D02*
X9468396Y-15251865D01*
X9468396Y-15251865D02*
X9458872Y-15242341D01*
X9458872Y-15242341D02*
X9449348Y-15223293D01*
X9449348Y-15223293D02*
X9439824Y-15185198D01*
X9439824Y-15185198D02*
X9439824Y-15137579D01*
X9439824Y-15137579D02*
X9449348Y-15099484D01*
X9449348Y-15099484D02*
X9458872Y-15080436D01*
X9458872Y-15080436D02*
X9468396Y-15070913D01*
X9468396Y-15070913D02*
X9487443Y-15061389D01*
X9620777Y-15061389D02*
X9744586Y-15061389D01*
X9744586Y-15061389D02*
X9677920Y-15137579D01*
X9677920Y-15137579D02*
X9706491Y-15137579D01*
X9706491Y-15137579D02*
X9725539Y-15147103D01*
X9725539Y-15147103D02*
X9735063Y-15156627D01*
X9735063Y-15156627D02*
X9744586Y-15175674D01*
X9744586Y-15175674D02*
X9744586Y-15223293D01*
X9744586Y-15223293D02*
X9735063Y-15242341D01*
X9735063Y-15242341D02*
X9725539Y-15251865D01*
X9725539Y-15251865D02*
X9706491Y-15261389D01*
X9706491Y-15261389D02*
X9649348Y-15261389D01*
X9649348Y-15261389D02*
X9630301Y-15251865D01*
X9630301Y-15251865D02*
X9620777Y-15242341D01*
X9935063Y-15261389D02*
X9820777Y-15261389D01*
X9877920Y-15261389D02*
X9877920Y-15061389D01*
X9877920Y-15061389D02*
X9858872Y-15089960D01*
X9858872Y-15089960D02*
X9839824Y-15109008D01*
X9839824Y-15109008D02*
X9820777Y-15118532D01*
X10116015Y-15061389D02*
X10020777Y-15061389D01*
X10020777Y-15061389D02*
X10011253Y-15156627D01*
X10011253Y-15156627D02*
X10020777Y-15147103D01*
X10020777Y-15147103D02*
X10039824Y-15137579D01*
X10039824Y-15137579D02*
X10087444Y-15137579D01*
X10087444Y-15137579D02*
X10106491Y-15147103D01*
X10106491Y-15147103D02*
X10116015Y-15156627D01*
X10116015Y-15156627D02*
X10125539Y-15175674D01*
X10125539Y-15175674D02*
X10125539Y-15223293D01*
X10125539Y-15223293D02*
X10116015Y-15242341D01*
X10116015Y-15242341D02*
X10106491Y-15251865D01*
X10106491Y-15251865D02*
X10087444Y-15261389D01*
X10087444Y-15261389D02*
X10039824Y-15261389D01*
X10039824Y-15261389D02*
X10020777Y-15251865D01*
X10020777Y-15251865D02*
X10011253Y-15242341D01*
X10201729Y-15061389D02*
X10201729Y-15099484D01*
X10277920Y-15061389D02*
X10277920Y-15099484D01*
X10573158Y-15337579D02*
X10563634Y-15328055D01*
X10563634Y-15328055D02*
X10544586Y-15299484D01*
X10544586Y-15299484D02*
X10535063Y-15280436D01*
X10535063Y-15280436D02*
X10525539Y-15251865D01*
X10525539Y-15251865D02*
X10516015Y-15204246D01*
X10516015Y-15204246D02*
X10516015Y-15166151D01*
X10516015Y-15166151D02*
X10525539Y-15118532D01*
X10525539Y-15118532D02*
X10535063Y-15089960D01*
X10535063Y-15089960D02*
X10544586Y-15070913D01*
X10544586Y-15070913D02*
X10563634Y-15042341D01*
X10563634Y-15042341D02*
X10573158Y-15032817D01*
X10754110Y-15261389D02*
X10639825Y-15261389D01*
X10696967Y-15261389D02*
X10696967Y-15061389D01*
X10696967Y-15061389D02*
X10677920Y-15089960D01*
X10677920Y-15089960D02*
X10658872Y-15109008D01*
X10658872Y-15109008D02*
X10639825Y-15118532D01*
X10925539Y-15128055D02*
X10925539Y-15261389D01*
X10877920Y-15051865D02*
X10830301Y-15194722D01*
X10830301Y-15194722D02*
X10954110Y-15194722D01*
X11182682Y-15261389D02*
X11182682Y-15061389D01*
X11268396Y-15261389D02*
X11268396Y-15156627D01*
X11268396Y-15156627D02*
X11258872Y-15137579D01*
X11258872Y-15137579D02*
X11239825Y-15128055D01*
X11239825Y-15128055D02*
X11211253Y-15128055D01*
X11211253Y-15128055D02*
X11192205Y-15137579D01*
X11192205Y-15137579D02*
X11182682Y-15147103D01*
X11392205Y-15261389D02*
X11373158Y-15251865D01*
X11373158Y-15251865D02*
X11363634Y-15242341D01*
X11363634Y-15242341D02*
X11354110Y-15223293D01*
X11354110Y-15223293D02*
X11354110Y-15166151D01*
X11354110Y-15166151D02*
X11363634Y-15147103D01*
X11363634Y-15147103D02*
X11373158Y-15137579D01*
X11373158Y-15137579D02*
X11392205Y-15128055D01*
X11392205Y-15128055D02*
X11420777Y-15128055D01*
X11420777Y-15128055D02*
X11439825Y-15137579D01*
X11439825Y-15137579D02*
X11449348Y-15147103D01*
X11449348Y-15147103D02*
X11458872Y-15166151D01*
X11458872Y-15166151D02*
X11458872Y-15223293D01*
X11458872Y-15223293D02*
X11449348Y-15242341D01*
X11449348Y-15242341D02*
X11439825Y-15251865D01*
X11439825Y-15251865D02*
X11420777Y-15261389D01*
X11420777Y-15261389D02*
X11392205Y-15261389D01*
X11573158Y-15261389D02*
X11554110Y-15251865D01*
X11554110Y-15251865D02*
X11544586Y-15232817D01*
X11544586Y-15232817D02*
X11544586Y-15061389D01*
X11725539Y-15251865D02*
X11706491Y-15261389D01*
X11706491Y-15261389D02*
X11668396Y-15261389D01*
X11668396Y-15261389D02*
X11649348Y-15251865D01*
X11649348Y-15251865D02*
X11639825Y-15232817D01*
X11639825Y-15232817D02*
X11639825Y-15156627D01*
X11639825Y-15156627D02*
X11649348Y-15137579D01*
X11649348Y-15137579D02*
X11668396Y-15128055D01*
X11668396Y-15128055D02*
X11706491Y-15128055D01*
X11706491Y-15128055D02*
X11725539Y-15137579D01*
X11725539Y-15137579D02*
X11735063Y-15156627D01*
X11735063Y-15156627D02*
X11735063Y-15175674D01*
X11735063Y-15175674D02*
X11639825Y-15194722D01*
X11811253Y-15251865D02*
X11830301Y-15261389D01*
X11830301Y-15261389D02*
X11868396Y-15261389D01*
X11868396Y-15261389D02*
X11887444Y-15251865D01*
X11887444Y-15251865D02*
X11896967Y-15232817D01*
X11896967Y-15232817D02*
X11896967Y-15223293D01*
X11896967Y-15223293D02*
X11887444Y-15204246D01*
X11887444Y-15204246D02*
X11868396Y-15194722D01*
X11868396Y-15194722D02*
X11839825Y-15194722D01*
X11839825Y-15194722D02*
X11820777Y-15185198D01*
X11820777Y-15185198D02*
X11811253Y-15166151D01*
X11811253Y-15166151D02*
X11811253Y-15156627D01*
X11811253Y-15156627D02*
X11820777Y-15137579D01*
X11820777Y-15137579D02*
X11839825Y-15128055D01*
X11839825Y-15128055D02*
X11868396Y-15128055D01*
X11868396Y-15128055D02*
X11887444Y-15137579D01*
X11963634Y-15337579D02*
X11973158Y-15328055D01*
X11973158Y-15328055D02*
X11992206Y-15299484D01*
X11992206Y-15299484D02*
X12001729Y-15280436D01*
X12001729Y-15280436D02*
X12011253Y-15251865D01*
X12011253Y-15251865D02*
X12020777Y-15204246D01*
X12020777Y-15204246D02*
X12020777Y-15166151D01*
X12020777Y-15166151D02*
X12011253Y-15118532D01*
X12011253Y-15118532D02*
X12001729Y-15089960D01*
X12001729Y-15089960D02*
X11992206Y-15070913D01*
X11992206Y-15070913D02*
X11973158Y-15042341D01*
X11973158Y-15042341D02*
X11963634Y-15032817D01*
D12*
X6984915Y-15465725D02*
X6984915Y-15402085D01*
X6921275Y-15402085D01*
X6921275Y-15465725D01*
X6984915Y-15465725D01*
D11*
X7296967Y-15325389D02*
X7316015Y-15325389D01*
X7316015Y-15325389D02*
X7335062Y-15334913D01*
X7335062Y-15334913D02*
X7344586Y-15344436D01*
X7344586Y-15344436D02*
X7354110Y-15363484D01*
X7354110Y-15363484D02*
X7363634Y-15401579D01*
X7363634Y-15401579D02*
X7363634Y-15449198D01*
X7363634Y-15449198D02*
X7354110Y-15487293D01*
X7354110Y-15487293D02*
X7344586Y-15506341D01*
X7344586Y-15506341D02*
X7335062Y-15515865D01*
X7335062Y-15515865D02*
X7316015Y-15525389D01*
X7316015Y-15525389D02*
X7296967Y-15525389D01*
X7296967Y-15525389D02*
X7277919Y-15515865D01*
X7277919Y-15515865D02*
X7268396Y-15506341D01*
X7268396Y-15506341D02*
X7258872Y-15487293D01*
X7258872Y-15487293D02*
X7249348Y-15449198D01*
X7249348Y-15449198D02*
X7249348Y-15401579D01*
X7249348Y-15401579D02*
X7258872Y-15363484D01*
X7258872Y-15363484D02*
X7268396Y-15344436D01*
X7268396Y-15344436D02*
X7277919Y-15334913D01*
X7277919Y-15334913D02*
X7296967Y-15325389D01*
X7449348Y-15506341D02*
X7458872Y-15515865D01*
X7458872Y-15515865D02*
X7449348Y-15525389D01*
X7449348Y-15525389D02*
X7439824Y-15515865D01*
X7439824Y-15515865D02*
X7449348Y-15506341D01*
X7449348Y-15506341D02*
X7449348Y-15525389D01*
X7554110Y-15525389D02*
X7592205Y-15525389D01*
X7592205Y-15525389D02*
X7611253Y-15515865D01*
X7611253Y-15515865D02*
X7620777Y-15506341D01*
X7620777Y-15506341D02*
X7639824Y-15477770D01*
X7639824Y-15477770D02*
X7649348Y-15439674D01*
X7649348Y-15439674D02*
X7649348Y-15363484D01*
X7649348Y-15363484D02*
X7639824Y-15344436D01*
X7639824Y-15344436D02*
X7630300Y-15334913D01*
X7630300Y-15334913D02*
X7611253Y-15325389D01*
X7611253Y-15325389D02*
X7573157Y-15325389D01*
X7573157Y-15325389D02*
X7554110Y-15334913D01*
X7554110Y-15334913D02*
X7544586Y-15344436D01*
X7544586Y-15344436D02*
X7535062Y-15363484D01*
X7535062Y-15363484D02*
X7535062Y-15411103D01*
X7535062Y-15411103D02*
X7544586Y-15430151D01*
X7544586Y-15430151D02*
X7554110Y-15439674D01*
X7554110Y-15439674D02*
X7573157Y-15449198D01*
X7573157Y-15449198D02*
X7611253Y-15449198D01*
X7611253Y-15449198D02*
X7630300Y-15439674D01*
X7630300Y-15439674D02*
X7639824Y-15430151D01*
X7639824Y-15430151D02*
X7649348Y-15411103D01*
X7773157Y-15325389D02*
X7792205Y-15325389D01*
X7792205Y-15325389D02*
X7811253Y-15334913D01*
X7811253Y-15334913D02*
X7820777Y-15344436D01*
X7820777Y-15344436D02*
X7830300Y-15363484D01*
X7830300Y-15363484D02*
X7839824Y-15401579D01*
X7839824Y-15401579D02*
X7839824Y-15449198D01*
X7839824Y-15449198D02*
X7830300Y-15487293D01*
X7830300Y-15487293D02*
X7820777Y-15506341D01*
X7820777Y-15506341D02*
X7811253Y-15515865D01*
X7811253Y-15515865D02*
X7792205Y-15525389D01*
X7792205Y-15525389D02*
X7773157Y-15525389D01*
X7773157Y-15525389D02*
X7754110Y-15515865D01*
X7754110Y-15515865D02*
X7744586Y-15506341D01*
X7744586Y-15506341D02*
X7735062Y-15487293D01*
X7735062Y-15487293D02*
X7725538Y-15449198D01*
X7725538Y-15449198D02*
X7725538Y-15401579D01*
X7725538Y-15401579D02*
X7735062Y-15363484D01*
X7735062Y-15363484D02*
X7744586Y-15344436D01*
X7744586Y-15344436D02*
X7754110Y-15334913D01*
X7754110Y-15334913D02*
X7773157Y-15325389D01*
X7963634Y-15325389D02*
X7982681Y-15325389D01*
X7982681Y-15325389D02*
X8001729Y-15334913D01*
X8001729Y-15334913D02*
X8011253Y-15344436D01*
X8011253Y-15344436D02*
X8020777Y-15363484D01*
X8020777Y-15363484D02*
X8030300Y-15401579D01*
X8030300Y-15401579D02*
X8030300Y-15449198D01*
X8030300Y-15449198D02*
X8020777Y-15487293D01*
X8020777Y-15487293D02*
X8011253Y-15506341D01*
X8011253Y-15506341D02*
X8001729Y-15515865D01*
X8001729Y-15515865D02*
X7982681Y-15525389D01*
X7982681Y-15525389D02*
X7963634Y-15525389D01*
X7963634Y-15525389D02*
X7944586Y-15515865D01*
X7944586Y-15515865D02*
X7935062Y-15506341D01*
X7935062Y-15506341D02*
X7925538Y-15487293D01*
X7925538Y-15487293D02*
X7916015Y-15449198D01*
X7916015Y-15449198D02*
X7916015Y-15401579D01*
X7916015Y-15401579D02*
X7925538Y-15363484D01*
X7925538Y-15363484D02*
X7935062Y-15344436D01*
X7935062Y-15344436D02*
X7944586Y-15334913D01*
X7944586Y-15334913D02*
X7963634Y-15325389D01*
X8116015Y-15525389D02*
X8116015Y-15392055D01*
X8116015Y-15411103D02*
X8125538Y-15401579D01*
X8125538Y-15401579D02*
X8144586Y-15392055D01*
X8144586Y-15392055D02*
X8173158Y-15392055D01*
X8173158Y-15392055D02*
X8192205Y-15401579D01*
X8192205Y-15401579D02*
X8201729Y-15420627D01*
X8201729Y-15420627D02*
X8201729Y-15525389D01*
X8201729Y-15420627D02*
X8211253Y-15401579D01*
X8211253Y-15401579D02*
X8230300Y-15392055D01*
X8230300Y-15392055D02*
X8258872Y-15392055D01*
X8258872Y-15392055D02*
X8277919Y-15401579D01*
X8277919Y-15401579D02*
X8287443Y-15420627D01*
X8287443Y-15420627D02*
X8287443Y-15525389D01*
X8382681Y-15525389D02*
X8382681Y-15392055D01*
X8382681Y-15411103D02*
X8392205Y-15401579D01*
X8392205Y-15401579D02*
X8411253Y-15392055D01*
X8411253Y-15392055D02*
X8439824Y-15392055D01*
X8439824Y-15392055D02*
X8458872Y-15401579D01*
X8458872Y-15401579D02*
X8468396Y-15420627D01*
X8468396Y-15420627D02*
X8468396Y-15525389D01*
X8468396Y-15420627D02*
X8477920Y-15401579D01*
X8477920Y-15401579D02*
X8496967Y-15392055D01*
X8496967Y-15392055D02*
X8525539Y-15392055D01*
X8525539Y-15392055D02*
X8544586Y-15401579D01*
X8544586Y-15401579D02*
X8554110Y-15420627D01*
X8554110Y-15420627D02*
X8554110Y-15525389D01*
X8944586Y-15315865D02*
X8773158Y-15573008D01*
X9201729Y-15325389D02*
X9220777Y-15325389D01*
X9220777Y-15325389D02*
X9239824Y-15334913D01*
X9239824Y-15334913D02*
X9249348Y-15344436D01*
X9249348Y-15344436D02*
X9258872Y-15363484D01*
X9258872Y-15363484D02*
X9268396Y-15401579D01*
X9268396Y-15401579D02*
X9268396Y-15449198D01*
X9268396Y-15449198D02*
X9258872Y-15487293D01*
X9258872Y-15487293D02*
X9249348Y-15506341D01*
X9249348Y-15506341D02*
X9239824Y-15515865D01*
X9239824Y-15515865D02*
X9220777Y-15525389D01*
X9220777Y-15525389D02*
X9201729Y-15525389D01*
X9201729Y-15525389D02*
X9182682Y-15515865D01*
X9182682Y-15515865D02*
X9173158Y-15506341D01*
X9173158Y-15506341D02*
X9163634Y-15487293D01*
X9163634Y-15487293D02*
X9154110Y-15449198D01*
X9154110Y-15449198D02*
X9154110Y-15401579D01*
X9154110Y-15401579D02*
X9163634Y-15363484D01*
X9163634Y-15363484D02*
X9173158Y-15344436D01*
X9173158Y-15344436D02*
X9182682Y-15334913D01*
X9182682Y-15334913D02*
X9201729Y-15325389D01*
X9354110Y-15506341D02*
X9363634Y-15515865D01*
X9363634Y-15515865D02*
X9354110Y-15525389D01*
X9354110Y-15525389D02*
X9344586Y-15515865D01*
X9344586Y-15515865D02*
X9354110Y-15506341D01*
X9354110Y-15506341D02*
X9354110Y-15525389D01*
X9487443Y-15325389D02*
X9506491Y-15325389D01*
X9506491Y-15325389D02*
X9525539Y-15334913D01*
X9525539Y-15334913D02*
X9535063Y-15344436D01*
X9535063Y-15344436D02*
X9544586Y-15363484D01*
X9544586Y-15363484D02*
X9554110Y-15401579D01*
X9554110Y-15401579D02*
X9554110Y-15449198D01*
X9554110Y-15449198D02*
X9544586Y-15487293D01*
X9544586Y-15487293D02*
X9535063Y-15506341D01*
X9535063Y-15506341D02*
X9525539Y-15515865D01*
X9525539Y-15515865D02*
X9506491Y-15525389D01*
X9506491Y-15525389D02*
X9487443Y-15525389D01*
X9487443Y-15525389D02*
X9468396Y-15515865D01*
X9468396Y-15515865D02*
X9458872Y-15506341D01*
X9458872Y-15506341D02*
X9449348Y-15487293D01*
X9449348Y-15487293D02*
X9439824Y-15449198D01*
X9439824Y-15449198D02*
X9439824Y-15401579D01*
X9439824Y-15401579D02*
X9449348Y-15363484D01*
X9449348Y-15363484D02*
X9458872Y-15344436D01*
X9458872Y-15344436D02*
X9468396Y-15334913D01*
X9468396Y-15334913D02*
X9487443Y-15325389D01*
X9620777Y-15325389D02*
X9744586Y-15325389D01*
X9744586Y-15325389D02*
X9677920Y-15401579D01*
X9677920Y-15401579D02*
X9706491Y-15401579D01*
X9706491Y-15401579D02*
X9725539Y-15411103D01*
X9725539Y-15411103D02*
X9735063Y-15420627D01*
X9735063Y-15420627D02*
X9744586Y-15439674D01*
X9744586Y-15439674D02*
X9744586Y-15487293D01*
X9744586Y-15487293D02*
X9735063Y-15506341D01*
X9735063Y-15506341D02*
X9725539Y-15515865D01*
X9725539Y-15515865D02*
X9706491Y-15525389D01*
X9706491Y-15525389D02*
X9649348Y-15525389D01*
X9649348Y-15525389D02*
X9630301Y-15515865D01*
X9630301Y-15515865D02*
X9620777Y-15506341D01*
X9925539Y-15325389D02*
X9830301Y-15325389D01*
X9830301Y-15325389D02*
X9820777Y-15420627D01*
X9820777Y-15420627D02*
X9830301Y-15411103D01*
X9830301Y-15411103D02*
X9849348Y-15401579D01*
X9849348Y-15401579D02*
X9896967Y-15401579D01*
X9896967Y-15401579D02*
X9916015Y-15411103D01*
X9916015Y-15411103D02*
X9925539Y-15420627D01*
X9925539Y-15420627D02*
X9935063Y-15439674D01*
X9935063Y-15439674D02*
X9935063Y-15487293D01*
X9935063Y-15487293D02*
X9925539Y-15506341D01*
X9925539Y-15506341D02*
X9916015Y-15515865D01*
X9916015Y-15515865D02*
X9896967Y-15525389D01*
X9896967Y-15525389D02*
X9849348Y-15525389D01*
X9849348Y-15525389D02*
X9830301Y-15515865D01*
X9830301Y-15515865D02*
X9820777Y-15506341D01*
X10106491Y-15392055D02*
X10106491Y-15525389D01*
X10058872Y-15315865D02*
X10011253Y-15458722D01*
X10011253Y-15458722D02*
X10135063Y-15458722D01*
X10201729Y-15325389D02*
X10201729Y-15363484D01*
X10277920Y-15325389D02*
X10277920Y-15363484D01*
X10573158Y-15601579D02*
X10563634Y-15592055D01*
X10563634Y-15592055D02*
X10544586Y-15563484D01*
X10544586Y-15563484D02*
X10535063Y-15544436D01*
X10535063Y-15544436D02*
X10525539Y-15515865D01*
X10525539Y-15515865D02*
X10516015Y-15468246D01*
X10516015Y-15468246D02*
X10516015Y-15430151D01*
X10516015Y-15430151D02*
X10525539Y-15382532D01*
X10525539Y-15382532D02*
X10535063Y-15353960D01*
X10535063Y-15353960D02*
X10544586Y-15334913D01*
X10544586Y-15334913D02*
X10563634Y-15306341D01*
X10563634Y-15306341D02*
X10573158Y-15296817D01*
X10639825Y-15344436D02*
X10649348Y-15334913D01*
X10649348Y-15334913D02*
X10668396Y-15325389D01*
X10668396Y-15325389D02*
X10716015Y-15325389D01*
X10716015Y-15325389D02*
X10735063Y-15334913D01*
X10735063Y-15334913D02*
X10744586Y-15344436D01*
X10744586Y-15344436D02*
X10754110Y-15363484D01*
X10754110Y-15363484D02*
X10754110Y-15382532D01*
X10754110Y-15382532D02*
X10744586Y-15411103D01*
X10744586Y-15411103D02*
X10630301Y-15525389D01*
X10630301Y-15525389D02*
X10754110Y-15525389D01*
X10992206Y-15525389D02*
X10992206Y-15325389D01*
X11077920Y-15525389D02*
X11077920Y-15420627D01*
X11077920Y-15420627D02*
X11068396Y-15401579D01*
X11068396Y-15401579D02*
X11049348Y-15392055D01*
X11049348Y-15392055D02*
X11020777Y-15392055D01*
X11020777Y-15392055D02*
X11001729Y-15401579D01*
X11001729Y-15401579D02*
X10992206Y-15411103D01*
X11201729Y-15525389D02*
X11182682Y-15515865D01*
X11182682Y-15515865D02*
X11173158Y-15506341D01*
X11173158Y-15506341D02*
X11163634Y-15487293D01*
X11163634Y-15487293D02*
X11163634Y-15430151D01*
X11163634Y-15430151D02*
X11173158Y-15411103D01*
X11173158Y-15411103D02*
X11182682Y-15401579D01*
X11182682Y-15401579D02*
X11201729Y-15392055D01*
X11201729Y-15392055D02*
X11230301Y-15392055D01*
X11230301Y-15392055D02*
X11249348Y-15401579D01*
X11249348Y-15401579D02*
X11258872Y-15411103D01*
X11258872Y-15411103D02*
X11268396Y-15430151D01*
X11268396Y-15430151D02*
X11268396Y-15487293D01*
X11268396Y-15487293D02*
X11258872Y-15506341D01*
X11258872Y-15506341D02*
X11249348Y-15515865D01*
X11249348Y-15515865D02*
X11230301Y-15525389D01*
X11230301Y-15525389D02*
X11201729Y-15525389D01*
X11382682Y-15525389D02*
X11363634Y-15515865D01*
X11363634Y-15515865D02*
X11354110Y-15496817D01*
X11354110Y-15496817D02*
X11354110Y-15325389D01*
X11535063Y-15515865D02*
X11516015Y-15525389D01*
X11516015Y-15525389D02*
X11477920Y-15525389D01*
X11477920Y-15525389D02*
X11458872Y-15515865D01*
X11458872Y-15515865D02*
X11449348Y-15496817D01*
X11449348Y-15496817D02*
X11449348Y-15420627D01*
X11449348Y-15420627D02*
X11458872Y-15401579D01*
X11458872Y-15401579D02*
X11477920Y-15392055D01*
X11477920Y-15392055D02*
X11516015Y-15392055D01*
X11516015Y-15392055D02*
X11535063Y-15401579D01*
X11535063Y-15401579D02*
X11544586Y-15420627D01*
X11544586Y-15420627D02*
X11544586Y-15439674D01*
X11544586Y-15439674D02*
X11449348Y-15458722D01*
X11620777Y-15515865D02*
X11639825Y-15525389D01*
X11639825Y-15525389D02*
X11677920Y-15525389D01*
X11677920Y-15525389D02*
X11696967Y-15515865D01*
X11696967Y-15515865D02*
X11706491Y-15496817D01*
X11706491Y-15496817D02*
X11706491Y-15487293D01*
X11706491Y-15487293D02*
X11696967Y-15468246D01*
X11696967Y-15468246D02*
X11677920Y-15458722D01*
X11677920Y-15458722D02*
X11649348Y-15458722D01*
X11649348Y-15458722D02*
X11630301Y-15449198D01*
X11630301Y-15449198D02*
X11620777Y-15430151D01*
X11620777Y-15430151D02*
X11620777Y-15420627D01*
X11620777Y-15420627D02*
X11630301Y-15401579D01*
X11630301Y-15401579D02*
X11649348Y-15392055D01*
X11649348Y-15392055D02*
X11677920Y-15392055D01*
X11677920Y-15392055D02*
X11696967Y-15401579D01*
X11773158Y-15601579D02*
X11782682Y-15592055D01*
X11782682Y-15592055D02*
X11801729Y-15563484D01*
X11801729Y-15563484D02*
X11811253Y-15544436D01*
X11811253Y-15544436D02*
X11820777Y-15515865D01*
X11820777Y-15515865D02*
X11830301Y-15468246D01*
X11830301Y-15468246D02*
X11830301Y-15430151D01*
X11830301Y-15430151D02*
X11820777Y-15382532D01*
X11820777Y-15382532D02*
X11811253Y-15353960D01*
X11811253Y-15353960D02*
X11801729Y-15334913D01*
X11801729Y-15334913D02*
X11782682Y-15306341D01*
X11782682Y-15306341D02*
X11773158Y-15296817D01*
D12*
X6948095Y-15747905D02*
X6998095Y-15697905D01*
X6948095Y-15647905D01*
X6898095Y-15697905D01*
X6948095Y-15747905D01*
D11*
X7363634Y-15789389D02*
X7249348Y-15789389D01*
X7306491Y-15789389D02*
X7306491Y-15589389D01*
X7306491Y-15589389D02*
X7287443Y-15617960D01*
X7287443Y-15617960D02*
X7268396Y-15637008D01*
X7268396Y-15637008D02*
X7249348Y-15646532D01*
X7449348Y-15770341D02*
X7458872Y-15779865D01*
X7458872Y-15779865D02*
X7449348Y-15789389D01*
X7449348Y-15789389D02*
X7439824Y-15779865D01*
X7439824Y-15779865D02*
X7449348Y-15770341D01*
X7449348Y-15770341D02*
X7449348Y-15789389D01*
X7582681Y-15589389D02*
X7601729Y-15589389D01*
X7601729Y-15589389D02*
X7620777Y-15598913D01*
X7620777Y-15598913D02*
X7630300Y-15608436D01*
X7630300Y-15608436D02*
X7639824Y-15627484D01*
X7639824Y-15627484D02*
X7649348Y-15665579D01*
X7649348Y-15665579D02*
X7649348Y-15713198D01*
X7649348Y-15713198D02*
X7639824Y-15751293D01*
X7639824Y-15751293D02*
X7630300Y-15770341D01*
X7630300Y-15770341D02*
X7620777Y-15779865D01*
X7620777Y-15779865D02*
X7601729Y-15789389D01*
X7601729Y-15789389D02*
X7582681Y-15789389D01*
X7582681Y-15789389D02*
X7563634Y-15779865D01*
X7563634Y-15779865D02*
X7554110Y-15770341D01*
X7554110Y-15770341D02*
X7544586Y-15751293D01*
X7544586Y-15751293D02*
X7535062Y-15713198D01*
X7535062Y-15713198D02*
X7535062Y-15665579D01*
X7535062Y-15665579D02*
X7544586Y-15627484D01*
X7544586Y-15627484D02*
X7554110Y-15608436D01*
X7554110Y-15608436D02*
X7563634Y-15598913D01*
X7563634Y-15598913D02*
X7582681Y-15589389D01*
X7773157Y-15589389D02*
X7792205Y-15589389D01*
X7792205Y-15589389D02*
X7811253Y-15598913D01*
X7811253Y-15598913D02*
X7820777Y-15608436D01*
X7820777Y-15608436D02*
X7830300Y-15627484D01*
X7830300Y-15627484D02*
X7839824Y-15665579D01*
X7839824Y-15665579D02*
X7839824Y-15713198D01*
X7839824Y-15713198D02*
X7830300Y-15751293D01*
X7830300Y-15751293D02*
X7820777Y-15770341D01*
X7820777Y-15770341D02*
X7811253Y-15779865D01*
X7811253Y-15779865D02*
X7792205Y-15789389D01*
X7792205Y-15789389D02*
X7773157Y-15789389D01*
X7773157Y-15789389D02*
X7754110Y-15779865D01*
X7754110Y-15779865D02*
X7744586Y-15770341D01*
X7744586Y-15770341D02*
X7735062Y-15751293D01*
X7735062Y-15751293D02*
X7725538Y-15713198D01*
X7725538Y-15713198D02*
X7725538Y-15665579D01*
X7725538Y-15665579D02*
X7735062Y-15627484D01*
X7735062Y-15627484D02*
X7744586Y-15608436D01*
X7744586Y-15608436D02*
X7754110Y-15598913D01*
X7754110Y-15598913D02*
X7773157Y-15589389D01*
X7963634Y-15589389D02*
X7982681Y-15589389D01*
X7982681Y-15589389D02*
X8001729Y-15598913D01*
X8001729Y-15598913D02*
X8011253Y-15608436D01*
X8011253Y-15608436D02*
X8020777Y-15627484D01*
X8020777Y-15627484D02*
X8030300Y-15665579D01*
X8030300Y-15665579D02*
X8030300Y-15713198D01*
X8030300Y-15713198D02*
X8020777Y-15751293D01*
X8020777Y-15751293D02*
X8011253Y-15770341D01*
X8011253Y-15770341D02*
X8001729Y-15779865D01*
X8001729Y-15779865D02*
X7982681Y-15789389D01*
X7982681Y-15789389D02*
X7963634Y-15789389D01*
X7963634Y-15789389D02*
X7944586Y-15779865D01*
X7944586Y-15779865D02*
X7935062Y-15770341D01*
X7935062Y-15770341D02*
X7925538Y-15751293D01*
X7925538Y-15751293D02*
X7916015Y-15713198D01*
X7916015Y-15713198D02*
X7916015Y-15665579D01*
X7916015Y-15665579D02*
X7925538Y-15627484D01*
X7925538Y-15627484D02*
X7935062Y-15608436D01*
X7935062Y-15608436D02*
X7944586Y-15598913D01*
X7944586Y-15598913D02*
X7963634Y-15589389D01*
X8116015Y-15789389D02*
X8116015Y-15656055D01*
X8116015Y-15675103D02*
X8125538Y-15665579D01*
X8125538Y-15665579D02*
X8144586Y-15656055D01*
X8144586Y-15656055D02*
X8173158Y-15656055D01*
X8173158Y-15656055D02*
X8192205Y-15665579D01*
X8192205Y-15665579D02*
X8201729Y-15684627D01*
X8201729Y-15684627D02*
X8201729Y-15789389D01*
X8201729Y-15684627D02*
X8211253Y-15665579D01*
X8211253Y-15665579D02*
X8230300Y-15656055D01*
X8230300Y-15656055D02*
X8258872Y-15656055D01*
X8258872Y-15656055D02*
X8277919Y-15665579D01*
X8277919Y-15665579D02*
X8287443Y-15684627D01*
X8287443Y-15684627D02*
X8287443Y-15789389D01*
X8382681Y-15789389D02*
X8382681Y-15656055D01*
X8382681Y-15675103D02*
X8392205Y-15665579D01*
X8392205Y-15665579D02*
X8411253Y-15656055D01*
X8411253Y-15656055D02*
X8439824Y-15656055D01*
X8439824Y-15656055D02*
X8458872Y-15665579D01*
X8458872Y-15665579D02*
X8468396Y-15684627D01*
X8468396Y-15684627D02*
X8468396Y-15789389D01*
X8468396Y-15684627D02*
X8477920Y-15665579D01*
X8477920Y-15665579D02*
X8496967Y-15656055D01*
X8496967Y-15656055D02*
X8525539Y-15656055D01*
X8525539Y-15656055D02*
X8544586Y-15665579D01*
X8544586Y-15665579D02*
X8554110Y-15684627D01*
X8554110Y-15684627D02*
X8554110Y-15789389D01*
X8944586Y-15579865D02*
X8773158Y-15837008D01*
X9201729Y-15589389D02*
X9220777Y-15589389D01*
X9220777Y-15589389D02*
X9239824Y-15598913D01*
X9239824Y-15598913D02*
X9249348Y-15608436D01*
X9249348Y-15608436D02*
X9258872Y-15627484D01*
X9258872Y-15627484D02*
X9268396Y-15665579D01*
X9268396Y-15665579D02*
X9268396Y-15713198D01*
X9268396Y-15713198D02*
X9258872Y-15751293D01*
X9258872Y-15751293D02*
X9249348Y-15770341D01*
X9249348Y-15770341D02*
X9239824Y-15779865D01*
X9239824Y-15779865D02*
X9220777Y-15789389D01*
X9220777Y-15789389D02*
X9201729Y-15789389D01*
X9201729Y-15789389D02*
X9182682Y-15779865D01*
X9182682Y-15779865D02*
X9173158Y-15770341D01*
X9173158Y-15770341D02*
X9163634Y-15751293D01*
X9163634Y-15751293D02*
X9154110Y-15713198D01*
X9154110Y-15713198D02*
X9154110Y-15665579D01*
X9154110Y-15665579D02*
X9163634Y-15627484D01*
X9163634Y-15627484D02*
X9173158Y-15608436D01*
X9173158Y-15608436D02*
X9182682Y-15598913D01*
X9182682Y-15598913D02*
X9201729Y-15589389D01*
X9354110Y-15770341D02*
X9363634Y-15779865D01*
X9363634Y-15779865D02*
X9354110Y-15789389D01*
X9354110Y-15789389D02*
X9344586Y-15779865D01*
X9344586Y-15779865D02*
X9354110Y-15770341D01*
X9354110Y-15770341D02*
X9354110Y-15789389D01*
X9487443Y-15589389D02*
X9506491Y-15589389D01*
X9506491Y-15589389D02*
X9525539Y-15598913D01*
X9525539Y-15598913D02*
X9535063Y-15608436D01*
X9535063Y-15608436D02*
X9544586Y-15627484D01*
X9544586Y-15627484D02*
X9554110Y-15665579D01*
X9554110Y-15665579D02*
X9554110Y-15713198D01*
X9554110Y-15713198D02*
X9544586Y-15751293D01*
X9544586Y-15751293D02*
X9535063Y-15770341D01*
X9535063Y-15770341D02*
X9525539Y-15779865D01*
X9525539Y-15779865D02*
X9506491Y-15789389D01*
X9506491Y-15789389D02*
X9487443Y-15789389D01*
X9487443Y-15789389D02*
X9468396Y-15779865D01*
X9468396Y-15779865D02*
X9458872Y-15770341D01*
X9458872Y-15770341D02*
X9449348Y-15751293D01*
X9449348Y-15751293D02*
X9439824Y-15713198D01*
X9439824Y-15713198D02*
X9439824Y-15665579D01*
X9439824Y-15665579D02*
X9449348Y-15627484D01*
X9449348Y-15627484D02*
X9458872Y-15608436D01*
X9458872Y-15608436D02*
X9468396Y-15598913D01*
X9468396Y-15598913D02*
X9487443Y-15589389D01*
X9620777Y-15589389D02*
X9744586Y-15589389D01*
X9744586Y-15589389D02*
X9677920Y-15665579D01*
X9677920Y-15665579D02*
X9706491Y-15665579D01*
X9706491Y-15665579D02*
X9725539Y-15675103D01*
X9725539Y-15675103D02*
X9735063Y-15684627D01*
X9735063Y-15684627D02*
X9744586Y-15703674D01*
X9744586Y-15703674D02*
X9744586Y-15751293D01*
X9744586Y-15751293D02*
X9735063Y-15770341D01*
X9735063Y-15770341D02*
X9725539Y-15779865D01*
X9725539Y-15779865D02*
X9706491Y-15789389D01*
X9706491Y-15789389D02*
X9649348Y-15789389D01*
X9649348Y-15789389D02*
X9630301Y-15779865D01*
X9630301Y-15779865D02*
X9620777Y-15770341D01*
X9839824Y-15789389D02*
X9877920Y-15789389D01*
X9877920Y-15789389D02*
X9896967Y-15779865D01*
X9896967Y-15779865D02*
X9906491Y-15770341D01*
X9906491Y-15770341D02*
X9925539Y-15741770D01*
X9925539Y-15741770D02*
X9935063Y-15703674D01*
X9935063Y-15703674D02*
X9935063Y-15627484D01*
X9935063Y-15627484D02*
X9925539Y-15608436D01*
X9925539Y-15608436D02*
X9916015Y-15598913D01*
X9916015Y-15598913D02*
X9896967Y-15589389D01*
X9896967Y-15589389D02*
X9858872Y-15589389D01*
X9858872Y-15589389D02*
X9839824Y-15598913D01*
X9839824Y-15598913D02*
X9830301Y-15608436D01*
X9830301Y-15608436D02*
X9820777Y-15627484D01*
X9820777Y-15627484D02*
X9820777Y-15675103D01*
X9820777Y-15675103D02*
X9830301Y-15694151D01*
X9830301Y-15694151D02*
X9839824Y-15703674D01*
X9839824Y-15703674D02*
X9858872Y-15713198D01*
X9858872Y-15713198D02*
X9896967Y-15713198D01*
X9896967Y-15713198D02*
X9916015Y-15703674D01*
X9916015Y-15703674D02*
X9925539Y-15694151D01*
X9925539Y-15694151D02*
X9935063Y-15675103D01*
X10106491Y-15656055D02*
X10106491Y-15789389D01*
X10058872Y-15579865D02*
X10011253Y-15722722D01*
X10011253Y-15722722D02*
X10135063Y-15722722D01*
X10201729Y-15589389D02*
X10201729Y-15627484D01*
X10277920Y-15589389D02*
X10277920Y-15627484D01*
X10573158Y-15865579D02*
X10563634Y-15856055D01*
X10563634Y-15856055D02*
X10544586Y-15827484D01*
X10544586Y-15827484D02*
X10535063Y-15808436D01*
X10535063Y-15808436D02*
X10525539Y-15779865D01*
X10525539Y-15779865D02*
X10516015Y-15732246D01*
X10516015Y-15732246D02*
X10516015Y-15694151D01*
X10516015Y-15694151D02*
X10525539Y-15646532D01*
X10525539Y-15646532D02*
X10535063Y-15617960D01*
X10535063Y-15617960D02*
X10544586Y-15598913D01*
X10544586Y-15598913D02*
X10563634Y-15570341D01*
X10563634Y-15570341D02*
X10573158Y-15560817D01*
X10630301Y-15589389D02*
X10754110Y-15589389D01*
X10754110Y-15589389D02*
X10687444Y-15665579D01*
X10687444Y-15665579D02*
X10716015Y-15665579D01*
X10716015Y-15665579D02*
X10735063Y-15675103D01*
X10735063Y-15675103D02*
X10744586Y-15684627D01*
X10744586Y-15684627D02*
X10754110Y-15703674D01*
X10754110Y-15703674D02*
X10754110Y-15751293D01*
X10754110Y-15751293D02*
X10744586Y-15770341D01*
X10744586Y-15770341D02*
X10735063Y-15779865D01*
X10735063Y-15779865D02*
X10716015Y-15789389D01*
X10716015Y-15789389D02*
X10658872Y-15789389D01*
X10658872Y-15789389D02*
X10639825Y-15779865D01*
X10639825Y-15779865D02*
X10630301Y-15770341D01*
X10877920Y-15589389D02*
X10896967Y-15589389D01*
X10896967Y-15589389D02*
X10916015Y-15598913D01*
X10916015Y-15598913D02*
X10925539Y-15608436D01*
X10925539Y-15608436D02*
X10935063Y-15627484D01*
X10935063Y-15627484D02*
X10944586Y-15665579D01*
X10944586Y-15665579D02*
X10944586Y-15713198D01*
X10944586Y-15713198D02*
X10935063Y-15751293D01*
X10935063Y-15751293D02*
X10925539Y-15770341D01*
X10925539Y-15770341D02*
X10916015Y-15779865D01*
X10916015Y-15779865D02*
X10896967Y-15789389D01*
X10896967Y-15789389D02*
X10877920Y-15789389D01*
X10877920Y-15789389D02*
X10858872Y-15779865D01*
X10858872Y-15779865D02*
X10849348Y-15770341D01*
X10849348Y-15770341D02*
X10839825Y-15751293D01*
X10839825Y-15751293D02*
X10830301Y-15713198D01*
X10830301Y-15713198D02*
X10830301Y-15665579D01*
X10830301Y-15665579D02*
X10839825Y-15627484D01*
X10839825Y-15627484D02*
X10849348Y-15608436D01*
X10849348Y-15608436D02*
X10858872Y-15598913D01*
X10858872Y-15598913D02*
X10877920Y-15589389D01*
X11182682Y-15789389D02*
X11182682Y-15589389D01*
X11268396Y-15789389D02*
X11268396Y-15684627D01*
X11268396Y-15684627D02*
X11258872Y-15665579D01*
X11258872Y-15665579D02*
X11239825Y-15656055D01*
X11239825Y-15656055D02*
X11211253Y-15656055D01*
X11211253Y-15656055D02*
X11192205Y-15665579D01*
X11192205Y-15665579D02*
X11182682Y-15675103D01*
X11392205Y-15789389D02*
X11373158Y-15779865D01*
X11373158Y-15779865D02*
X11363634Y-15770341D01*
X11363634Y-15770341D02*
X11354110Y-15751293D01*
X11354110Y-15751293D02*
X11354110Y-15694151D01*
X11354110Y-15694151D02*
X11363634Y-15675103D01*
X11363634Y-15675103D02*
X11373158Y-15665579D01*
X11373158Y-15665579D02*
X11392205Y-15656055D01*
X11392205Y-15656055D02*
X11420777Y-15656055D01*
X11420777Y-15656055D02*
X11439825Y-15665579D01*
X11439825Y-15665579D02*
X11449348Y-15675103D01*
X11449348Y-15675103D02*
X11458872Y-15694151D01*
X11458872Y-15694151D02*
X11458872Y-15751293D01*
X11458872Y-15751293D02*
X11449348Y-15770341D01*
X11449348Y-15770341D02*
X11439825Y-15779865D01*
X11439825Y-15779865D02*
X11420777Y-15789389D01*
X11420777Y-15789389D02*
X11392205Y-15789389D01*
X11573158Y-15789389D02*
X11554110Y-15779865D01*
X11554110Y-15779865D02*
X11544586Y-15760817D01*
X11544586Y-15760817D02*
X11544586Y-15589389D01*
X11725539Y-15779865D02*
X11706491Y-15789389D01*
X11706491Y-15789389D02*
X11668396Y-15789389D01*
X11668396Y-15789389D02*
X11649348Y-15779865D01*
X11649348Y-15779865D02*
X11639825Y-15760817D01*
X11639825Y-15760817D02*
X11639825Y-15684627D01*
X11639825Y-15684627D02*
X11649348Y-15665579D01*
X11649348Y-15665579D02*
X11668396Y-15656055D01*
X11668396Y-15656055D02*
X11706491Y-15656055D01*
X11706491Y-15656055D02*
X11725539Y-15665579D01*
X11725539Y-15665579D02*
X11735063Y-15684627D01*
X11735063Y-15684627D02*
X11735063Y-15703674D01*
X11735063Y-15703674D02*
X11639825Y-15722722D01*
X11811253Y-15779865D02*
X11830301Y-15789389D01*
X11830301Y-15789389D02*
X11868396Y-15789389D01*
X11868396Y-15789389D02*
X11887444Y-15779865D01*
X11887444Y-15779865D02*
X11896967Y-15760817D01*
X11896967Y-15760817D02*
X11896967Y-15751293D01*
X11896967Y-15751293D02*
X11887444Y-15732246D01*
X11887444Y-15732246D02*
X11868396Y-15722722D01*
X11868396Y-15722722D02*
X11839825Y-15722722D01*
X11839825Y-15722722D02*
X11820777Y-15713198D01*
X11820777Y-15713198D02*
X11811253Y-15694151D01*
X11811253Y-15694151D02*
X11811253Y-15684627D01*
X11811253Y-15684627D02*
X11820777Y-15665579D01*
X11820777Y-15665579D02*
X11839825Y-15656055D01*
X11839825Y-15656055D02*
X11868396Y-15656055D01*
X11868396Y-15656055D02*
X11887444Y-15665579D01*
X11963634Y-15865579D02*
X11973158Y-15856055D01*
X11973158Y-15856055D02*
X11992206Y-15827484D01*
X11992206Y-15827484D02*
X12001729Y-15808436D01*
X12001729Y-15808436D02*
X12011253Y-15779865D01*
X12011253Y-15779865D02*
X12020777Y-15732246D01*
X12020777Y-15732246D02*
X12020777Y-15694151D01*
X12020777Y-15694151D02*
X12011253Y-15646532D01*
X12011253Y-15646532D02*
X12001729Y-15617960D01*
X12001729Y-15617960D02*
X11992206Y-15598913D01*
X11992206Y-15598913D02*
X11973158Y-15570341D01*
X11973158Y-15570341D02*
X11963634Y-15560817D01*
D13*
X6888095Y-15906905D02*
X6998095Y-16016905D01*
X6998095Y-15906905D02*
X6888095Y-16016905D01*
X6998095Y-15961905D02*
G75*
G02*
X6888095Y-15961905I-55000J0D01*
G01*
X6888095Y-15961905D02*
G75*
G02*
X6998095Y-15961905I55000J0D01*
G01*
D11*
X7363634Y-16053389D02*
X7249348Y-16053389D01*
X7306491Y-16053389D02*
X7306491Y-15853389D01*
X7306491Y-15853389D02*
X7287443Y-15881960D01*
X7287443Y-15881960D02*
X7268396Y-15901008D01*
X7268396Y-15901008D02*
X7249348Y-15910532D01*
X7449348Y-16034341D02*
X7458872Y-16043865D01*
X7458872Y-16043865D02*
X7449348Y-16053389D01*
X7449348Y-16053389D02*
X7439824Y-16043865D01*
X7439824Y-16043865D02*
X7449348Y-16034341D01*
X7449348Y-16034341D02*
X7449348Y-16053389D01*
X7649348Y-16053389D02*
X7535062Y-16053389D01*
X7592205Y-16053389D02*
X7592205Y-15853389D01*
X7592205Y-15853389D02*
X7573157Y-15881960D01*
X7573157Y-15881960D02*
X7554110Y-15901008D01*
X7554110Y-15901008D02*
X7535062Y-15910532D01*
X7773157Y-15853389D02*
X7792205Y-15853389D01*
X7792205Y-15853389D02*
X7811253Y-15862913D01*
X7811253Y-15862913D02*
X7820777Y-15872436D01*
X7820777Y-15872436D02*
X7830300Y-15891484D01*
X7830300Y-15891484D02*
X7839824Y-15929579D01*
X7839824Y-15929579D02*
X7839824Y-15977198D01*
X7839824Y-15977198D02*
X7830300Y-16015293D01*
X7830300Y-16015293D02*
X7820777Y-16034341D01*
X7820777Y-16034341D02*
X7811253Y-16043865D01*
X7811253Y-16043865D02*
X7792205Y-16053389D01*
X7792205Y-16053389D02*
X7773157Y-16053389D01*
X7773157Y-16053389D02*
X7754110Y-16043865D01*
X7754110Y-16043865D02*
X7744586Y-16034341D01*
X7744586Y-16034341D02*
X7735062Y-16015293D01*
X7735062Y-16015293D02*
X7725538Y-15977198D01*
X7725538Y-15977198D02*
X7725538Y-15929579D01*
X7725538Y-15929579D02*
X7735062Y-15891484D01*
X7735062Y-15891484D02*
X7744586Y-15872436D01*
X7744586Y-15872436D02*
X7754110Y-15862913D01*
X7754110Y-15862913D02*
X7773157Y-15853389D01*
X7963634Y-15853389D02*
X7982681Y-15853389D01*
X7982681Y-15853389D02*
X8001729Y-15862913D01*
X8001729Y-15862913D02*
X8011253Y-15872436D01*
X8011253Y-15872436D02*
X8020777Y-15891484D01*
X8020777Y-15891484D02*
X8030300Y-15929579D01*
X8030300Y-15929579D02*
X8030300Y-15977198D01*
X8030300Y-15977198D02*
X8020777Y-16015293D01*
X8020777Y-16015293D02*
X8011253Y-16034341D01*
X8011253Y-16034341D02*
X8001729Y-16043865D01*
X8001729Y-16043865D02*
X7982681Y-16053389D01*
X7982681Y-16053389D02*
X7963634Y-16053389D01*
X7963634Y-16053389D02*
X7944586Y-16043865D01*
X7944586Y-16043865D02*
X7935062Y-16034341D01*
X7935062Y-16034341D02*
X7925538Y-16015293D01*
X7925538Y-16015293D02*
X7916015Y-15977198D01*
X7916015Y-15977198D02*
X7916015Y-15929579D01*
X7916015Y-15929579D02*
X7925538Y-15891484D01*
X7925538Y-15891484D02*
X7935062Y-15872436D01*
X7935062Y-15872436D02*
X7944586Y-15862913D01*
X7944586Y-15862913D02*
X7963634Y-15853389D01*
X8116015Y-16053389D02*
X8116015Y-15920055D01*
X8116015Y-15939103D02*
X8125538Y-15929579D01*
X8125538Y-15929579D02*
X8144586Y-15920055D01*
X8144586Y-15920055D02*
X8173158Y-15920055D01*
X8173158Y-15920055D02*
X8192205Y-15929579D01*
X8192205Y-15929579D02*
X8201729Y-15948627D01*
X8201729Y-15948627D02*
X8201729Y-16053389D01*
X8201729Y-15948627D02*
X8211253Y-15929579D01*
X8211253Y-15929579D02*
X8230300Y-15920055D01*
X8230300Y-15920055D02*
X8258872Y-15920055D01*
X8258872Y-15920055D02*
X8277919Y-15929579D01*
X8277919Y-15929579D02*
X8287443Y-15948627D01*
X8287443Y-15948627D02*
X8287443Y-16053389D01*
X8382681Y-16053389D02*
X8382681Y-15920055D01*
X8382681Y-15939103D02*
X8392205Y-15929579D01*
X8392205Y-15929579D02*
X8411253Y-15920055D01*
X8411253Y-15920055D02*
X8439824Y-15920055D01*
X8439824Y-15920055D02*
X8458872Y-15929579D01*
X8458872Y-15929579D02*
X8468396Y-15948627D01*
X8468396Y-15948627D02*
X8468396Y-16053389D01*
X8468396Y-15948627D02*
X8477920Y-15929579D01*
X8477920Y-15929579D02*
X8496967Y-15920055D01*
X8496967Y-15920055D02*
X8525539Y-15920055D01*
X8525539Y-15920055D02*
X8544586Y-15929579D01*
X8544586Y-15929579D02*
X8554110Y-15948627D01*
X8554110Y-15948627D02*
X8554110Y-16053389D01*
X8944586Y-15843865D02*
X8773158Y-16101008D01*
X9201729Y-15853389D02*
X9220777Y-15853389D01*
X9220777Y-15853389D02*
X9239824Y-15862913D01*
X9239824Y-15862913D02*
X9249348Y-15872436D01*
X9249348Y-15872436D02*
X9258872Y-15891484D01*
X9258872Y-15891484D02*
X9268396Y-15929579D01*
X9268396Y-15929579D02*
X9268396Y-15977198D01*
X9268396Y-15977198D02*
X9258872Y-16015293D01*
X9258872Y-16015293D02*
X9249348Y-16034341D01*
X9249348Y-16034341D02*
X9239824Y-16043865D01*
X9239824Y-16043865D02*
X9220777Y-16053389D01*
X9220777Y-16053389D02*
X9201729Y-16053389D01*
X9201729Y-16053389D02*
X9182682Y-16043865D01*
X9182682Y-16043865D02*
X9173158Y-16034341D01*
X9173158Y-16034341D02*
X9163634Y-16015293D01*
X9163634Y-16015293D02*
X9154110Y-15977198D01*
X9154110Y-15977198D02*
X9154110Y-15929579D01*
X9154110Y-15929579D02*
X9163634Y-15891484D01*
X9163634Y-15891484D02*
X9173158Y-15872436D01*
X9173158Y-15872436D02*
X9182682Y-15862913D01*
X9182682Y-15862913D02*
X9201729Y-15853389D01*
X9354110Y-16034341D02*
X9363634Y-16043865D01*
X9363634Y-16043865D02*
X9354110Y-16053389D01*
X9354110Y-16053389D02*
X9344586Y-16043865D01*
X9344586Y-16043865D02*
X9354110Y-16034341D01*
X9354110Y-16034341D02*
X9354110Y-16053389D01*
X9487443Y-15853389D02*
X9506491Y-15853389D01*
X9506491Y-15853389D02*
X9525539Y-15862913D01*
X9525539Y-15862913D02*
X9535063Y-15872436D01*
X9535063Y-15872436D02*
X9544586Y-15891484D01*
X9544586Y-15891484D02*
X9554110Y-15929579D01*
X9554110Y-15929579D02*
X9554110Y-15977198D01*
X9554110Y-15977198D02*
X9544586Y-16015293D01*
X9544586Y-16015293D02*
X9535063Y-16034341D01*
X9535063Y-16034341D02*
X9525539Y-16043865D01*
X9525539Y-16043865D02*
X9506491Y-16053389D01*
X9506491Y-16053389D02*
X9487443Y-16053389D01*
X9487443Y-16053389D02*
X9468396Y-16043865D01*
X9468396Y-16043865D02*
X9458872Y-16034341D01*
X9458872Y-16034341D02*
X9449348Y-16015293D01*
X9449348Y-16015293D02*
X9439824Y-15977198D01*
X9439824Y-15977198D02*
X9439824Y-15929579D01*
X9439824Y-15929579D02*
X9449348Y-15891484D01*
X9449348Y-15891484D02*
X9458872Y-15872436D01*
X9458872Y-15872436D02*
X9468396Y-15862913D01*
X9468396Y-15862913D02*
X9487443Y-15853389D01*
X9725539Y-15920055D02*
X9725539Y-16053389D01*
X9677920Y-15843865D02*
X9630301Y-15986722D01*
X9630301Y-15986722D02*
X9754110Y-15986722D01*
X9811253Y-15853389D02*
X9935063Y-15853389D01*
X9935063Y-15853389D02*
X9868396Y-15929579D01*
X9868396Y-15929579D02*
X9896967Y-15929579D01*
X9896967Y-15929579D02*
X9916015Y-15939103D01*
X9916015Y-15939103D02*
X9925539Y-15948627D01*
X9925539Y-15948627D02*
X9935063Y-15967674D01*
X9935063Y-15967674D02*
X9935063Y-16015293D01*
X9935063Y-16015293D02*
X9925539Y-16034341D01*
X9925539Y-16034341D02*
X9916015Y-16043865D01*
X9916015Y-16043865D02*
X9896967Y-16053389D01*
X9896967Y-16053389D02*
X9839824Y-16053389D01*
X9839824Y-16053389D02*
X9820777Y-16043865D01*
X9820777Y-16043865D02*
X9811253Y-16034341D01*
X10001729Y-15853389D02*
X10125539Y-15853389D01*
X10125539Y-15853389D02*
X10058872Y-15929579D01*
X10058872Y-15929579D02*
X10087444Y-15929579D01*
X10087444Y-15929579D02*
X10106491Y-15939103D01*
X10106491Y-15939103D02*
X10116015Y-15948627D01*
X10116015Y-15948627D02*
X10125539Y-15967674D01*
X10125539Y-15967674D02*
X10125539Y-16015293D01*
X10125539Y-16015293D02*
X10116015Y-16034341D01*
X10116015Y-16034341D02*
X10106491Y-16043865D01*
X10106491Y-16043865D02*
X10087444Y-16053389D01*
X10087444Y-16053389D02*
X10030301Y-16053389D01*
X10030301Y-16053389D02*
X10011253Y-16043865D01*
X10011253Y-16043865D02*
X10001729Y-16034341D01*
X10201729Y-15853389D02*
X10201729Y-15891484D01*
X10277920Y-15853389D02*
X10277920Y-15891484D01*
X10573158Y-16129579D02*
X10563634Y-16120055D01*
X10563634Y-16120055D02*
X10544586Y-16091484D01*
X10544586Y-16091484D02*
X10535063Y-16072436D01*
X10535063Y-16072436D02*
X10525539Y-16043865D01*
X10525539Y-16043865D02*
X10516015Y-15996246D01*
X10516015Y-15996246D02*
X10516015Y-15958151D01*
X10516015Y-15958151D02*
X10525539Y-15910532D01*
X10525539Y-15910532D02*
X10535063Y-15881960D01*
X10535063Y-15881960D02*
X10544586Y-15862913D01*
X10544586Y-15862913D02*
X10563634Y-15834341D01*
X10563634Y-15834341D02*
X10573158Y-15824817D01*
X10754110Y-16053389D02*
X10639825Y-16053389D01*
X10696967Y-16053389D02*
X10696967Y-15853389D01*
X10696967Y-15853389D02*
X10677920Y-15881960D01*
X10677920Y-15881960D02*
X10658872Y-15901008D01*
X10658872Y-15901008D02*
X10639825Y-15910532D01*
X10830301Y-15872436D02*
X10839825Y-15862913D01*
X10839825Y-15862913D02*
X10858872Y-15853389D01*
X10858872Y-15853389D02*
X10906491Y-15853389D01*
X10906491Y-15853389D02*
X10925539Y-15862913D01*
X10925539Y-15862913D02*
X10935063Y-15872436D01*
X10935063Y-15872436D02*
X10944586Y-15891484D01*
X10944586Y-15891484D02*
X10944586Y-15910532D01*
X10944586Y-15910532D02*
X10935063Y-15939103D01*
X10935063Y-15939103D02*
X10820777Y-16053389D01*
X10820777Y-16053389D02*
X10944586Y-16053389D01*
X11182682Y-16053389D02*
X11182682Y-15853389D01*
X11268396Y-16053389D02*
X11268396Y-15948627D01*
X11268396Y-15948627D02*
X11258872Y-15929579D01*
X11258872Y-15929579D02*
X11239825Y-15920055D01*
X11239825Y-15920055D02*
X11211253Y-15920055D01*
X11211253Y-15920055D02*
X11192205Y-15929579D01*
X11192205Y-15929579D02*
X11182682Y-15939103D01*
X11392205Y-16053389D02*
X11373158Y-16043865D01*
X11373158Y-16043865D02*
X11363634Y-16034341D01*
X11363634Y-16034341D02*
X11354110Y-16015293D01*
X11354110Y-16015293D02*
X11354110Y-15958151D01*
X11354110Y-15958151D02*
X11363634Y-15939103D01*
X11363634Y-15939103D02*
X11373158Y-15929579D01*
X11373158Y-15929579D02*
X11392205Y-15920055D01*
X11392205Y-15920055D02*
X11420777Y-15920055D01*
X11420777Y-15920055D02*
X11439825Y-15929579D01*
X11439825Y-15929579D02*
X11449348Y-15939103D01*
X11449348Y-15939103D02*
X11458872Y-15958151D01*
X11458872Y-15958151D02*
X11458872Y-16015293D01*
X11458872Y-16015293D02*
X11449348Y-16034341D01*
X11449348Y-16034341D02*
X11439825Y-16043865D01*
X11439825Y-16043865D02*
X11420777Y-16053389D01*
X11420777Y-16053389D02*
X11392205Y-16053389D01*
X11573158Y-16053389D02*
X11554110Y-16043865D01*
X11554110Y-16043865D02*
X11544586Y-16024817D01*
X11544586Y-16024817D02*
X11544586Y-15853389D01*
X11725539Y-16043865D02*
X11706491Y-16053389D01*
X11706491Y-16053389D02*
X11668396Y-16053389D01*
X11668396Y-16053389D02*
X11649348Y-16043865D01*
X11649348Y-16043865D02*
X11639825Y-16024817D01*
X11639825Y-16024817D02*
X11639825Y-15948627D01*
X11639825Y-15948627D02*
X11649348Y-15929579D01*
X11649348Y-15929579D02*
X11668396Y-15920055D01*
X11668396Y-15920055D02*
X11706491Y-15920055D01*
X11706491Y-15920055D02*
X11725539Y-15929579D01*
X11725539Y-15929579D02*
X11735063Y-15948627D01*
X11735063Y-15948627D02*
X11735063Y-15967674D01*
X11735063Y-15967674D02*
X11639825Y-15986722D01*
X11811253Y-16043865D02*
X11830301Y-16053389D01*
X11830301Y-16053389D02*
X11868396Y-16053389D01*
X11868396Y-16053389D02*
X11887444Y-16043865D01*
X11887444Y-16043865D02*
X11896967Y-16024817D01*
X11896967Y-16024817D02*
X11896967Y-16015293D01*
X11896967Y-16015293D02*
X11887444Y-15996246D01*
X11887444Y-15996246D02*
X11868396Y-15986722D01*
X11868396Y-15986722D02*
X11839825Y-15986722D01*
X11839825Y-15986722D02*
X11820777Y-15977198D01*
X11820777Y-15977198D02*
X11811253Y-15958151D01*
X11811253Y-15958151D02*
X11811253Y-15948627D01*
X11811253Y-15948627D02*
X11820777Y-15929579D01*
X11820777Y-15929579D02*
X11839825Y-15920055D01*
X11839825Y-15920055D02*
X11868396Y-15920055D01*
X11868396Y-15920055D02*
X11887444Y-15929579D01*
X11963634Y-16129579D02*
X11973158Y-16120055D01*
X11973158Y-16120055D02*
X11992206Y-16091484D01*
X11992206Y-16091484D02*
X12001729Y-16072436D01*
X12001729Y-16072436D02*
X12011253Y-16043865D01*
X12011253Y-16043865D02*
X12020777Y-15996246D01*
X12020777Y-15996246D02*
X12020777Y-15958151D01*
X12020777Y-15958151D02*
X12011253Y-15910532D01*
X12011253Y-15910532D02*
X12001729Y-15881960D01*
X12001729Y-15881960D02*
X11992206Y-15862913D01*
X11992206Y-15862913D02*
X11973158Y-15834341D01*
X11973158Y-15834341D02*
X11963634Y-15824817D01*
M02*
