%TF.GenerationSoftware,KiCad,Pcbnew,8.0.6*%
%TF.CreationDate,2025-01-20T10:33:41+07:00*%
%TF.ProjectId,test_1,74657374-5f31-42e6-9b69-6361645f7063,rev?*%
%TF.SameCoordinates,Original*%
%TF.FileFunction,Drillmap*%
%TF.FilePolarity,Positive*%
%FSLAX45Y45*%
G04 Gerber Fmt 4.5, Leading zero omitted, Abs format (unit mm)*
G04 Created by KiCad (PCBNEW 8.0.6) date 2025-01-20 10:33:41*
%MOMM*%
%LPD*%
G01*
G04 APERTURE LIST*
%ADD10C,0.038100*%
%ADD11C,0.200000*%
G04 APERTURE END LIST*
D10*
X7000000Y-8000000D02*
X7000000Y-14000000D01*
X7000000Y-14000000D02*
X16000000Y-14000000D01*
X16000000Y-14000000D02*
X16000000Y-8000000D01*
X16000000Y-8000000D02*
X7000000Y-8000000D01*
D11*
X7258872Y-14313389D02*
X7258872Y-14113389D01*
X7258872Y-14113389D02*
X7306491Y-14113389D01*
X7306491Y-14113389D02*
X7335062Y-14122913D01*
X7335062Y-14122913D02*
X7354110Y-14141960D01*
X7354110Y-14141960D02*
X7363634Y-14161008D01*
X7363634Y-14161008D02*
X7373157Y-14199103D01*
X7373157Y-14199103D02*
X7373157Y-14227674D01*
X7373157Y-14227674D02*
X7363634Y-14265770D01*
X7363634Y-14265770D02*
X7354110Y-14284817D01*
X7354110Y-14284817D02*
X7335062Y-14303865D01*
X7335062Y-14303865D02*
X7306491Y-14313389D01*
X7306491Y-14313389D02*
X7258872Y-14313389D01*
X7458872Y-14313389D02*
X7458872Y-14180055D01*
X7458872Y-14218151D02*
X7468396Y-14199103D01*
X7468396Y-14199103D02*
X7477919Y-14189579D01*
X7477919Y-14189579D02*
X7496967Y-14180055D01*
X7496967Y-14180055D02*
X7516015Y-14180055D01*
X7582681Y-14313389D02*
X7582681Y-14180055D01*
X7582681Y-14113389D02*
X7573157Y-14122913D01*
X7573157Y-14122913D02*
X7582681Y-14132436D01*
X7582681Y-14132436D02*
X7592205Y-14122913D01*
X7592205Y-14122913D02*
X7582681Y-14113389D01*
X7582681Y-14113389D02*
X7582681Y-14132436D01*
X7706491Y-14313389D02*
X7687443Y-14303865D01*
X7687443Y-14303865D02*
X7677919Y-14284817D01*
X7677919Y-14284817D02*
X7677919Y-14113389D01*
X7811253Y-14313389D02*
X7792205Y-14303865D01*
X7792205Y-14303865D02*
X7782681Y-14284817D01*
X7782681Y-14284817D02*
X7782681Y-14113389D01*
X8039824Y-14313389D02*
X8039824Y-14113389D01*
X8039824Y-14113389D02*
X8106491Y-14256246D01*
X8106491Y-14256246D02*
X8173157Y-14113389D01*
X8173157Y-14113389D02*
X8173157Y-14313389D01*
X8354110Y-14313389D02*
X8354110Y-14208627D01*
X8354110Y-14208627D02*
X8344586Y-14189579D01*
X8344586Y-14189579D02*
X8325538Y-14180055D01*
X8325538Y-14180055D02*
X8287443Y-14180055D01*
X8287443Y-14180055D02*
X8268396Y-14189579D01*
X8354110Y-14303865D02*
X8335062Y-14313389D01*
X8335062Y-14313389D02*
X8287443Y-14313389D01*
X8287443Y-14313389D02*
X8268396Y-14303865D01*
X8268396Y-14303865D02*
X8258872Y-14284817D01*
X8258872Y-14284817D02*
X8258872Y-14265770D01*
X8258872Y-14265770D02*
X8268396Y-14246722D01*
X8268396Y-14246722D02*
X8287443Y-14237198D01*
X8287443Y-14237198D02*
X8335062Y-14237198D01*
X8335062Y-14237198D02*
X8354110Y-14227674D01*
X8449348Y-14180055D02*
X8449348Y-14380055D01*
X8449348Y-14189579D02*
X8468396Y-14180055D01*
X8468396Y-14180055D02*
X8506491Y-14180055D01*
X8506491Y-14180055D02*
X8525539Y-14189579D01*
X8525539Y-14189579D02*
X8535062Y-14199103D01*
X8535062Y-14199103D02*
X8544586Y-14218151D01*
X8544586Y-14218151D02*
X8544586Y-14275293D01*
X8544586Y-14275293D02*
X8535062Y-14294341D01*
X8535062Y-14294341D02*
X8525539Y-14303865D01*
X8525539Y-14303865D02*
X8506491Y-14313389D01*
X8506491Y-14313389D02*
X8468396Y-14313389D01*
X8468396Y-14313389D02*
X8449348Y-14303865D01*
X8630300Y-14294341D02*
X8639824Y-14303865D01*
X8639824Y-14303865D02*
X8630300Y-14313389D01*
X8630300Y-14313389D02*
X8620777Y-14303865D01*
X8620777Y-14303865D02*
X8630300Y-14294341D01*
X8630300Y-14294341D02*
X8630300Y-14313389D01*
X8630300Y-14189579D02*
X8639824Y-14199103D01*
X8639824Y-14199103D02*
X8630300Y-14208627D01*
X8630300Y-14208627D02*
X8620777Y-14199103D01*
X8620777Y-14199103D02*
X8630300Y-14189579D01*
X8630300Y-14189579D02*
X8630300Y-14208627D01*
M02*
