G04 #@! TF.GenerationSoftware,KiCad,Pcbnew,8.0.6*
G04 #@! TF.CreationDate,2025-01-20T10:34:49+07:00*
G04 #@! TF.ProjectId,test_1,74657374-5f31-42e6-9b69-6361645f7063,rev?*
G04 #@! TF.SameCoordinates,Original*
G04 #@! TF.FileFunction,Legend,Top*
G04 #@! TF.FilePolarity,Positive*
%FSLAX46Y46*%
G04 Gerber Fmt 4.6, Leading zero omitted, Abs format (unit mm)*
G04 Created by KiCad (PCBNEW 8.0.6) date 2025-01-20 10:34:49*
%MOMM*%
%LPD*%
G01*
G04 APERTURE LIST*
%ADD10C,0.300000*%
%ADD11C,0.152400*%
%ADD12C,0.150000*%
%ADD13C,0.100000*%
%ADD14C,0.120000*%
%ADD15C,2.000000*%
%ADD16C,1.600000*%
%ADD17O,1.600000X1.600000*%
%ADD18R,1.800000X1.800000*%
%ADD19C,1.800000*%
%ADD20R,1.600000X1.600000*%
%ADD21R,1.524000X1.524000*%
%ADD22C,1.524000*%
G04 APERTURE END LIST*
D10*
X100642857Y-131566215D02*
X100642857Y-129766215D01*
X100642857Y-129766215D02*
X101071428Y-129766215D01*
X101071428Y-129766215D02*
X101328571Y-129851929D01*
X101328571Y-129851929D02*
X101500000Y-130023358D01*
X101500000Y-130023358D02*
X101585714Y-130194786D01*
X101585714Y-130194786D02*
X101671428Y-130537643D01*
X101671428Y-130537643D02*
X101671428Y-130794786D01*
X101671428Y-130794786D02*
X101585714Y-131137643D01*
X101585714Y-131137643D02*
X101500000Y-131309072D01*
X101500000Y-131309072D02*
X101328571Y-131480501D01*
X101328571Y-131480501D02*
X101071428Y-131566215D01*
X101071428Y-131566215D02*
X100642857Y-131566215D01*
X102442857Y-131566215D02*
X102442857Y-129766215D01*
X103642857Y-130709072D02*
X103642857Y-131566215D01*
X103042857Y-129766215D02*
X103642857Y-130709072D01*
X103642857Y-130709072D02*
X104242857Y-129766215D01*
X99314286Y-134378400D02*
X99571429Y-134464114D01*
X99571429Y-134464114D02*
X100000000Y-134464114D01*
X100000000Y-134464114D02*
X100171429Y-134378400D01*
X100171429Y-134378400D02*
X100257143Y-134292685D01*
X100257143Y-134292685D02*
X100342857Y-134121257D01*
X100342857Y-134121257D02*
X100342857Y-133949828D01*
X100342857Y-133949828D02*
X100257143Y-133778400D01*
X100257143Y-133778400D02*
X100171429Y-133692685D01*
X100171429Y-133692685D02*
X100000000Y-133606971D01*
X100000000Y-133606971D02*
X99657143Y-133521257D01*
X99657143Y-133521257D02*
X99485714Y-133435542D01*
X99485714Y-133435542D02*
X99400000Y-133349828D01*
X99400000Y-133349828D02*
X99314286Y-133178400D01*
X99314286Y-133178400D02*
X99314286Y-133006971D01*
X99314286Y-133006971D02*
X99400000Y-132835542D01*
X99400000Y-132835542D02*
X99485714Y-132749828D01*
X99485714Y-132749828D02*
X99657143Y-132664114D01*
X99657143Y-132664114D02*
X100085714Y-132664114D01*
X100085714Y-132664114D02*
X100342857Y-132749828D01*
X100857143Y-132664114D02*
X101885715Y-132664114D01*
X101371429Y-134464114D02*
X101371429Y-132664114D01*
X102485715Y-132664114D02*
X102485715Y-134121257D01*
X102485715Y-134121257D02*
X102571429Y-134292685D01*
X102571429Y-134292685D02*
X102657144Y-134378400D01*
X102657144Y-134378400D02*
X102828572Y-134464114D01*
X102828572Y-134464114D02*
X103171429Y-134464114D01*
X103171429Y-134464114D02*
X103342858Y-134378400D01*
X103342858Y-134378400D02*
X103428572Y-134292685D01*
X103428572Y-134292685D02*
X103514286Y-134121257D01*
X103514286Y-134121257D02*
X103514286Y-132664114D01*
X104971429Y-133521257D02*
X104371429Y-133521257D01*
X104371429Y-134464114D02*
X104371429Y-132664114D01*
X104371429Y-132664114D02*
X105228572Y-132664114D01*
X106514286Y-133521257D02*
X105914286Y-133521257D01*
X105914286Y-134464114D02*
X105914286Y-132664114D01*
X105914286Y-132664114D02*
X106771429Y-132664114D01*
D11*
X136092603Y-126680460D02*
X136092603Y-127144917D01*
X136092603Y-126912689D02*
X135279803Y-126912689D01*
X135279803Y-126912689D02*
X135395918Y-126990098D01*
X135395918Y-126990098D02*
X135473327Y-127067508D01*
X135473327Y-127067508D02*
X135512032Y-127144917D01*
X135279803Y-126177299D02*
X135279803Y-126099889D01*
X135279803Y-126099889D02*
X135318508Y-126022480D01*
X135318508Y-126022480D02*
X135357213Y-125983775D01*
X135357213Y-125983775D02*
X135434622Y-125945070D01*
X135434622Y-125945070D02*
X135589441Y-125906365D01*
X135589441Y-125906365D02*
X135782965Y-125906365D01*
X135782965Y-125906365D02*
X135937784Y-125945070D01*
X135937784Y-125945070D02*
X136015194Y-125983775D01*
X136015194Y-125983775D02*
X136053899Y-126022480D01*
X136053899Y-126022480D02*
X136092603Y-126099889D01*
X136092603Y-126099889D02*
X136092603Y-126177299D01*
X136092603Y-126177299D02*
X136053899Y-126254708D01*
X136053899Y-126254708D02*
X136015194Y-126293413D01*
X136015194Y-126293413D02*
X135937784Y-126332118D01*
X135937784Y-126332118D02*
X135782965Y-126370822D01*
X135782965Y-126370822D02*
X135589441Y-126370822D01*
X135589441Y-126370822D02*
X135434622Y-126332118D01*
X135434622Y-126332118D02*
X135357213Y-126293413D01*
X135357213Y-126293413D02*
X135318508Y-126254708D01*
X135318508Y-126254708D02*
X135279803Y-126177299D01*
X135279803Y-125403204D02*
X135279803Y-125325794D01*
X135279803Y-125325794D02*
X135318508Y-125248385D01*
X135318508Y-125248385D02*
X135357213Y-125209680D01*
X135357213Y-125209680D02*
X135434622Y-125170975D01*
X135434622Y-125170975D02*
X135589441Y-125132270D01*
X135589441Y-125132270D02*
X135782965Y-125132270D01*
X135782965Y-125132270D02*
X135937784Y-125170975D01*
X135937784Y-125170975D02*
X136015194Y-125209680D01*
X136015194Y-125209680D02*
X136053899Y-125248385D01*
X136053899Y-125248385D02*
X136092603Y-125325794D01*
X136092603Y-125325794D02*
X136092603Y-125403204D01*
X136092603Y-125403204D02*
X136053899Y-125480613D01*
X136053899Y-125480613D02*
X136015194Y-125519318D01*
X136015194Y-125519318D02*
X135937784Y-125558023D01*
X135937784Y-125558023D02*
X135782965Y-125596727D01*
X135782965Y-125596727D02*
X135589441Y-125596727D01*
X135589441Y-125596727D02*
X135434622Y-125558023D01*
X135434622Y-125558023D02*
X135357213Y-125519318D01*
X135357213Y-125519318D02*
X135318508Y-125480613D01*
X135318508Y-125480613D02*
X135279803Y-125403204D01*
X135550737Y-124783928D02*
X136092603Y-124783928D01*
X135628146Y-124783928D02*
X135589441Y-124745223D01*
X135589441Y-124745223D02*
X135550737Y-124667813D01*
X135550737Y-124667813D02*
X135550737Y-124551699D01*
X135550737Y-124551699D02*
X135589441Y-124474290D01*
X135589441Y-124474290D02*
X135666851Y-124435585D01*
X135666851Y-124435585D02*
X136092603Y-124435585D01*
X142792603Y-125080460D02*
X142792603Y-125544917D01*
X142792603Y-125312689D02*
X141979803Y-125312689D01*
X141979803Y-125312689D02*
X142095918Y-125390098D01*
X142095918Y-125390098D02*
X142173327Y-125467508D01*
X142173327Y-125467508D02*
X142212032Y-125544917D01*
X142792603Y-124732118D02*
X141979803Y-124732118D01*
X142482965Y-124654708D02*
X142792603Y-124422480D01*
X142250737Y-124422480D02*
X142560375Y-124732118D01*
X136092603Y-115280460D02*
X136092603Y-115744917D01*
X136092603Y-115512689D02*
X135279803Y-115512689D01*
X135279803Y-115512689D02*
X135395918Y-115590098D01*
X135395918Y-115590098D02*
X135473327Y-115667508D01*
X135473327Y-115667508D02*
X135512032Y-115744917D01*
X135279803Y-114777299D02*
X135279803Y-114699889D01*
X135279803Y-114699889D02*
X135318508Y-114622480D01*
X135318508Y-114622480D02*
X135357213Y-114583775D01*
X135357213Y-114583775D02*
X135434622Y-114545070D01*
X135434622Y-114545070D02*
X135589441Y-114506365D01*
X135589441Y-114506365D02*
X135782965Y-114506365D01*
X135782965Y-114506365D02*
X135937784Y-114545070D01*
X135937784Y-114545070D02*
X136015194Y-114583775D01*
X136015194Y-114583775D02*
X136053899Y-114622480D01*
X136053899Y-114622480D02*
X136092603Y-114699889D01*
X136092603Y-114699889D02*
X136092603Y-114777299D01*
X136092603Y-114777299D02*
X136053899Y-114854708D01*
X136053899Y-114854708D02*
X136015194Y-114893413D01*
X136015194Y-114893413D02*
X135937784Y-114932118D01*
X135937784Y-114932118D02*
X135782965Y-114970822D01*
X135782965Y-114970822D02*
X135589441Y-114970822D01*
X135589441Y-114970822D02*
X135434622Y-114932118D01*
X135434622Y-114932118D02*
X135357213Y-114893413D01*
X135357213Y-114893413D02*
X135318508Y-114854708D01*
X135318508Y-114854708D02*
X135279803Y-114777299D01*
X135279803Y-114003204D02*
X135279803Y-113925794D01*
X135279803Y-113925794D02*
X135318508Y-113848385D01*
X135318508Y-113848385D02*
X135357213Y-113809680D01*
X135357213Y-113809680D02*
X135434622Y-113770975D01*
X135434622Y-113770975D02*
X135589441Y-113732270D01*
X135589441Y-113732270D02*
X135782965Y-113732270D01*
X135782965Y-113732270D02*
X135937784Y-113770975D01*
X135937784Y-113770975D02*
X136015194Y-113809680D01*
X136015194Y-113809680D02*
X136053899Y-113848385D01*
X136053899Y-113848385D02*
X136092603Y-113925794D01*
X136092603Y-113925794D02*
X136092603Y-114003204D01*
X136092603Y-114003204D02*
X136053899Y-114080613D01*
X136053899Y-114080613D02*
X136015194Y-114119318D01*
X136015194Y-114119318D02*
X135937784Y-114158023D01*
X135937784Y-114158023D02*
X135782965Y-114196727D01*
X135782965Y-114196727D02*
X135589441Y-114196727D01*
X135589441Y-114196727D02*
X135434622Y-114158023D01*
X135434622Y-114158023D02*
X135357213Y-114119318D01*
X135357213Y-114119318D02*
X135318508Y-114080613D01*
X135318508Y-114080613D02*
X135279803Y-114003204D01*
X135550737Y-113383928D02*
X136092603Y-113383928D01*
X135628146Y-113383928D02*
X135589441Y-113345223D01*
X135589441Y-113345223D02*
X135550737Y-113267813D01*
X135550737Y-113267813D02*
X135550737Y-113151699D01*
X135550737Y-113151699D02*
X135589441Y-113074290D01*
X135589441Y-113074290D02*
X135666851Y-113035585D01*
X135666851Y-113035585D02*
X136092603Y-113035585D01*
X142992603Y-113580460D02*
X142992603Y-114044917D01*
X142992603Y-113812689D02*
X142179803Y-113812689D01*
X142179803Y-113812689D02*
X142295918Y-113890098D01*
X142295918Y-113890098D02*
X142373327Y-113967508D01*
X142373327Y-113967508D02*
X142412032Y-114044917D01*
X142992603Y-113232118D02*
X142179803Y-113232118D01*
X142682965Y-113154708D02*
X142992603Y-112922480D01*
X142450737Y-112922480D02*
X142760375Y-113232118D01*
X142592603Y-100980460D02*
X142592603Y-101444917D01*
X142592603Y-101212689D02*
X141779803Y-101212689D01*
X141779803Y-101212689D02*
X141895918Y-101290098D01*
X141895918Y-101290098D02*
X141973327Y-101367508D01*
X141973327Y-101367508D02*
X142012032Y-101444917D01*
X142592603Y-100632118D02*
X141779803Y-100632118D01*
X142592603Y-100167661D02*
X142128146Y-100516003D01*
X141779803Y-100167661D02*
X142244260Y-100632118D01*
X136192603Y-102680460D02*
X136192603Y-103144917D01*
X136192603Y-102912689D02*
X135379803Y-102912689D01*
X135379803Y-102912689D02*
X135495918Y-102990098D01*
X135495918Y-102990098D02*
X135573327Y-103067508D01*
X135573327Y-103067508D02*
X135612032Y-103144917D01*
X135379803Y-102177299D02*
X135379803Y-102099889D01*
X135379803Y-102099889D02*
X135418508Y-102022480D01*
X135418508Y-102022480D02*
X135457213Y-101983775D01*
X135457213Y-101983775D02*
X135534622Y-101945070D01*
X135534622Y-101945070D02*
X135689441Y-101906365D01*
X135689441Y-101906365D02*
X135882965Y-101906365D01*
X135882965Y-101906365D02*
X136037784Y-101945070D01*
X136037784Y-101945070D02*
X136115194Y-101983775D01*
X136115194Y-101983775D02*
X136153899Y-102022480D01*
X136153899Y-102022480D02*
X136192603Y-102099889D01*
X136192603Y-102099889D02*
X136192603Y-102177299D01*
X136192603Y-102177299D02*
X136153899Y-102254708D01*
X136153899Y-102254708D02*
X136115194Y-102293413D01*
X136115194Y-102293413D02*
X136037784Y-102332118D01*
X136037784Y-102332118D02*
X135882965Y-102370822D01*
X135882965Y-102370822D02*
X135689441Y-102370822D01*
X135689441Y-102370822D02*
X135534622Y-102332118D01*
X135534622Y-102332118D02*
X135457213Y-102293413D01*
X135457213Y-102293413D02*
X135418508Y-102254708D01*
X135418508Y-102254708D02*
X135379803Y-102177299D01*
X135379803Y-101403204D02*
X135379803Y-101325794D01*
X135379803Y-101325794D02*
X135418508Y-101248385D01*
X135418508Y-101248385D02*
X135457213Y-101209680D01*
X135457213Y-101209680D02*
X135534622Y-101170975D01*
X135534622Y-101170975D02*
X135689441Y-101132270D01*
X135689441Y-101132270D02*
X135882965Y-101132270D01*
X135882965Y-101132270D02*
X136037784Y-101170975D01*
X136037784Y-101170975D02*
X136115194Y-101209680D01*
X136115194Y-101209680D02*
X136153899Y-101248385D01*
X136153899Y-101248385D02*
X136192603Y-101325794D01*
X136192603Y-101325794D02*
X136192603Y-101403204D01*
X136192603Y-101403204D02*
X136153899Y-101480613D01*
X136153899Y-101480613D02*
X136115194Y-101519318D01*
X136115194Y-101519318D02*
X136037784Y-101558023D01*
X136037784Y-101558023D02*
X135882965Y-101596727D01*
X135882965Y-101596727D02*
X135689441Y-101596727D01*
X135689441Y-101596727D02*
X135534622Y-101558023D01*
X135534622Y-101558023D02*
X135457213Y-101519318D01*
X135457213Y-101519318D02*
X135418508Y-101480613D01*
X135418508Y-101480613D02*
X135379803Y-101403204D01*
X135650737Y-100783928D02*
X136192603Y-100783928D01*
X135728146Y-100783928D02*
X135689441Y-100745223D01*
X135689441Y-100745223D02*
X135650737Y-100667813D01*
X135650737Y-100667813D02*
X135650737Y-100551699D01*
X135650737Y-100551699D02*
X135689441Y-100474290D01*
X135689441Y-100474290D02*
X135766851Y-100435585D01*
X135766851Y-100435585D02*
X136192603Y-100435585D01*
X138319539Y-89192603D02*
X137855082Y-89192603D01*
X138087310Y-89192603D02*
X138087310Y-88379803D01*
X138087310Y-88379803D02*
X138009901Y-88495918D01*
X138009901Y-88495918D02*
X137932491Y-88573327D01*
X137932491Y-88573327D02*
X137855082Y-88612032D01*
X138667881Y-89192603D02*
X138667881Y-88379803D01*
X139132338Y-89192603D02*
X138783996Y-88728146D01*
X139132338Y-88379803D02*
X138667881Y-88844260D01*
X81993786Y-133792603D02*
X81993786Y-132979803D01*
X81993786Y-132979803D02*
X82264720Y-133560375D01*
X82264720Y-133560375D02*
X82535653Y-132979803D01*
X82535653Y-132979803D02*
X82535653Y-133792603D01*
X82883996Y-133560375D02*
X83271043Y-133560375D01*
X82806586Y-133792603D02*
X83077519Y-132979803D01*
X83077519Y-132979803D02*
X83348453Y-133792603D01*
X83541977Y-132979803D02*
X84083843Y-133792603D01*
X84083843Y-132979803D02*
X83541977Y-133792603D01*
X84316072Y-132979803D02*
X84819234Y-132979803D01*
X84819234Y-132979803D02*
X84548300Y-133289441D01*
X84548300Y-133289441D02*
X84664415Y-133289441D01*
X84664415Y-133289441D02*
X84741824Y-133328146D01*
X84741824Y-133328146D02*
X84780529Y-133366851D01*
X84780529Y-133366851D02*
X84819234Y-133444260D01*
X84819234Y-133444260D02*
X84819234Y-133637784D01*
X84819234Y-133637784D02*
X84780529Y-133715194D01*
X84780529Y-133715194D02*
X84741824Y-133753899D01*
X84741824Y-133753899D02*
X84664415Y-133792603D01*
X84664415Y-133792603D02*
X84432186Y-133792603D01*
X84432186Y-133792603D02*
X84354777Y-133753899D01*
X84354777Y-133753899D02*
X84316072Y-133715194D01*
X85322395Y-132979803D02*
X85399805Y-132979803D01*
X85399805Y-132979803D02*
X85477214Y-133018508D01*
X85477214Y-133018508D02*
X85515919Y-133057213D01*
X85515919Y-133057213D02*
X85554624Y-133134622D01*
X85554624Y-133134622D02*
X85593329Y-133289441D01*
X85593329Y-133289441D02*
X85593329Y-133482965D01*
X85593329Y-133482965D02*
X85554624Y-133637784D01*
X85554624Y-133637784D02*
X85515919Y-133715194D01*
X85515919Y-133715194D02*
X85477214Y-133753899D01*
X85477214Y-133753899D02*
X85399805Y-133792603D01*
X85399805Y-133792603D02*
X85322395Y-133792603D01*
X85322395Y-133792603D02*
X85244986Y-133753899D01*
X85244986Y-133753899D02*
X85206281Y-133715194D01*
X85206281Y-133715194D02*
X85167576Y-133637784D01*
X85167576Y-133637784D02*
X85128872Y-133482965D01*
X85128872Y-133482965D02*
X85128872Y-133289441D01*
X85128872Y-133289441D02*
X85167576Y-133134622D01*
X85167576Y-133134622D02*
X85206281Y-133057213D01*
X85206281Y-133057213D02*
X85244986Y-133018508D01*
X85244986Y-133018508D02*
X85322395Y-132979803D01*
X86367424Y-133792603D02*
X85902967Y-133792603D01*
X86135195Y-133792603D02*
X86135195Y-132979803D01*
X86135195Y-132979803D02*
X86057786Y-133095918D01*
X86057786Y-133095918D02*
X85980376Y-133173327D01*
X85980376Y-133173327D02*
X85902967Y-133212032D01*
X86870585Y-132979803D02*
X86947995Y-132979803D01*
X86947995Y-132979803D02*
X87025404Y-133018508D01*
X87025404Y-133018508D02*
X87064109Y-133057213D01*
X87064109Y-133057213D02*
X87102814Y-133134622D01*
X87102814Y-133134622D02*
X87141519Y-133289441D01*
X87141519Y-133289441D02*
X87141519Y-133482965D01*
X87141519Y-133482965D02*
X87102814Y-133637784D01*
X87102814Y-133637784D02*
X87064109Y-133715194D01*
X87064109Y-133715194D02*
X87025404Y-133753899D01*
X87025404Y-133753899D02*
X86947995Y-133792603D01*
X86947995Y-133792603D02*
X86870585Y-133792603D01*
X86870585Y-133792603D02*
X86793176Y-133753899D01*
X86793176Y-133753899D02*
X86754471Y-133715194D01*
X86754471Y-133715194D02*
X86715766Y-133637784D01*
X86715766Y-133637784D02*
X86677062Y-133482965D01*
X86677062Y-133482965D02*
X86677062Y-133289441D01*
X86677062Y-133289441D02*
X86715766Y-133134622D01*
X86715766Y-133134622D02*
X86754471Y-133057213D01*
X86754471Y-133057213D02*
X86793176Y-133018508D01*
X86793176Y-133018508D02*
X86870585Y-132979803D01*
X87451157Y-133057213D02*
X87489861Y-133018508D01*
X87489861Y-133018508D02*
X87567271Y-132979803D01*
X87567271Y-132979803D02*
X87760795Y-132979803D01*
X87760795Y-132979803D02*
X87838204Y-133018508D01*
X87838204Y-133018508D02*
X87876909Y-133057213D01*
X87876909Y-133057213D02*
X87915614Y-133134622D01*
X87915614Y-133134622D02*
X87915614Y-133212032D01*
X87915614Y-133212032D02*
X87876909Y-133328146D01*
X87876909Y-133328146D02*
X87412452Y-133792603D01*
X87412452Y-133792603D02*
X87915614Y-133792603D01*
X79355082Y-104953899D02*
X79471196Y-104992603D01*
X79471196Y-104992603D02*
X79664720Y-104992603D01*
X79664720Y-104992603D02*
X79742129Y-104953899D01*
X79742129Y-104953899D02*
X79780834Y-104915194D01*
X79780834Y-104915194D02*
X79819539Y-104837784D01*
X79819539Y-104837784D02*
X79819539Y-104760375D01*
X79819539Y-104760375D02*
X79780834Y-104682965D01*
X79780834Y-104682965D02*
X79742129Y-104644260D01*
X79742129Y-104644260D02*
X79664720Y-104605556D01*
X79664720Y-104605556D02*
X79509901Y-104566851D01*
X79509901Y-104566851D02*
X79432491Y-104528146D01*
X79432491Y-104528146D02*
X79393786Y-104489441D01*
X79393786Y-104489441D02*
X79355082Y-104412032D01*
X79355082Y-104412032D02*
X79355082Y-104334622D01*
X79355082Y-104334622D02*
X79393786Y-104257213D01*
X79393786Y-104257213D02*
X79432491Y-104218508D01*
X79432491Y-104218508D02*
X79509901Y-104179803D01*
X79509901Y-104179803D02*
X79703424Y-104179803D01*
X79703424Y-104179803D02*
X79819539Y-104218508D01*
X80129177Y-104953899D02*
X80245291Y-104992603D01*
X80245291Y-104992603D02*
X80438815Y-104992603D01*
X80438815Y-104992603D02*
X80516224Y-104953899D01*
X80516224Y-104953899D02*
X80554929Y-104915194D01*
X80554929Y-104915194D02*
X80593634Y-104837784D01*
X80593634Y-104837784D02*
X80593634Y-104760375D01*
X80593634Y-104760375D02*
X80554929Y-104682965D01*
X80554929Y-104682965D02*
X80516224Y-104644260D01*
X80516224Y-104644260D02*
X80438815Y-104605556D01*
X80438815Y-104605556D02*
X80283996Y-104566851D01*
X80283996Y-104566851D02*
X80206586Y-104528146D01*
X80206586Y-104528146D02*
X80167881Y-104489441D01*
X80167881Y-104489441D02*
X80129177Y-104412032D01*
X80129177Y-104412032D02*
X80129177Y-104334622D01*
X80129177Y-104334622D02*
X80167881Y-104257213D01*
X80167881Y-104257213D02*
X80206586Y-104218508D01*
X80206586Y-104218508D02*
X80283996Y-104179803D01*
X80283996Y-104179803D02*
X80477519Y-104179803D01*
X80477519Y-104179803D02*
X80593634Y-104218508D01*
X80941976Y-104992603D02*
X80941976Y-104179803D01*
X80941976Y-104179803D02*
X81135500Y-104179803D01*
X81135500Y-104179803D02*
X81251614Y-104218508D01*
X81251614Y-104218508D02*
X81329024Y-104295918D01*
X81329024Y-104295918D02*
X81367729Y-104373327D01*
X81367729Y-104373327D02*
X81406433Y-104528146D01*
X81406433Y-104528146D02*
X81406433Y-104644260D01*
X81406433Y-104644260D02*
X81367729Y-104799079D01*
X81367729Y-104799079D02*
X81329024Y-104876489D01*
X81329024Y-104876489D02*
X81251614Y-104953899D01*
X81251614Y-104953899D02*
X81135500Y-104992603D01*
X81135500Y-104992603D02*
X80941976Y-104992603D01*
X82180529Y-104992603D02*
X81716072Y-104992603D01*
X81948300Y-104992603D02*
X81948300Y-104179803D01*
X81948300Y-104179803D02*
X81870891Y-104295918D01*
X81870891Y-104295918D02*
X81793481Y-104373327D01*
X81793481Y-104373327D02*
X81716072Y-104412032D01*
X82451462Y-104179803D02*
X82954624Y-104179803D01*
X82954624Y-104179803D02*
X82683690Y-104489441D01*
X82683690Y-104489441D02*
X82799805Y-104489441D01*
X82799805Y-104489441D02*
X82877214Y-104528146D01*
X82877214Y-104528146D02*
X82915919Y-104566851D01*
X82915919Y-104566851D02*
X82954624Y-104644260D01*
X82954624Y-104644260D02*
X82954624Y-104837784D01*
X82954624Y-104837784D02*
X82915919Y-104915194D01*
X82915919Y-104915194D02*
X82877214Y-104953899D01*
X82877214Y-104953899D02*
X82799805Y-104992603D01*
X82799805Y-104992603D02*
X82567576Y-104992603D01*
X82567576Y-104992603D02*
X82490167Y-104953899D01*
X82490167Y-104953899D02*
X82451462Y-104915194D01*
X83457785Y-104179803D02*
X83535195Y-104179803D01*
X83535195Y-104179803D02*
X83612604Y-104218508D01*
X83612604Y-104218508D02*
X83651309Y-104257213D01*
X83651309Y-104257213D02*
X83690014Y-104334622D01*
X83690014Y-104334622D02*
X83728719Y-104489441D01*
X83728719Y-104489441D02*
X83728719Y-104682965D01*
X83728719Y-104682965D02*
X83690014Y-104837784D01*
X83690014Y-104837784D02*
X83651309Y-104915194D01*
X83651309Y-104915194D02*
X83612604Y-104953899D01*
X83612604Y-104953899D02*
X83535195Y-104992603D01*
X83535195Y-104992603D02*
X83457785Y-104992603D01*
X83457785Y-104992603D02*
X83380376Y-104953899D01*
X83380376Y-104953899D02*
X83341671Y-104915194D01*
X83341671Y-104915194D02*
X83302966Y-104837784D01*
X83302966Y-104837784D02*
X83264262Y-104682965D01*
X83264262Y-104682965D02*
X83264262Y-104489441D01*
X83264262Y-104489441D02*
X83302966Y-104334622D01*
X83302966Y-104334622D02*
X83341671Y-104257213D01*
X83341671Y-104257213D02*
X83380376Y-104218508D01*
X83380376Y-104218508D02*
X83457785Y-104179803D01*
X84425404Y-104179803D02*
X84270585Y-104179803D01*
X84270585Y-104179803D02*
X84193176Y-104218508D01*
X84193176Y-104218508D02*
X84154471Y-104257213D01*
X84154471Y-104257213D02*
X84077061Y-104373327D01*
X84077061Y-104373327D02*
X84038357Y-104528146D01*
X84038357Y-104528146D02*
X84038357Y-104837784D01*
X84038357Y-104837784D02*
X84077061Y-104915194D01*
X84077061Y-104915194D02*
X84115766Y-104953899D01*
X84115766Y-104953899D02*
X84193176Y-104992603D01*
X84193176Y-104992603D02*
X84347995Y-104992603D01*
X84347995Y-104992603D02*
X84425404Y-104953899D01*
X84425404Y-104953899D02*
X84464109Y-104915194D01*
X84464109Y-104915194D02*
X84502814Y-104837784D01*
X84502814Y-104837784D02*
X84502814Y-104644260D01*
X84502814Y-104644260D02*
X84464109Y-104566851D01*
X84464109Y-104566851D02*
X84425404Y-104528146D01*
X84425404Y-104528146D02*
X84347995Y-104489441D01*
X84347995Y-104489441D02*
X84193176Y-104489441D01*
X84193176Y-104489441D02*
X84115766Y-104528146D01*
X84115766Y-104528146D02*
X84077061Y-104566851D01*
X84077061Y-104566851D02*
X84038357Y-104644260D01*
X85625251Y-104179803D02*
X85780070Y-104179803D01*
X85780070Y-104179803D02*
X85857480Y-104218508D01*
X85857480Y-104218508D02*
X85934889Y-104295918D01*
X85934889Y-104295918D02*
X85973594Y-104450737D01*
X85973594Y-104450737D02*
X85973594Y-104721670D01*
X85973594Y-104721670D02*
X85934889Y-104876489D01*
X85934889Y-104876489D02*
X85857480Y-104953899D01*
X85857480Y-104953899D02*
X85780070Y-104992603D01*
X85780070Y-104992603D02*
X85625251Y-104992603D01*
X85625251Y-104992603D02*
X85547842Y-104953899D01*
X85547842Y-104953899D02*
X85470432Y-104876489D01*
X85470432Y-104876489D02*
X85431728Y-104721670D01*
X85431728Y-104721670D02*
X85431728Y-104450737D01*
X85431728Y-104450737D02*
X85470432Y-104295918D01*
X85470432Y-104295918D02*
X85547842Y-104218508D01*
X85547842Y-104218508D02*
X85625251Y-104179803D01*
X86708985Y-104992603D02*
X86321937Y-104992603D01*
X86321937Y-104992603D02*
X86321937Y-104179803D01*
X86979918Y-104566851D02*
X87250852Y-104566851D01*
X87366966Y-104992603D02*
X86979918Y-104992603D01*
X86979918Y-104992603D02*
X86979918Y-104179803D01*
X86979918Y-104179803D02*
X87366966Y-104179803D01*
X87715308Y-104992603D02*
X87715308Y-104179803D01*
X87715308Y-104179803D02*
X87908832Y-104179803D01*
X87908832Y-104179803D02*
X88024946Y-104218508D01*
X88024946Y-104218508D02*
X88102356Y-104295918D01*
X88102356Y-104295918D02*
X88141061Y-104373327D01*
X88141061Y-104373327D02*
X88179765Y-104528146D01*
X88179765Y-104528146D02*
X88179765Y-104644260D01*
X88179765Y-104644260D02*
X88141061Y-104799079D01*
X88141061Y-104799079D02*
X88102356Y-104876489D01*
X88102356Y-104876489D02*
X88024946Y-104953899D01*
X88024946Y-104953899D02*
X87908832Y-104992603D01*
X87908832Y-104992603D02*
X87715308Y-104992603D01*
X117555082Y-109760375D02*
X117942129Y-109760375D01*
X117477672Y-109992603D02*
X117748605Y-109179803D01*
X117748605Y-109179803D02*
X118019539Y-109992603D01*
X118754929Y-109992603D02*
X118483996Y-109605556D01*
X118290472Y-109992603D02*
X118290472Y-109179803D01*
X118290472Y-109179803D02*
X118600110Y-109179803D01*
X118600110Y-109179803D02*
X118677520Y-109218508D01*
X118677520Y-109218508D02*
X118716225Y-109257213D01*
X118716225Y-109257213D02*
X118754929Y-109334622D01*
X118754929Y-109334622D02*
X118754929Y-109450737D01*
X118754929Y-109450737D02*
X118716225Y-109528146D01*
X118716225Y-109528146D02*
X118677520Y-109566851D01*
X118677520Y-109566851D02*
X118600110Y-109605556D01*
X118600110Y-109605556D02*
X118290472Y-109605556D01*
X119103272Y-109992603D02*
X119103272Y-109179803D01*
X119103272Y-109179803D02*
X119296796Y-109179803D01*
X119296796Y-109179803D02*
X119412910Y-109218508D01*
X119412910Y-109218508D02*
X119490320Y-109295918D01*
X119490320Y-109295918D02*
X119529025Y-109373327D01*
X119529025Y-109373327D02*
X119567729Y-109528146D01*
X119567729Y-109528146D02*
X119567729Y-109644260D01*
X119567729Y-109644260D02*
X119529025Y-109799079D01*
X119529025Y-109799079D02*
X119490320Y-109876489D01*
X119490320Y-109876489D02*
X119412910Y-109953899D01*
X119412910Y-109953899D02*
X119296796Y-109992603D01*
X119296796Y-109992603D02*
X119103272Y-109992603D01*
X119916072Y-109179803D02*
X119916072Y-109837784D01*
X119916072Y-109837784D02*
X119954777Y-109915194D01*
X119954777Y-109915194D02*
X119993482Y-109953899D01*
X119993482Y-109953899D02*
X120070891Y-109992603D01*
X120070891Y-109992603D02*
X120225710Y-109992603D01*
X120225710Y-109992603D02*
X120303120Y-109953899D01*
X120303120Y-109953899D02*
X120341825Y-109915194D01*
X120341825Y-109915194D02*
X120380529Y-109837784D01*
X120380529Y-109837784D02*
X120380529Y-109179803D01*
X120767577Y-109992603D02*
X120767577Y-109179803D01*
X121154625Y-109992603D02*
X121154625Y-109179803D01*
X121154625Y-109179803D02*
X121619082Y-109992603D01*
X121619082Y-109992603D02*
X121619082Y-109179803D01*
X122160949Y-109179803D02*
X122315768Y-109179803D01*
X122315768Y-109179803D02*
X122393178Y-109218508D01*
X122393178Y-109218508D02*
X122470587Y-109295918D01*
X122470587Y-109295918D02*
X122509292Y-109450737D01*
X122509292Y-109450737D02*
X122509292Y-109721670D01*
X122509292Y-109721670D02*
X122470587Y-109876489D01*
X122470587Y-109876489D02*
X122393178Y-109953899D01*
X122393178Y-109953899D02*
X122315768Y-109992603D01*
X122315768Y-109992603D02*
X122160949Y-109992603D01*
X122160949Y-109992603D02*
X122083540Y-109953899D01*
X122083540Y-109953899D02*
X122006130Y-109876489D01*
X122006130Y-109876489D02*
X121967426Y-109721670D01*
X121967426Y-109721670D02*
X121967426Y-109450737D01*
X121967426Y-109450737D02*
X122006130Y-109295918D01*
X122006130Y-109295918D02*
X122083540Y-109218508D01*
X122083540Y-109218508D02*
X122160949Y-109179803D01*
X123476911Y-109992603D02*
X123476911Y-109179803D01*
X123476911Y-109179803D02*
X123941368Y-109992603D01*
X123941368Y-109992603D02*
X123941368Y-109179803D01*
X124289712Y-109760375D02*
X124676759Y-109760375D01*
X124212302Y-109992603D02*
X124483235Y-109179803D01*
X124483235Y-109179803D02*
X124754169Y-109992603D01*
X125025102Y-109992603D02*
X125025102Y-109179803D01*
X125025102Y-109179803D02*
X125489559Y-109992603D01*
X125489559Y-109992603D02*
X125489559Y-109179803D01*
X126031426Y-109179803D02*
X126186245Y-109179803D01*
X126186245Y-109179803D02*
X126263655Y-109218508D01*
X126263655Y-109218508D02*
X126341064Y-109295918D01*
X126341064Y-109295918D02*
X126379769Y-109450737D01*
X126379769Y-109450737D02*
X126379769Y-109721670D01*
X126379769Y-109721670D02*
X126341064Y-109876489D01*
X126341064Y-109876489D02*
X126263655Y-109953899D01*
X126263655Y-109953899D02*
X126186245Y-109992603D01*
X126186245Y-109992603D02*
X126031426Y-109992603D01*
X126031426Y-109992603D02*
X125954017Y-109953899D01*
X125954017Y-109953899D02*
X125876607Y-109876489D01*
X125876607Y-109876489D02*
X125837903Y-109721670D01*
X125837903Y-109721670D02*
X125837903Y-109450737D01*
X125837903Y-109450737D02*
X125876607Y-109295918D01*
X125876607Y-109295918D02*
X125954017Y-109218508D01*
X125954017Y-109218508D02*
X126031426Y-109179803D01*
D12*
X150904286Y-107944819D02*
X150904286Y-108754342D01*
X150904286Y-108754342D02*
X150951905Y-108849580D01*
X150951905Y-108849580D02*
X150999524Y-108897200D01*
X150999524Y-108897200D02*
X151094762Y-108944819D01*
X151094762Y-108944819D02*
X151285238Y-108944819D01*
X151285238Y-108944819D02*
X151380476Y-108897200D01*
X151380476Y-108897200D02*
X151428095Y-108849580D01*
X151428095Y-108849580D02*
X151475714Y-108754342D01*
X151475714Y-108754342D02*
X151475714Y-107944819D01*
X151951905Y-108944819D02*
X151951905Y-107944819D01*
X151951905Y-107944819D02*
X152332857Y-107944819D01*
X152332857Y-107944819D02*
X152428095Y-107992438D01*
X152428095Y-107992438D02*
X152475714Y-108040057D01*
X152475714Y-108040057D02*
X152523333Y-108135295D01*
X152523333Y-108135295D02*
X152523333Y-108278152D01*
X152523333Y-108278152D02*
X152475714Y-108373390D01*
X152475714Y-108373390D02*
X152428095Y-108421009D01*
X152428095Y-108421009D02*
X152332857Y-108468628D01*
X152332857Y-108468628D02*
X151951905Y-108468628D01*
X149296667Y-96534819D02*
X149296667Y-95534819D01*
X149296667Y-95534819D02*
X149630000Y-96249104D01*
X149630000Y-96249104D02*
X149963333Y-95534819D01*
X149963333Y-95534819D02*
X149963333Y-96534819D01*
X150439524Y-96011009D02*
X150772857Y-96011009D01*
X150915714Y-96534819D02*
X150439524Y-96534819D01*
X150439524Y-96534819D02*
X150439524Y-95534819D01*
X150439524Y-95534819D02*
X150915714Y-95534819D01*
X151344286Y-96534819D02*
X151344286Y-95534819D01*
X151344286Y-95534819D02*
X151915714Y-96534819D01*
X151915714Y-96534819D02*
X151915714Y-95534819D01*
X152391905Y-95534819D02*
X152391905Y-96344342D01*
X152391905Y-96344342D02*
X152439524Y-96439580D01*
X152439524Y-96439580D02*
X152487143Y-96487200D01*
X152487143Y-96487200D02*
X152582381Y-96534819D01*
X152582381Y-96534819D02*
X152772857Y-96534819D01*
X152772857Y-96534819D02*
X152868095Y-96487200D01*
X152868095Y-96487200D02*
X152915714Y-96439580D01*
X152915714Y-96439580D02*
X152963333Y-96344342D01*
X152963333Y-96344342D02*
X152963333Y-95534819D01*
X138263333Y-86984819D02*
X137930000Y-86508628D01*
X137691905Y-86984819D02*
X137691905Y-85984819D01*
X137691905Y-85984819D02*
X138072857Y-85984819D01*
X138072857Y-85984819D02*
X138168095Y-86032438D01*
X138168095Y-86032438D02*
X138215714Y-86080057D01*
X138215714Y-86080057D02*
X138263333Y-86175295D01*
X138263333Y-86175295D02*
X138263333Y-86318152D01*
X138263333Y-86318152D02*
X138215714Y-86413390D01*
X138215714Y-86413390D02*
X138168095Y-86461009D01*
X138168095Y-86461009D02*
X138072857Y-86508628D01*
X138072857Y-86508628D02*
X137691905Y-86508628D01*
X139120476Y-86318152D02*
X139120476Y-86984819D01*
X138882381Y-85937200D02*
X138644286Y-86651485D01*
X138644286Y-86651485D02*
X139263333Y-86651485D01*
X145424819Y-113676666D02*
X144948628Y-114009999D01*
X145424819Y-114248094D02*
X144424819Y-114248094D01*
X144424819Y-114248094D02*
X144424819Y-113867142D01*
X144424819Y-113867142D02*
X144472438Y-113771904D01*
X144472438Y-113771904D02*
X144520057Y-113724285D01*
X144520057Y-113724285D02*
X144615295Y-113676666D01*
X144615295Y-113676666D02*
X144758152Y-113676666D01*
X144758152Y-113676666D02*
X144853390Y-113724285D01*
X144853390Y-113724285D02*
X144901009Y-113771904D01*
X144901009Y-113771904D02*
X144948628Y-113867142D01*
X144948628Y-113867142D02*
X144948628Y-114248094D01*
X144520057Y-113295713D02*
X144472438Y-113248094D01*
X144472438Y-113248094D02*
X144424819Y-113152856D01*
X144424819Y-113152856D02*
X144424819Y-112914761D01*
X144424819Y-112914761D02*
X144472438Y-112819523D01*
X144472438Y-112819523D02*
X144520057Y-112771904D01*
X144520057Y-112771904D02*
X144615295Y-112724285D01*
X144615295Y-112724285D02*
X144710533Y-112724285D01*
X144710533Y-112724285D02*
X144853390Y-112771904D01*
X144853390Y-112771904D02*
X145424819Y-113343332D01*
X145424819Y-113343332D02*
X145424819Y-112724285D01*
X146447143Y-93029104D02*
X146923333Y-93029104D01*
X146351905Y-93314819D02*
X146685238Y-92314819D01*
X146685238Y-92314819D02*
X147018571Y-93314819D01*
X147828095Y-93314819D02*
X147351905Y-93314819D01*
X147351905Y-93314819D02*
X147351905Y-92314819D01*
X148113810Y-93029104D02*
X148590000Y-93029104D01*
X148018572Y-93314819D02*
X148351905Y-92314819D01*
X148351905Y-92314819D02*
X148685238Y-93314819D01*
X149590000Y-93314819D02*
X149256667Y-92838628D01*
X149018572Y-93314819D02*
X149018572Y-92314819D01*
X149018572Y-92314819D02*
X149399524Y-92314819D01*
X149399524Y-92314819D02*
X149494762Y-92362438D01*
X149494762Y-92362438D02*
X149542381Y-92410057D01*
X149542381Y-92410057D02*
X149590000Y-92505295D01*
X149590000Y-92505295D02*
X149590000Y-92648152D01*
X149590000Y-92648152D02*
X149542381Y-92743390D01*
X149542381Y-92743390D02*
X149494762Y-92791009D01*
X149494762Y-92791009D02*
X149399524Y-92838628D01*
X149399524Y-92838628D02*
X149018572Y-92838628D01*
X150018572Y-93314819D02*
X150018572Y-92314819D01*
X150018572Y-92314819D02*
X150351905Y-93029104D01*
X150351905Y-93029104D02*
X150685238Y-92314819D01*
X150685238Y-92314819D02*
X150685238Y-93314819D01*
X145224819Y-125076666D02*
X144748628Y-125409999D01*
X145224819Y-125648094D02*
X144224819Y-125648094D01*
X144224819Y-125648094D02*
X144224819Y-125267142D01*
X144224819Y-125267142D02*
X144272438Y-125171904D01*
X144272438Y-125171904D02*
X144320057Y-125124285D01*
X144320057Y-125124285D02*
X144415295Y-125076666D01*
X144415295Y-125076666D02*
X144558152Y-125076666D01*
X144558152Y-125076666D02*
X144653390Y-125124285D01*
X144653390Y-125124285D02*
X144701009Y-125171904D01*
X144701009Y-125171904D02*
X144748628Y-125267142D01*
X144748628Y-125267142D02*
X144748628Y-125648094D01*
X144224819Y-124743332D02*
X144224819Y-124124285D01*
X144224819Y-124124285D02*
X144605771Y-124457618D01*
X144605771Y-124457618D02*
X144605771Y-124314761D01*
X144605771Y-124314761D02*
X144653390Y-124219523D01*
X144653390Y-124219523D02*
X144701009Y-124171904D01*
X144701009Y-124171904D02*
X144796247Y-124124285D01*
X144796247Y-124124285D02*
X145034342Y-124124285D01*
X145034342Y-124124285D02*
X145129580Y-124171904D01*
X145129580Y-124171904D02*
X145177200Y-124219523D01*
X145177200Y-124219523D02*
X145224819Y-124314761D01*
X145224819Y-124314761D02*
X145224819Y-124600475D01*
X145224819Y-124600475D02*
X145177200Y-124695713D01*
X145177200Y-124695713D02*
X145129580Y-124743332D01*
X133749580Y-125966666D02*
X133797200Y-126014285D01*
X133797200Y-126014285D02*
X133844819Y-126157142D01*
X133844819Y-126157142D02*
X133844819Y-126252380D01*
X133844819Y-126252380D02*
X133797200Y-126395237D01*
X133797200Y-126395237D02*
X133701961Y-126490475D01*
X133701961Y-126490475D02*
X133606723Y-126538094D01*
X133606723Y-126538094D02*
X133416247Y-126585713D01*
X133416247Y-126585713D02*
X133273390Y-126585713D01*
X133273390Y-126585713D02*
X133082914Y-126538094D01*
X133082914Y-126538094D02*
X132987676Y-126490475D01*
X132987676Y-126490475D02*
X132892438Y-126395237D01*
X132892438Y-126395237D02*
X132844819Y-126252380D01*
X132844819Y-126252380D02*
X132844819Y-126157142D01*
X132844819Y-126157142D02*
X132892438Y-126014285D01*
X132892438Y-126014285D02*
X132940057Y-125966666D01*
X132844819Y-125633332D02*
X132844819Y-125014285D01*
X132844819Y-125014285D02*
X133225771Y-125347618D01*
X133225771Y-125347618D02*
X133225771Y-125204761D01*
X133225771Y-125204761D02*
X133273390Y-125109523D01*
X133273390Y-125109523D02*
X133321009Y-125061904D01*
X133321009Y-125061904D02*
X133416247Y-125014285D01*
X133416247Y-125014285D02*
X133654342Y-125014285D01*
X133654342Y-125014285D02*
X133749580Y-125061904D01*
X133749580Y-125061904D02*
X133797200Y-125109523D01*
X133797200Y-125109523D02*
X133844819Y-125204761D01*
X133844819Y-125204761D02*
X133844819Y-125490475D01*
X133844819Y-125490475D02*
X133797200Y-125585713D01*
X133797200Y-125585713D02*
X133749580Y-125633332D01*
X119935714Y-133519104D02*
X120411904Y-133519104D01*
X119840476Y-133804819D02*
X120173809Y-132804819D01*
X120173809Y-132804819D02*
X120507142Y-133804819D01*
X121364285Y-133804819D02*
X120792857Y-133804819D01*
X121078571Y-133804819D02*
X121078571Y-132804819D01*
X121078571Y-132804819D02*
X120983333Y-132947676D01*
X120983333Y-132947676D02*
X120888095Y-133042914D01*
X120888095Y-133042914D02*
X120792857Y-133090533D01*
X121911904Y-93255180D02*
X121911904Y-92445657D01*
X121911904Y-92445657D02*
X121864285Y-92350419D01*
X121864285Y-92350419D02*
X121816666Y-92302800D01*
X121816666Y-92302800D02*
X121721428Y-92255180D01*
X121721428Y-92255180D02*
X121530952Y-92255180D01*
X121530952Y-92255180D02*
X121435714Y-92302800D01*
X121435714Y-92302800D02*
X121388095Y-92350419D01*
X121388095Y-92350419D02*
X121340476Y-92445657D01*
X121340476Y-92445657D02*
X121340476Y-93255180D01*
X120911904Y-92302800D02*
X120769047Y-92255180D01*
X120769047Y-92255180D02*
X120530952Y-92255180D01*
X120530952Y-92255180D02*
X120435714Y-92302800D01*
X120435714Y-92302800D02*
X120388095Y-92350419D01*
X120388095Y-92350419D02*
X120340476Y-92445657D01*
X120340476Y-92445657D02*
X120340476Y-92540895D01*
X120340476Y-92540895D02*
X120388095Y-92636133D01*
X120388095Y-92636133D02*
X120435714Y-92683752D01*
X120435714Y-92683752D02*
X120530952Y-92731371D01*
X120530952Y-92731371D02*
X120721428Y-92778990D01*
X120721428Y-92778990D02*
X120816666Y-92826609D01*
X120816666Y-92826609D02*
X120864285Y-92874228D01*
X120864285Y-92874228D02*
X120911904Y-92969466D01*
X120911904Y-92969466D02*
X120911904Y-93064704D01*
X120911904Y-93064704D02*
X120864285Y-93159942D01*
X120864285Y-93159942D02*
X120816666Y-93207561D01*
X120816666Y-93207561D02*
X120721428Y-93255180D01*
X120721428Y-93255180D02*
X120483333Y-93255180D01*
X120483333Y-93255180D02*
X120340476Y-93207561D01*
X119578571Y-92778990D02*
X119435714Y-92731371D01*
X119435714Y-92731371D02*
X119388095Y-92683752D01*
X119388095Y-92683752D02*
X119340476Y-92588514D01*
X119340476Y-92588514D02*
X119340476Y-92445657D01*
X119340476Y-92445657D02*
X119388095Y-92350419D01*
X119388095Y-92350419D02*
X119435714Y-92302800D01*
X119435714Y-92302800D02*
X119530952Y-92255180D01*
X119530952Y-92255180D02*
X119911904Y-92255180D01*
X119911904Y-92255180D02*
X119911904Y-93255180D01*
X119911904Y-93255180D02*
X119578571Y-93255180D01*
X119578571Y-93255180D02*
X119483333Y-93207561D01*
X119483333Y-93207561D02*
X119435714Y-93159942D01*
X119435714Y-93159942D02*
X119388095Y-93064704D01*
X119388095Y-93064704D02*
X119388095Y-92969466D01*
X119388095Y-92969466D02*
X119435714Y-92874228D01*
X119435714Y-92874228D02*
X119483333Y-92826609D01*
X119483333Y-92826609D02*
X119578571Y-92778990D01*
X119578571Y-92778990D02*
X119911904Y-92778990D01*
X133659580Y-101766666D02*
X133707200Y-101814285D01*
X133707200Y-101814285D02*
X133754819Y-101957142D01*
X133754819Y-101957142D02*
X133754819Y-102052380D01*
X133754819Y-102052380D02*
X133707200Y-102195237D01*
X133707200Y-102195237D02*
X133611961Y-102290475D01*
X133611961Y-102290475D02*
X133516723Y-102338094D01*
X133516723Y-102338094D02*
X133326247Y-102385713D01*
X133326247Y-102385713D02*
X133183390Y-102385713D01*
X133183390Y-102385713D02*
X132992914Y-102338094D01*
X132992914Y-102338094D02*
X132897676Y-102290475D01*
X132897676Y-102290475D02*
X132802438Y-102195237D01*
X132802438Y-102195237D02*
X132754819Y-102052380D01*
X132754819Y-102052380D02*
X132754819Y-101957142D01*
X132754819Y-101957142D02*
X132802438Y-101814285D01*
X132802438Y-101814285D02*
X132850057Y-101766666D01*
X133754819Y-100814285D02*
X133754819Y-101385713D01*
X133754819Y-101099999D02*
X132754819Y-101099999D01*
X132754819Y-101099999D02*
X132897676Y-101195237D01*
X132897676Y-101195237D02*
X132992914Y-101290475D01*
X132992914Y-101290475D02*
X133040533Y-101385713D01*
X133749580Y-114566666D02*
X133797200Y-114614285D01*
X133797200Y-114614285D02*
X133844819Y-114757142D01*
X133844819Y-114757142D02*
X133844819Y-114852380D01*
X133844819Y-114852380D02*
X133797200Y-114995237D01*
X133797200Y-114995237D02*
X133701961Y-115090475D01*
X133701961Y-115090475D02*
X133606723Y-115138094D01*
X133606723Y-115138094D02*
X133416247Y-115185713D01*
X133416247Y-115185713D02*
X133273390Y-115185713D01*
X133273390Y-115185713D02*
X133082914Y-115138094D01*
X133082914Y-115138094D02*
X132987676Y-115090475D01*
X132987676Y-115090475D02*
X132892438Y-114995237D01*
X132892438Y-114995237D02*
X132844819Y-114852380D01*
X132844819Y-114852380D02*
X132844819Y-114757142D01*
X132844819Y-114757142D02*
X132892438Y-114614285D01*
X132892438Y-114614285D02*
X132940057Y-114566666D01*
X132940057Y-114185713D02*
X132892438Y-114138094D01*
X132892438Y-114138094D02*
X132844819Y-114042856D01*
X132844819Y-114042856D02*
X132844819Y-113804761D01*
X132844819Y-113804761D02*
X132892438Y-113709523D01*
X132892438Y-113709523D02*
X132940057Y-113661904D01*
X132940057Y-113661904D02*
X133035295Y-113614285D01*
X133035295Y-113614285D02*
X133130533Y-113614285D01*
X133130533Y-113614285D02*
X133273390Y-113661904D01*
X133273390Y-113661904D02*
X133844819Y-114233332D01*
X133844819Y-114233332D02*
X133844819Y-113614285D01*
D13*
X89408095Y-137887419D02*
X89408095Y-138696942D01*
X89408095Y-138696942D02*
X89455714Y-138792180D01*
X89455714Y-138792180D02*
X89503333Y-138839800D01*
X89503333Y-138839800D02*
X89598571Y-138887419D01*
X89598571Y-138887419D02*
X89789047Y-138887419D01*
X89789047Y-138887419D02*
X89884285Y-138839800D01*
X89884285Y-138839800D02*
X89931904Y-138792180D01*
X89931904Y-138792180D02*
X89979523Y-138696942D01*
X89979523Y-138696942D02*
X89979523Y-137887419D01*
X90979523Y-138887419D02*
X90408095Y-138887419D01*
X90693809Y-138887419D02*
X90693809Y-137887419D01*
X90693809Y-137887419D02*
X90598571Y-138030276D01*
X90598571Y-138030276D02*
X90503333Y-138125514D01*
X90503333Y-138125514D02*
X90408095Y-138173133D01*
D12*
X84912200Y-130520839D02*
X84959819Y-130377982D01*
X84959819Y-130377982D02*
X84959819Y-130139887D01*
X84959819Y-130139887D02*
X84912200Y-130044649D01*
X84912200Y-130044649D02*
X84864580Y-129997030D01*
X84864580Y-129997030D02*
X84769342Y-129949411D01*
X84769342Y-129949411D02*
X84674104Y-129949411D01*
X84674104Y-129949411D02*
X84578866Y-129997030D01*
X84578866Y-129997030D02*
X84531247Y-130044649D01*
X84531247Y-130044649D02*
X84483628Y-130139887D01*
X84483628Y-130139887D02*
X84436009Y-130330363D01*
X84436009Y-130330363D02*
X84388390Y-130425601D01*
X84388390Y-130425601D02*
X84340771Y-130473220D01*
X84340771Y-130473220D02*
X84245533Y-130520839D01*
X84245533Y-130520839D02*
X84150295Y-130520839D01*
X84150295Y-130520839D02*
X84055057Y-130473220D01*
X84055057Y-130473220D02*
X84007438Y-130425601D01*
X84007438Y-130425601D02*
X83959819Y-130330363D01*
X83959819Y-130330363D02*
X83959819Y-130092268D01*
X83959819Y-130092268D02*
X84007438Y-129949411D01*
X84864580Y-128949411D02*
X84912200Y-128997030D01*
X84912200Y-128997030D02*
X84959819Y-129139887D01*
X84959819Y-129139887D02*
X84959819Y-129235125D01*
X84959819Y-129235125D02*
X84912200Y-129377982D01*
X84912200Y-129377982D02*
X84816961Y-129473220D01*
X84816961Y-129473220D02*
X84721723Y-129520839D01*
X84721723Y-129520839D02*
X84531247Y-129568458D01*
X84531247Y-129568458D02*
X84388390Y-129568458D01*
X84388390Y-129568458D02*
X84197914Y-129520839D01*
X84197914Y-129520839D02*
X84102676Y-129473220D01*
X84102676Y-129473220D02*
X84007438Y-129377982D01*
X84007438Y-129377982D02*
X83959819Y-129235125D01*
X83959819Y-129235125D02*
X83959819Y-129139887D01*
X83959819Y-129139887D02*
X84007438Y-128997030D01*
X84007438Y-128997030D02*
X84055057Y-128949411D01*
X84959819Y-128044649D02*
X84959819Y-128520839D01*
X84959819Y-128520839D02*
X83959819Y-128520839D01*
X79879819Y-130473220D02*
X78879819Y-130473220D01*
X79879819Y-129997030D02*
X78879819Y-129997030D01*
X78879819Y-129997030D02*
X79879819Y-129425602D01*
X79879819Y-129425602D02*
X78879819Y-129425602D01*
X78879819Y-129092268D02*
X78879819Y-128520840D01*
X79879819Y-128806554D02*
X78879819Y-128806554D01*
X86547438Y-129949411D02*
X86499819Y-130044649D01*
X86499819Y-130044649D02*
X86499819Y-130187506D01*
X86499819Y-130187506D02*
X86547438Y-130330363D01*
X86547438Y-130330363D02*
X86642676Y-130425601D01*
X86642676Y-130425601D02*
X86737914Y-130473220D01*
X86737914Y-130473220D02*
X86928390Y-130520839D01*
X86928390Y-130520839D02*
X87071247Y-130520839D01*
X87071247Y-130520839D02*
X87261723Y-130473220D01*
X87261723Y-130473220D02*
X87356961Y-130425601D01*
X87356961Y-130425601D02*
X87452200Y-130330363D01*
X87452200Y-130330363D02*
X87499819Y-130187506D01*
X87499819Y-130187506D02*
X87499819Y-130092268D01*
X87499819Y-130092268D02*
X87452200Y-129949411D01*
X87452200Y-129949411D02*
X87404580Y-129901792D01*
X87404580Y-129901792D02*
X87071247Y-129901792D01*
X87071247Y-129901792D02*
X87071247Y-130092268D01*
X87499819Y-129473220D02*
X86499819Y-129473220D01*
X86499819Y-129473220D02*
X87499819Y-128901792D01*
X87499819Y-128901792D02*
X86499819Y-128901792D01*
X87499819Y-128425601D02*
X86499819Y-128425601D01*
X86499819Y-128425601D02*
X86499819Y-128187506D01*
X86499819Y-128187506D02*
X86547438Y-128044649D01*
X86547438Y-128044649D02*
X86642676Y-127949411D01*
X86642676Y-127949411D02*
X86737914Y-127901792D01*
X86737914Y-127901792D02*
X86928390Y-127854173D01*
X86928390Y-127854173D02*
X87071247Y-127854173D01*
X87071247Y-127854173D02*
X87261723Y-127901792D01*
X87261723Y-127901792D02*
X87356961Y-127949411D01*
X87356961Y-127949411D02*
X87452200Y-128044649D01*
X87452200Y-128044649D02*
X87499819Y-128187506D01*
X87499819Y-128187506D02*
X87499819Y-128425601D01*
X82372200Y-130520839D02*
X82419819Y-130377982D01*
X82419819Y-130377982D02*
X82419819Y-130139887D01*
X82419819Y-130139887D02*
X82372200Y-130044649D01*
X82372200Y-130044649D02*
X82324580Y-129997030D01*
X82324580Y-129997030D02*
X82229342Y-129949411D01*
X82229342Y-129949411D02*
X82134104Y-129949411D01*
X82134104Y-129949411D02*
X82038866Y-129997030D01*
X82038866Y-129997030D02*
X81991247Y-130044649D01*
X81991247Y-130044649D02*
X81943628Y-130139887D01*
X81943628Y-130139887D02*
X81896009Y-130330363D01*
X81896009Y-130330363D02*
X81848390Y-130425601D01*
X81848390Y-130425601D02*
X81800771Y-130473220D01*
X81800771Y-130473220D02*
X81705533Y-130520839D01*
X81705533Y-130520839D02*
X81610295Y-130520839D01*
X81610295Y-130520839D02*
X81515057Y-130473220D01*
X81515057Y-130473220D02*
X81467438Y-130425601D01*
X81467438Y-130425601D02*
X81419819Y-130330363D01*
X81419819Y-130330363D02*
X81419819Y-130092268D01*
X81419819Y-130092268D02*
X81467438Y-129949411D01*
X82419819Y-129520839D02*
X81419819Y-129520839D01*
X81419819Y-129520839D02*
X81419819Y-129282744D01*
X81419819Y-129282744D02*
X81467438Y-129139887D01*
X81467438Y-129139887D02*
X81562676Y-129044649D01*
X81562676Y-129044649D02*
X81657914Y-128997030D01*
X81657914Y-128997030D02*
X81848390Y-128949411D01*
X81848390Y-128949411D02*
X81991247Y-128949411D01*
X81991247Y-128949411D02*
X82181723Y-128997030D01*
X82181723Y-128997030D02*
X82276961Y-129044649D01*
X82276961Y-129044649D02*
X82372200Y-129139887D01*
X82372200Y-129139887D02*
X82419819Y-129282744D01*
X82419819Y-129282744D02*
X82419819Y-129520839D01*
X82134104Y-128568458D02*
X82134104Y-128092268D01*
X82419819Y-128663696D02*
X81419819Y-128330363D01*
X81419819Y-128330363D02*
X82419819Y-127997030D01*
X89039819Y-130616077D02*
X90039819Y-130282744D01*
X90039819Y-130282744D02*
X89039819Y-129949411D01*
X89944580Y-129044649D02*
X89992200Y-129092268D01*
X89992200Y-129092268D02*
X90039819Y-129235125D01*
X90039819Y-129235125D02*
X90039819Y-129330363D01*
X90039819Y-129330363D02*
X89992200Y-129473220D01*
X89992200Y-129473220D02*
X89896961Y-129568458D01*
X89896961Y-129568458D02*
X89801723Y-129616077D01*
X89801723Y-129616077D02*
X89611247Y-129663696D01*
X89611247Y-129663696D02*
X89468390Y-129663696D01*
X89468390Y-129663696D02*
X89277914Y-129616077D01*
X89277914Y-129616077D02*
X89182676Y-129568458D01*
X89182676Y-129568458D02*
X89087438Y-129473220D01*
X89087438Y-129473220D02*
X89039819Y-129330363D01*
X89039819Y-129330363D02*
X89039819Y-129235125D01*
X89039819Y-129235125D02*
X89087438Y-129092268D01*
X89087438Y-129092268D02*
X89135057Y-129044649D01*
X89944580Y-128044649D02*
X89992200Y-128092268D01*
X89992200Y-128092268D02*
X90039819Y-128235125D01*
X90039819Y-128235125D02*
X90039819Y-128330363D01*
X90039819Y-128330363D02*
X89992200Y-128473220D01*
X89992200Y-128473220D02*
X89896961Y-128568458D01*
X89896961Y-128568458D02*
X89801723Y-128616077D01*
X89801723Y-128616077D02*
X89611247Y-128663696D01*
X89611247Y-128663696D02*
X89468390Y-128663696D01*
X89468390Y-128663696D02*
X89277914Y-128616077D01*
X89277914Y-128616077D02*
X89182676Y-128568458D01*
X89182676Y-128568458D02*
X89087438Y-128473220D01*
X89087438Y-128473220D02*
X89039819Y-128330363D01*
X89039819Y-128330363D02*
X89039819Y-128235125D01*
X89039819Y-128235125D02*
X89087438Y-128092268D01*
X89087438Y-128092268D02*
X89135057Y-128044649D01*
X149809048Y-120374819D02*
X149809048Y-119374819D01*
X149809048Y-119374819D02*
X150047143Y-119374819D01*
X150047143Y-119374819D02*
X150190000Y-119422438D01*
X150190000Y-119422438D02*
X150285238Y-119517676D01*
X150285238Y-119517676D02*
X150332857Y-119612914D01*
X150332857Y-119612914D02*
X150380476Y-119803390D01*
X150380476Y-119803390D02*
X150380476Y-119946247D01*
X150380476Y-119946247D02*
X150332857Y-120136723D01*
X150332857Y-120136723D02*
X150285238Y-120231961D01*
X150285238Y-120231961D02*
X150190000Y-120327200D01*
X150190000Y-120327200D02*
X150047143Y-120374819D01*
X150047143Y-120374819D02*
X149809048Y-120374819D01*
X150999524Y-119374819D02*
X151190000Y-119374819D01*
X151190000Y-119374819D02*
X151285238Y-119422438D01*
X151285238Y-119422438D02*
X151380476Y-119517676D01*
X151380476Y-119517676D02*
X151428095Y-119708152D01*
X151428095Y-119708152D02*
X151428095Y-120041485D01*
X151428095Y-120041485D02*
X151380476Y-120231961D01*
X151380476Y-120231961D02*
X151285238Y-120327200D01*
X151285238Y-120327200D02*
X151190000Y-120374819D01*
X151190000Y-120374819D02*
X150999524Y-120374819D01*
X150999524Y-120374819D02*
X150904286Y-120327200D01*
X150904286Y-120327200D02*
X150809048Y-120231961D01*
X150809048Y-120231961D02*
X150761429Y-120041485D01*
X150761429Y-120041485D02*
X150761429Y-119708152D01*
X150761429Y-119708152D02*
X150809048Y-119517676D01*
X150809048Y-119517676D02*
X150904286Y-119422438D01*
X150904286Y-119422438D02*
X150999524Y-119374819D01*
X151761429Y-119374819D02*
X151999524Y-120374819D01*
X151999524Y-120374819D02*
X152190000Y-119660533D01*
X152190000Y-119660533D02*
X152380476Y-120374819D01*
X152380476Y-120374819D02*
X152618572Y-119374819D01*
X152999524Y-120374819D02*
X152999524Y-119374819D01*
X152999524Y-119374819D02*
X153570952Y-120374819D01*
X153570952Y-120374819D02*
X153570952Y-119374819D01*
D13*
X100838095Y-117567419D02*
X100838095Y-118376942D01*
X100838095Y-118376942D02*
X100885714Y-118472180D01*
X100885714Y-118472180D02*
X100933333Y-118519800D01*
X100933333Y-118519800D02*
X101028571Y-118567419D01*
X101028571Y-118567419D02*
X101219047Y-118567419D01*
X101219047Y-118567419D02*
X101314285Y-118519800D01*
X101314285Y-118519800D02*
X101361904Y-118472180D01*
X101361904Y-118472180D02*
X101409523Y-118376942D01*
X101409523Y-118376942D02*
X101409523Y-117567419D01*
X101838095Y-117662657D02*
X101885714Y-117615038D01*
X101885714Y-117615038D02*
X101980952Y-117567419D01*
X101980952Y-117567419D02*
X102219047Y-117567419D01*
X102219047Y-117567419D02*
X102314285Y-117615038D01*
X102314285Y-117615038D02*
X102361904Y-117662657D01*
X102361904Y-117662657D02*
X102409523Y-117757895D01*
X102409523Y-117757895D02*
X102409523Y-117853133D01*
X102409523Y-117853133D02*
X102361904Y-117995990D01*
X102361904Y-117995990D02*
X101790476Y-118567419D01*
X101790476Y-118567419D02*
X102409523Y-118567419D01*
D12*
X85277438Y-94389411D02*
X85229819Y-94484649D01*
X85229819Y-94484649D02*
X85229819Y-94627506D01*
X85229819Y-94627506D02*
X85277438Y-94770363D01*
X85277438Y-94770363D02*
X85372676Y-94865601D01*
X85372676Y-94865601D02*
X85467914Y-94913220D01*
X85467914Y-94913220D02*
X85658390Y-94960839D01*
X85658390Y-94960839D02*
X85801247Y-94960839D01*
X85801247Y-94960839D02*
X85991723Y-94913220D01*
X85991723Y-94913220D02*
X86086961Y-94865601D01*
X86086961Y-94865601D02*
X86182200Y-94770363D01*
X86182200Y-94770363D02*
X86229819Y-94627506D01*
X86229819Y-94627506D02*
X86229819Y-94532268D01*
X86229819Y-94532268D02*
X86182200Y-94389411D01*
X86182200Y-94389411D02*
X86134580Y-94341792D01*
X86134580Y-94341792D02*
X85801247Y-94341792D01*
X85801247Y-94341792D02*
X85801247Y-94532268D01*
X86229819Y-93913220D02*
X85229819Y-93913220D01*
X85229819Y-93913220D02*
X86229819Y-93341792D01*
X86229819Y-93341792D02*
X85229819Y-93341792D01*
X86229819Y-92865601D02*
X85229819Y-92865601D01*
X85229819Y-92865601D02*
X85229819Y-92627506D01*
X85229819Y-92627506D02*
X85277438Y-92484649D01*
X85277438Y-92484649D02*
X85372676Y-92389411D01*
X85372676Y-92389411D02*
X85467914Y-92341792D01*
X85467914Y-92341792D02*
X85658390Y-92294173D01*
X85658390Y-92294173D02*
X85801247Y-92294173D01*
X85801247Y-92294173D02*
X85991723Y-92341792D01*
X85991723Y-92341792D02*
X86086961Y-92389411D01*
X86086961Y-92389411D02*
X86182200Y-92484649D01*
X86182200Y-92484649D02*
X86229819Y-92627506D01*
X86229819Y-92627506D02*
X86229819Y-92865601D01*
X91262200Y-94960839D02*
X91309819Y-94817982D01*
X91309819Y-94817982D02*
X91309819Y-94579887D01*
X91309819Y-94579887D02*
X91262200Y-94484649D01*
X91262200Y-94484649D02*
X91214580Y-94437030D01*
X91214580Y-94437030D02*
X91119342Y-94389411D01*
X91119342Y-94389411D02*
X91024104Y-94389411D01*
X91024104Y-94389411D02*
X90928866Y-94437030D01*
X90928866Y-94437030D02*
X90881247Y-94484649D01*
X90881247Y-94484649D02*
X90833628Y-94579887D01*
X90833628Y-94579887D02*
X90786009Y-94770363D01*
X90786009Y-94770363D02*
X90738390Y-94865601D01*
X90738390Y-94865601D02*
X90690771Y-94913220D01*
X90690771Y-94913220D02*
X90595533Y-94960839D01*
X90595533Y-94960839D02*
X90500295Y-94960839D01*
X90500295Y-94960839D02*
X90405057Y-94913220D01*
X90405057Y-94913220D02*
X90357438Y-94865601D01*
X90357438Y-94865601D02*
X90309819Y-94770363D01*
X90309819Y-94770363D02*
X90309819Y-94532268D01*
X90309819Y-94532268D02*
X90357438Y-94389411D01*
X91214580Y-93389411D02*
X91262200Y-93437030D01*
X91262200Y-93437030D02*
X91309819Y-93579887D01*
X91309819Y-93579887D02*
X91309819Y-93675125D01*
X91309819Y-93675125D02*
X91262200Y-93817982D01*
X91262200Y-93817982D02*
X91166961Y-93913220D01*
X91166961Y-93913220D02*
X91071723Y-93960839D01*
X91071723Y-93960839D02*
X90881247Y-94008458D01*
X90881247Y-94008458D02*
X90738390Y-94008458D01*
X90738390Y-94008458D02*
X90547914Y-93960839D01*
X90547914Y-93960839D02*
X90452676Y-93913220D01*
X90452676Y-93913220D02*
X90357438Y-93817982D01*
X90357438Y-93817982D02*
X90309819Y-93675125D01*
X90309819Y-93675125D02*
X90309819Y-93579887D01*
X90309819Y-93579887D02*
X90357438Y-93437030D01*
X90357438Y-93437030D02*
X90405057Y-93389411D01*
X91309819Y-92484649D02*
X91309819Y-92960839D01*
X91309819Y-92960839D02*
X90309819Y-92960839D01*
X93802200Y-94960839D02*
X93849819Y-94817982D01*
X93849819Y-94817982D02*
X93849819Y-94579887D01*
X93849819Y-94579887D02*
X93802200Y-94484649D01*
X93802200Y-94484649D02*
X93754580Y-94437030D01*
X93754580Y-94437030D02*
X93659342Y-94389411D01*
X93659342Y-94389411D02*
X93564104Y-94389411D01*
X93564104Y-94389411D02*
X93468866Y-94437030D01*
X93468866Y-94437030D02*
X93421247Y-94484649D01*
X93421247Y-94484649D02*
X93373628Y-94579887D01*
X93373628Y-94579887D02*
X93326009Y-94770363D01*
X93326009Y-94770363D02*
X93278390Y-94865601D01*
X93278390Y-94865601D02*
X93230771Y-94913220D01*
X93230771Y-94913220D02*
X93135533Y-94960839D01*
X93135533Y-94960839D02*
X93040295Y-94960839D01*
X93040295Y-94960839D02*
X92945057Y-94913220D01*
X92945057Y-94913220D02*
X92897438Y-94865601D01*
X92897438Y-94865601D02*
X92849819Y-94770363D01*
X92849819Y-94770363D02*
X92849819Y-94532268D01*
X92849819Y-94532268D02*
X92897438Y-94389411D01*
X93849819Y-93960839D02*
X92849819Y-93960839D01*
X92849819Y-93960839D02*
X92849819Y-93722744D01*
X92849819Y-93722744D02*
X92897438Y-93579887D01*
X92897438Y-93579887D02*
X92992676Y-93484649D01*
X92992676Y-93484649D02*
X93087914Y-93437030D01*
X93087914Y-93437030D02*
X93278390Y-93389411D01*
X93278390Y-93389411D02*
X93421247Y-93389411D01*
X93421247Y-93389411D02*
X93611723Y-93437030D01*
X93611723Y-93437030D02*
X93706961Y-93484649D01*
X93706961Y-93484649D02*
X93802200Y-93579887D01*
X93802200Y-93579887D02*
X93849819Y-93722744D01*
X93849819Y-93722744D02*
X93849819Y-93960839D01*
X93564104Y-93008458D02*
X93564104Y-92532268D01*
X93849819Y-93103696D02*
X92849819Y-92770363D01*
X92849819Y-92770363D02*
X93849819Y-92437030D01*
X87769819Y-95056077D02*
X88769819Y-94722744D01*
X88769819Y-94722744D02*
X87769819Y-94389411D01*
X88674580Y-93484649D02*
X88722200Y-93532268D01*
X88722200Y-93532268D02*
X88769819Y-93675125D01*
X88769819Y-93675125D02*
X88769819Y-93770363D01*
X88769819Y-93770363D02*
X88722200Y-93913220D01*
X88722200Y-93913220D02*
X88626961Y-94008458D01*
X88626961Y-94008458D02*
X88531723Y-94056077D01*
X88531723Y-94056077D02*
X88341247Y-94103696D01*
X88341247Y-94103696D02*
X88198390Y-94103696D01*
X88198390Y-94103696D02*
X88007914Y-94056077D01*
X88007914Y-94056077D02*
X87912676Y-94008458D01*
X87912676Y-94008458D02*
X87817438Y-93913220D01*
X87817438Y-93913220D02*
X87769819Y-93770363D01*
X87769819Y-93770363D02*
X87769819Y-93675125D01*
X87769819Y-93675125D02*
X87817438Y-93532268D01*
X87817438Y-93532268D02*
X87865057Y-93484649D01*
X88674580Y-92484649D02*
X88722200Y-92532268D01*
X88722200Y-92532268D02*
X88769819Y-92675125D01*
X88769819Y-92675125D02*
X88769819Y-92770363D01*
X88769819Y-92770363D02*
X88722200Y-92913220D01*
X88722200Y-92913220D02*
X88626961Y-93008458D01*
X88626961Y-93008458D02*
X88531723Y-93056077D01*
X88531723Y-93056077D02*
X88341247Y-93103696D01*
X88341247Y-93103696D02*
X88198390Y-93103696D01*
X88198390Y-93103696D02*
X88007914Y-93056077D01*
X88007914Y-93056077D02*
X87912676Y-93008458D01*
X87912676Y-93008458D02*
X87817438Y-92913220D01*
X87817438Y-92913220D02*
X87769819Y-92770363D01*
X87769819Y-92770363D02*
X87769819Y-92675125D01*
X87769819Y-92675125D02*
X87817438Y-92532268D01*
X87817438Y-92532268D02*
X87865057Y-92484649D01*
X145124819Y-100866666D02*
X144648628Y-101199999D01*
X145124819Y-101438094D02*
X144124819Y-101438094D01*
X144124819Y-101438094D02*
X144124819Y-101057142D01*
X144124819Y-101057142D02*
X144172438Y-100961904D01*
X144172438Y-100961904D02*
X144220057Y-100914285D01*
X144220057Y-100914285D02*
X144315295Y-100866666D01*
X144315295Y-100866666D02*
X144458152Y-100866666D01*
X144458152Y-100866666D02*
X144553390Y-100914285D01*
X144553390Y-100914285D02*
X144601009Y-100961904D01*
X144601009Y-100961904D02*
X144648628Y-101057142D01*
X144648628Y-101057142D02*
X144648628Y-101438094D01*
X145124819Y-99914285D02*
X145124819Y-100485713D01*
X145124819Y-100199999D02*
X144124819Y-100199999D01*
X144124819Y-100199999D02*
X144267676Y-100295237D01*
X144267676Y-100295237D02*
X144362914Y-100390475D01*
X144362914Y-100390475D02*
X144410533Y-100485713D01*
D14*
X148190000Y-111990000D02*
X148190000Y-113490000D01*
X149440000Y-115990000D02*
X153940000Y-115990000D01*
X153940000Y-109490000D02*
X149440000Y-109490000D01*
X155190000Y-113490000D02*
X155190000Y-111990000D01*
X147630000Y-99580000D02*
X147630000Y-101080000D01*
X148880000Y-103580000D02*
X153380000Y-103580000D01*
X153380000Y-97080000D02*
X148880000Y-97080000D01*
X154630000Y-101080000D02*
X154630000Y-99580000D01*
X135160000Y-87530000D02*
X141700000Y-87530000D01*
X135160000Y-87860000D02*
X135160000Y-87530000D01*
X135160000Y-89940000D02*
X135160000Y-90270000D01*
X135160000Y-90270000D02*
X141700000Y-90270000D01*
X141700000Y-87530000D02*
X141700000Y-87860000D01*
X141700000Y-90270000D02*
X141700000Y-89940000D01*
X141230000Y-110240000D02*
X141230000Y-116780000D01*
X141230000Y-116780000D02*
X141560000Y-116780000D01*
X141560000Y-110240000D02*
X141230000Y-110240000D01*
X143640000Y-110240000D02*
X143970000Y-110240000D01*
X143970000Y-110240000D02*
X143970000Y-116780000D01*
X143970000Y-116780000D02*
X143640000Y-116780000D01*
X151150000Y-90445000D02*
X151150000Y-87355000D01*
X145600000Y-88900462D02*
G75*
G02*
X151150000Y-87355170I2990000J462D01*
G01*
X151150000Y-90444830D02*
G75*
G02*
X145600000Y-88899538I-2560000J1544830D01*
G01*
X151090000Y-88900000D02*
G75*
G02*
X146090000Y-88900000I-2500000J0D01*
G01*
X146090000Y-88900000D02*
G75*
G02*
X151090000Y-88900000I2500000J0D01*
G01*
X141030000Y-121640000D02*
X141030000Y-128180000D01*
X141030000Y-128180000D02*
X141360000Y-128180000D01*
X141360000Y-121640000D02*
X141030000Y-121640000D01*
X143440000Y-121640000D02*
X143770000Y-121640000D01*
X143770000Y-121640000D02*
X143770000Y-128180000D01*
X143770000Y-128180000D02*
X143440000Y-128180000D01*
X134520000Y-123330000D02*
X134835000Y-123330000D01*
X134520000Y-128270000D02*
X134520000Y-123330000D01*
X134520000Y-128270000D02*
X134835000Y-128270000D01*
X136945000Y-123330000D02*
X137260000Y-123330000D01*
X136945000Y-128270000D02*
X137260000Y-128270000D01*
X137260000Y-128270000D02*
X137260000Y-123330000D01*
X111630000Y-88770000D02*
X111630000Y-132210000D01*
X111630000Y-88770000D02*
X116710000Y-88770000D01*
X111630000Y-132210000D02*
X129670000Y-132210000D01*
X114300000Y-91440000D02*
X111630000Y-91440000D01*
X114300000Y-129540000D02*
X111630000Y-129540000D01*
X114300000Y-129540000D02*
X114300000Y-91440000D01*
X116710000Y-86230000D02*
X124590000Y-86230000D01*
X116710000Y-96650000D02*
X116710000Y-86230000D01*
X124590000Y-86230000D02*
X124590000Y-96650000D01*
X124590000Y-96650000D02*
X116710000Y-96650000D01*
X127000000Y-91440000D02*
X129670000Y-91440000D01*
X127000000Y-127000000D02*
X127000000Y-91440000D01*
X127000000Y-127000000D02*
X127000000Y-129540000D01*
X127000000Y-127000000D02*
X129670000Y-127000000D01*
X127000000Y-129540000D02*
X129670000Y-129540000D01*
X129670000Y-88770000D02*
X124590000Y-88770000D01*
X129670000Y-127000000D02*
X129670000Y-88770000D01*
X129670000Y-132210000D02*
X129670000Y-129540000D01*
X134430000Y-99130000D02*
X134745000Y-99130000D01*
X134430000Y-104070000D02*
X134430000Y-99130000D01*
X134430000Y-104070000D02*
X134745000Y-104070000D01*
X136855000Y-99130000D02*
X137170000Y-99130000D01*
X136855000Y-104070000D02*
X137170000Y-104070000D01*
X137170000Y-104070000D02*
X137170000Y-99130000D01*
X134520000Y-111930000D02*
X134835000Y-111930000D01*
X134520000Y-116870000D02*
X134520000Y-111930000D01*
X134520000Y-116870000D02*
X134835000Y-116870000D01*
X136945000Y-111930000D02*
X137260000Y-111930000D01*
X136945000Y-116870000D02*
X137260000Y-116870000D01*
X137260000Y-116870000D02*
X137260000Y-111930000D01*
D13*
X78090000Y-122770000D02*
X92090000Y-122770000D01*
X78090000Y-136770000D02*
X78090000Y-122770000D01*
X92090000Y-122770000D02*
X92090000Y-136770000D01*
X92090000Y-136770000D02*
X78090000Y-136770000D01*
D14*
X148190000Y-123420000D02*
X148190000Y-124920000D01*
X149440000Y-127420000D02*
X153940000Y-127420000D01*
X153940000Y-120920000D02*
X149440000Y-120920000D01*
X155190000Y-124920000D02*
X155190000Y-123420000D01*
D13*
X76200000Y-88900000D02*
X104140000Y-88900000D01*
X76200000Y-116840000D02*
X76200000Y-88900000D01*
X104140000Y-88900000D02*
X104140000Y-116840000D01*
X104140000Y-116840000D02*
X76200000Y-116840000D01*
D14*
X140930000Y-97430000D02*
X140930000Y-103970000D01*
X140930000Y-103970000D02*
X141260000Y-103970000D01*
X141260000Y-97430000D02*
X140930000Y-97430000D01*
X143340000Y-97430000D02*
X143670000Y-97430000D01*
X143670000Y-97430000D02*
X143670000Y-103970000D01*
X143670000Y-103970000D02*
X143340000Y-103970000D01*
%LPC*%
D15*
X148440000Y-110490000D03*
X154940000Y-110490000D03*
X148440000Y-114990000D03*
X154940000Y-114990000D03*
X147880000Y-98080000D03*
X154380000Y-98080000D03*
X147880000Y-102580000D03*
X154380000Y-102580000D03*
D16*
X134620000Y-88900000D03*
D17*
X142240000Y-88900000D03*
D16*
X142600000Y-109700000D03*
D17*
X142600000Y-117320000D03*
D18*
X149860000Y-88900000D03*
D19*
X147320000Y-88900000D03*
D16*
X142400000Y-121100000D03*
D17*
X142400000Y-128720000D03*
D16*
X135890000Y-128300000D03*
X135890000Y-123300000D03*
D20*
X128270000Y-128270000D03*
D17*
X128270000Y-125730000D03*
X128270000Y-123190000D03*
X128270000Y-120650000D03*
X128270000Y-118110000D03*
X128270000Y-115570000D03*
X128270000Y-113030000D03*
X128270000Y-110490000D03*
X128270000Y-107950000D03*
X128270000Y-105410000D03*
X128270000Y-102870000D03*
X128270000Y-100330000D03*
X128270000Y-97790000D03*
X128270000Y-95250000D03*
X128270000Y-92710000D03*
X113030000Y-92710000D03*
X113030000Y-95250000D03*
X113030000Y-97790000D03*
X113030000Y-100330000D03*
X113030000Y-102870000D03*
X113030000Y-105410000D03*
X113030000Y-107950000D03*
X113030000Y-110490000D03*
X113030000Y-113030000D03*
X113030000Y-115570000D03*
X113030000Y-118110000D03*
X113030000Y-120650000D03*
X113030000Y-123190000D03*
X113030000Y-125730000D03*
X113030000Y-128270000D03*
D16*
X135800000Y-104100000D03*
X135800000Y-99100000D03*
X135890000Y-116900000D03*
X135890000Y-111900000D03*
D21*
X80010000Y-125730000D03*
D22*
X82550000Y-125730000D03*
X85090000Y-125730000D03*
X87630000Y-125730000D03*
X90170000Y-125730000D03*
D15*
X148440000Y-121920000D03*
X154940000Y-121920000D03*
X148440000Y-126420000D03*
X154940000Y-126420000D03*
D21*
X86360000Y-90170000D03*
D22*
X88900000Y-90170000D03*
X91440000Y-90170000D03*
X93980000Y-90170000D03*
D16*
X142300000Y-96890000D03*
D17*
X142300000Y-104510000D03*
%LPD*%
M02*
